<svg width="641" height="504" viewBox="0 0 641 504" fill="none" xmlns="http://www.w3.org/2000/svg">
<g filter="url(#filter0_d_336_180)">
<rect x="30" y="25" width="416" height="308" rx="16" fill="white"/>
</g>
<path d="M68.386 72.454V85H74.416V83.668H70.024V72.454H68.386ZM75.5435 80.032C75.5435 83.092 77.5775 85.162 80.2055 85.162C82.0235 85.162 83.3015 84.226 83.8955 83.164V85H85.5515V75.136H83.8955V76.936C83.3195 75.91 82.0595 74.974 80.2235 74.974C77.5775 74.974 75.5435 76.954 75.5435 80.032ZM83.8955 80.05C83.8955 82.372 82.3475 83.722 80.5475 83.722C78.7475 83.722 77.2175 82.354 77.2175 80.032C77.2175 77.71 78.7475 76.396 80.5475 76.396C82.3475 76.396 83.8955 77.764 83.8955 80.05ZM92.0636 83.128L88.9676 75.136H87.1496L91.1276 84.892L89.1836 89.644H90.8756L96.8156 75.136H95.1236L92.0636 83.128ZM102.656 76.36C104.348 76.36 105.788 77.422 105.77 79.348H99.5422C99.7222 77.422 101.054 76.36 102.656 76.36ZM107.264 81.958H105.5C105.14 83.02 104.204 83.776 102.728 83.776C101.054 83.776 99.6502 82.678 99.5242 80.68H107.408C107.444 80.338 107.462 80.05 107.462 79.69C107.462 76.99 105.59 74.974 102.728 74.974C99.8482 74.974 97.8502 76.936 97.8502 80.05C97.8502 83.182 99.9202 85.162 102.728 85.162C105.176 85.162 106.76 83.758 107.264 81.958ZM111.262 79.636C111.262 77.35 112.45 76.648 114.016 76.648H114.448V74.956C112.882 74.956 111.82 75.64 111.262 76.738V75.136H109.624V85H111.262V79.636ZM122.164 85H123.82V71.986H120.436V73.48H122.164V85ZM128.506 83.992C128.506 83.362 128.02 82.876 127.426 82.876C126.796 82.876 126.31 83.362 126.31 83.992C126.31 84.622 126.796 85.108 127.426 85.108C128.02 85.108 128.506 84.622 128.506 83.992ZM128.506 76.288C128.506 75.658 128.02 75.172 127.426 75.172C126.796 75.172 126.31 75.658 126.31 76.288C126.31 76.918 126.796 77.404 127.426 77.404C128.02 77.404 128.506 76.918 128.506 76.288Z" fill="#183B56"/>
<path d="M196.924 151H198.016V142.636H196.924V151ZM209.369 151H210.449V147.124C210.449 145.24 209.285 144.304 207.785 144.304C206.777 144.304 205.841 144.82 205.457 145.768C205.025 144.784 204.125 144.304 203.045 144.304C202.181 144.304 201.401 144.676 200.969 145.372V144.424H199.877V151H200.969V147.376C200.969 145.96 201.725 145.252 202.829 145.252C203.909 145.252 204.629 145.936 204.629 147.28V151H205.709V147.376C205.709 145.96 206.465 145.252 207.569 145.252C208.649 145.252 209.369 145.936 209.369 147.28V151ZM211.832 147.688C211.832 149.728 213.188 151.108 214.94 151.108C216.152 151.108 217.004 150.484 217.4 149.776V151H218.504V144.424H217.4V145.624C217.016 144.94 216.176 144.316 214.952 144.316C213.188 144.316 211.832 145.636 211.832 147.688ZM217.4 147.7C217.4 149.248 216.368 150.148 215.168 150.148C213.968 150.148 212.948 149.236 212.948 147.688C212.948 146.14 213.968 145.264 215.168 145.264C216.368 145.264 217.4 146.176 217.4 147.7ZM219.942 147.688C219.942 149.728 221.298 151.108 223.062 151.108C224.262 151.108 225.114 150.472 225.51 149.764V151.144C225.51 152.548 224.634 153.292 223.47 153.292C222.39 153.292 221.61 152.752 221.37 151.96H220.29C220.506 153.364 221.742 154.24 223.47 154.24C225.402 154.24 226.614 152.956 226.614 151.144V144.424H225.51V145.624C225.126 144.916 224.262 144.316 223.062 144.316C221.298 144.316 219.942 145.636 219.942 147.688ZM225.51 147.7C225.51 149.248 224.478 150.148 223.278 150.148C222.078 150.148 221.058 149.236 221.058 147.688C221.058 146.14 222.078 145.264 223.278 145.264C224.478 145.264 225.51 146.176 225.51 147.7ZM231.255 145.24C232.383 145.24 233.343 145.948 233.331 147.232H229.179C229.299 145.948 230.187 145.24 231.255 145.24ZM234.327 148.972H233.151C232.911 149.68 232.287 150.184 231.303 150.184C230.187 150.184 229.251 149.452 229.167 148.12H234.423C234.447 147.892 234.459 147.7 234.459 147.46C234.459 145.66 233.211 144.316 231.303 144.316C229.383 144.316 228.051 145.624 228.051 147.7C228.051 149.788 229.431 151.108 231.303 151.108C232.935 151.108 233.991 150.172 234.327 148.972ZM244.584 142.624V149.272L240.192 142.624H239.1V151H240.192V144.34L244.584 151H245.676V142.624H244.584ZM247.129 147.688C247.129 149.728 248.485 151.108 250.237 151.108C251.449 151.108 252.301 150.484 252.697 149.776V151H253.801V144.424H252.697V145.624C252.313 144.94 251.473 144.316 250.249 144.316C248.485 144.316 247.129 145.636 247.129 147.688ZM252.697 147.7C252.697 149.248 251.665 150.148 250.465 150.148C249.265 150.148 248.245 149.236 248.245 147.688C248.245 146.14 249.265 145.264 250.465 145.264C251.665 145.264 252.697 146.176 252.697 147.7ZM265.139 151H266.219V147.124C266.219 145.24 265.055 144.304 263.555 144.304C262.547 144.304 261.611 144.82 261.227 145.768C260.795 144.784 259.895 144.304 258.815 144.304C257.951 144.304 257.171 144.676 256.739 145.372V144.424H255.647V151H256.739V147.376C256.739 145.96 257.495 145.252 258.599 145.252C259.679 145.252 260.399 145.936 260.399 147.28V151H261.479V147.376C261.479 145.96 262.235 145.252 263.339 145.252C264.419 145.252 265.139 145.936 265.139 147.28V151ZM270.806 145.24C271.934 145.24 272.894 145.948 272.882 147.232H268.73C268.85 145.948 269.738 145.24 270.806 145.24ZM273.878 148.972H272.702C272.462 149.68 271.838 150.184 270.854 150.184C269.738 150.184 268.802 149.452 268.718 148.12H273.974C273.998 147.892 274.01 147.7 274.01 147.46C274.01 145.66 272.762 144.316 270.854 144.316C268.934 144.316 267.602 145.624 267.602 147.7C267.602 149.788 268.982 151.108 270.854 151.108C272.486 151.108 273.542 150.172 273.878 148.972Z" fill="#183B56"/>
<path d="M201.4 227.096C201.4 228.032 200.86 228.704 199.624 228.704H198.016V225.536H199.624C200.872 225.536 201.4 226.148 201.4 227.096ZM196.924 224.636V233H198.016V229.58H199.336L201.328 233H202.636L200.536 229.496C201.94 229.184 202.528 228.164 202.528 227.096C202.528 225.728 201.592 224.636 199.624 224.636H196.924ZM203.817 229.688C203.817 231.728 205.173 233.108 206.925 233.108C208.137 233.108 208.989 232.484 209.385 231.776V233H210.489V226.424H209.385V227.624C209.001 226.94 208.161 226.316 206.937 226.316C205.173 226.316 203.817 227.636 203.817 229.688ZM209.385 229.7C209.385 231.248 208.353 232.148 207.153 232.148C205.953 232.148 204.933 231.236 204.933 229.688C204.933 228.14 205.953 227.264 207.153 227.264C208.353 227.264 209.385 228.176 209.385 229.7ZM213.426 229.424C213.426 227.9 214.218 227.432 215.262 227.432H215.55V226.304C214.506 226.304 213.798 226.76 213.426 227.492V226.424H212.334V233H213.426V229.424ZM216.811 233H217.903V226.424H216.811V233ZM217.375 225.356C217.771 225.356 218.095 225.032 218.095 224.612C218.095 224.192 217.771 223.868 217.375 223.868C216.955 223.868 216.631 224.192 216.631 224.612C216.631 225.032 216.955 225.356 217.375 225.356ZM220.004 231.2C220.004 232.52 220.664 233 221.828 233H222.812V232.076H222.008C221.336 232.076 221.096 231.848 221.096 231.2V227.324H222.812V226.424H221.096V224.768H220.004V226.424H219.152V227.324H220.004V231.2ZM226.631 231.752L224.567 226.424H223.355L226.007 232.928L224.711 236.096H225.839L229.799 226.424H228.671L226.631 231.752Z" fill="#183B56"/>
<rect x="144" y="62" width="238" height="34" rx="4" fill="#F1F1F1"/>
<rect x="196" y="162" width="215" height="34" rx="4" fill="#F1F1F1"/>
<rect x="196.1" y="244.1" width="214.8" height="33.8" rx="3.9" fill="#F1F1F1" stroke="#183B56" stroke-width="0.2"/>
<path d="M401 87C400.47 87 399.961 86.7893 399.586 86.4142C399.211 86.0391 399 85.5304 399 85C399 84.4696 399.211 83.9609 399.586 83.5858C399.961 83.2107 400.47 83 401 83C401.53 83 402.039 83.2107 402.414 83.5858C402.789 83.9609 403 84.4696 403 85C403 85.5304 402.789 86.0391 402.414 86.4142C402.039 86.7893 401.53 87 401 87ZM401 81C400.47 81 399.961 80.7893 399.586 80.4142C399.211 80.0391 399 79.5304 399 79C399 78.4696 399.211 77.9609 399.586 77.5858C399.961 77.2107 400.47 77 401 77C401.53 77 402.039 77.2107 402.414 77.5858C402.789 77.9609 403 78.4696 403 79C403 79.5304 402.789 80.0391 402.414 80.4142C402.039 80.7893 401.53 81 401 81ZM401 75C400.47 75 399.961 74.7893 399.586 74.4142C399.211 74.0391 399 73.5304 399 73C399 72.4696 399.211 71.9609 399.586 71.5858C399.961 71.2107 400.47 71 401 71C401.53 71 402.039 71.2107 402.414 71.5858C402.789 71.9609 403 72.4696 403 73C403 73.5304 402.789 74.0391 402.414 74.4142C402.039 74.7893 401.53 75 401 75Z" fill="#7C2AE8"/>
<path d="M165.538 80.214C165.538 81.152 164.88 81.698 163.802 81.698H161.646V78.66H163.746C164.81 78.66 165.538 79.248 165.538 80.214ZM165.286 75.972C165.286 76.868 164.656 77.358 163.62 77.358H161.646V74.572H163.62C164.656 74.572 165.286 75.09 165.286 75.972ZM167.134 80.382C167.134 79.22 166.294 78.184 165.258 78.002C166.196 77.666 166.91 76.952 166.91 75.776C166.91 74.404 165.818 73.27 163.76 73.27H160.05V83H163.942C165.93 83 167.134 81.866 167.134 80.382ZM168.336 79.108C168.336 81.488 169.946 83.126 171.948 83.126C173.236 83.126 174.16 82.51 174.65 81.852V83H176.26V75.286H174.65V76.406C174.174 75.776 173.278 75.16 171.976 75.16C169.946 75.16 168.336 76.728 168.336 79.108ZM174.65 79.136C174.65 80.802 173.516 81.74 172.312 81.74C171.122 81.74 169.974 80.774 169.974 79.108C169.974 77.442 171.122 76.546 172.312 76.546C173.516 76.546 174.65 77.484 174.65 79.136ZM177.825 79.136C177.825 81.558 179.393 83.126 181.605 83.126C183.495 83.126 184.727 82.076 185.161 80.564H183.439C183.145 81.362 182.557 81.782 181.605 81.782C180.317 81.782 179.463 80.83 179.463 79.136C179.463 77.456 180.317 76.504 181.605 76.504C182.557 76.504 183.173 76.98 183.439 77.722H185.161C184.727 76.098 183.495 75.16 181.605 75.16C179.393 75.16 177.825 76.728 177.825 79.136ZM186.751 83H188.347V79.682L191.203 83H193.359L189.803 79.15L193.359 75.286H191.147L188.347 78.66V72.64H186.751V83ZM193.971 79.108C193.971 81.488 195.581 83.126 197.611 83.126C198.871 83.126 199.795 82.496 200.285 81.838V83.126C200.285 84.666 199.361 85.422 198.129 85.422C197.023 85.422 196.169 84.876 195.931 84.078H194.349C194.545 85.786 196.071 86.808 198.129 86.808C200.537 86.808 201.895 85.226 201.895 83.126V75.286H200.285V76.406C199.809 75.748 198.871 75.16 197.611 75.16C195.581 75.16 193.971 76.728 193.971 79.108ZM200.285 79.136C200.285 80.802 199.151 81.74 197.947 81.74C196.757 81.74 195.609 80.774 195.609 79.108C195.609 77.442 196.757 76.546 197.947 76.546C199.151 76.546 200.285 77.484 200.285 79.136ZM205.587 78.94C205.587 77.302 206.315 76.812 207.491 76.812H207.897V75.16C206.805 75.16 206.035 75.636 205.587 76.406V75.286H203.991V83H205.587V78.94ZM216.714 79.136C216.714 76.714 214.978 75.16 212.78 75.16C210.582 75.16 208.846 76.714 208.846 79.136C208.846 81.558 210.512 83.126 212.71 83.126C214.922 83.126 216.714 81.558 216.714 79.136ZM210.47 79.136C210.47 77.386 211.548 76.546 212.752 76.546C213.942 76.546 215.076 77.386 215.076 79.136C215.076 80.886 213.9 81.74 212.71 81.74C211.506 81.74 210.47 80.886 210.47 79.136ZM225.278 75.286H223.682V79.584C223.682 80.998 222.912 81.726 221.736 81.726C220.574 81.726 219.804 80.998 219.804 79.584V75.286H218.222V79.822C218.222 81.978 219.594 83.112 221.4 83.112C222.31 83.112 223.178 82.734 223.682 82.076V83H225.278V75.286ZM232.858 83H234.44V78.45C234.44 76.294 233.082 75.16 231.276 75.16C230.352 75.16 229.498 75.538 228.98 76.168V75.286H227.384V83H228.98V78.688C228.98 77.274 229.75 76.546 230.926 76.546C232.088 76.546 232.858 77.274 232.858 78.688V83ZM235.944 79.108C235.944 81.488 237.554 83.126 239.584 83.126C240.844 83.126 241.768 82.538 242.258 81.838V83H243.868V72.64H242.258V76.364C241.67 75.636 240.606 75.16 239.598 75.16C237.554 75.16 235.944 76.728 235.944 79.108ZM242.258 79.136C242.258 80.802 241.124 81.74 239.92 81.74C238.73 81.74 237.582 80.774 237.582 79.108C237.582 77.442 238.73 76.546 239.92 76.546C241.124 76.546 242.258 77.484 242.258 79.136Z" fill="#183B56"/>
<path d="M218.538 180.214C218.538 181.152 217.88 181.698 216.802 181.698H214.646V178.66H216.746C217.81 178.66 218.538 179.248 218.538 180.214ZM218.286 175.972C218.286 176.868 217.656 177.358 216.62 177.358H214.646V174.572H216.62C217.656 174.572 218.286 175.09 218.286 175.972ZM220.134 180.382C220.134 179.22 219.294 178.184 218.258 178.002C219.196 177.666 219.91 176.952 219.91 175.776C219.91 174.404 218.818 173.27 216.76 173.27H213.05V183H216.942C218.93 183 220.134 181.866 220.134 180.382ZM221.868 183H223.464V172.64H221.868V183ZM232.546 175.286H230.95V179.584C230.95 180.998 230.18 181.726 229.004 181.726C227.842 181.726 227.072 180.998 227.072 179.584V175.286H225.49V179.822C225.49 181.978 226.862 183.112 228.668 183.112C229.578 183.112 230.446 182.734 230.95 182.076V183H232.546V175.286ZM237.9 176.504C239.09 176.504 240.028 177.26 240.056 178.45H235.786C235.954 177.232 236.822 176.504 237.9 176.504ZM241.512 180.704H239.79C239.496 181.306 238.95 181.782 237.97 181.782C236.794 181.782 235.884 181.012 235.772 179.738H241.666C241.708 179.472 241.722 179.22 241.722 178.954C241.722 176.686 240.168 175.16 237.97 175.16C235.688 175.16 234.12 176.714 234.12 179.136C234.12 181.558 235.758 183.126 237.97 183.126C239.86 183.126 241.078 182.048 241.512 180.704Z" fill="#183B56"/>
<path d="M212.518 260.114C212.518 263.04 214.744 265.084 217.488 265.084C219.518 265.084 221.268 264.076 222.01 262.172H220.092C219.574 263.208 218.65 263.698 217.488 263.698C215.556 263.698 214.156 262.312 214.156 260.114C214.156 257.916 215.556 256.544 217.488 256.544C218.65 256.544 219.574 257.034 220.092 258.07H222.01C221.268 256.166 219.518 255.144 217.488 255.144C214.744 255.144 212.518 257.202 212.518 260.114ZM231.228 261.136C231.228 258.714 229.492 257.16 227.294 257.16C225.096 257.16 223.36 258.714 223.36 261.136C223.36 263.558 225.026 265.126 227.224 265.126C229.436 265.126 231.228 263.558 231.228 261.136ZM224.984 261.136C224.984 259.386 226.062 258.546 227.266 258.546C228.456 258.546 229.59 259.386 229.59 261.136C229.59 262.886 228.414 263.74 227.224 263.74C226.02 263.74 224.984 262.886 224.984 261.136ZM243.74 265H245.322V260.45C245.322 258.294 243.95 257.16 242.144 257.16C241.024 257.16 239.932 257.748 239.456 258.686C238.924 257.678 237.902 257.16 236.684 257.16C235.76 257.16 234.92 257.538 234.402 258.168V257.286H232.806V265H234.402V260.688C234.402 259.274 235.172 258.546 236.348 258.546C237.51 258.546 238.28 259.274 238.28 260.688V265H239.862V260.688C239.862 259.274 240.632 258.546 241.808 258.546C242.97 258.546 243.74 259.274 243.74 260.688V265ZM258.287 265H259.869V260.45C259.869 258.294 258.497 257.16 256.691 257.16C255.571 257.16 254.479 257.748 254.003 258.686C253.471 257.678 252.449 257.16 251.231 257.16C250.307 257.16 249.467 257.538 248.949 258.168V257.286H247.353V265H248.949V260.688C248.949 259.274 249.719 258.546 250.895 258.546C252.057 258.546 252.827 259.274 252.827 260.688V265H254.409V260.688C254.409 259.274 255.179 258.546 256.355 258.546C257.517 258.546 258.287 259.274 258.287 260.688V265ZM269.25 261.136C269.25 258.714 267.514 257.16 265.316 257.16C263.118 257.16 261.382 258.714 261.382 261.136C261.382 263.558 263.048 265.126 265.246 265.126C267.458 265.126 269.25 263.558 269.25 261.136ZM263.006 261.136C263.006 259.386 264.084 258.546 265.288 258.546C266.478 258.546 267.612 259.386 267.612 261.136C267.612 262.886 266.436 263.74 265.246 263.74C264.042 263.74 263.006 262.886 263.006 261.136ZM276.301 265H277.883V260.45C277.883 258.294 276.525 257.16 274.719 257.16C273.795 257.16 272.941 257.538 272.423 258.168V257.286H270.827V265H272.423V260.688C272.423 259.274 273.193 258.546 274.369 258.546C275.531 258.546 276.301 259.274 276.301 260.688V265Z" fill="#183B56"/>
<rect x="67.5" y="139.5" width="116" height="154" rx="6.5" stroke="#7C2AE8"/>
<rect x="72" y="146" width="107" height="141" rx="7" fill="#A6A6A6"/>
<g filter="url(#filter1_d_336_180)">
<circle cx="69" cy="287" r="18" fill="white"/>
</g>
<path d="M69 275C70.0262 275 71.0132 275.394 71.7568 276.102C72.5004 276.809 72.9437 277.775 72.995 278.8L73 279H78C78.2549 279 78.5 279.098 78.6854 279.273C78.8707 279.448 78.9822 279.687 78.9972 279.941C79.0121 280.196 78.9293 280.446 78.7657 280.642C78.6021 280.837 78.3701 280.963 78.117 280.993L78 281H77.151L75.971 295.553C75.8949 296.492 75.4681 297.368 74.7754 298.007C74.0828 298.645 73.1752 299 72.233 299H65.767C64.8248 299 63.9172 298.645 63.2246 298.007C62.5319 297.368 62.1051 296.492 62.029 295.553L60.848 281H60C59.7551 281 59.5187 280.91 59.3356 280.747C59.1526 280.585 59.0357 280.36 59.007 280.117L59 280C59 279.755 59.09 279.519 59.2527 279.336C59.4155 279.153 59.6397 279.036 59.883 279.007L60 279H65C65 277.939 65.4214 276.922 66.1716 276.172C66.9217 275.421 67.9391 275 69 275ZM66.75 284.25C66.5688 284.25 66.3937 284.316 66.2571 284.435C66.1205 284.554 66.0316 284.718 66.007 284.898L66 285V293L66.007 293.102C66.0317 293.282 66.1206 293.446 66.2571 293.565C66.3937 293.684 66.5688 293.75 66.75 293.75C66.9312 293.75 67.1063 293.684 67.2429 293.565C67.3794 293.446 67.4683 293.282 67.493 293.102L67.5 293V285L67.493 284.898C67.4684 284.718 67.3795 284.554 67.2429 284.435C67.1063 284.316 66.9312 284.25 66.75 284.25ZM71.25 284.25C71.0688 284.25 70.8937 284.316 70.7571 284.435C70.6205 284.554 70.5316 284.718 70.507 284.898L70.5 285V293L70.507 293.102C70.5317 293.282 70.6206 293.446 70.7571 293.565C70.8937 293.684 71.0688 293.75 71.25 293.75C71.4312 293.75 71.6063 293.684 71.7429 293.565C71.8794 293.446 71.9683 293.282 71.993 293.102L72 293V285L71.993 284.898C71.9684 284.718 71.8795 284.554 71.7429 284.435C71.6063 284.316 71.4312 284.25 71.25 284.25ZM69 277C68.4954 277 68.0094 277.19 67.6395 277.533C67.2695 277.877 67.0428 278.347 67.005 278.85L67 279H71L70.995 278.85C70.9572 278.347 70.7305 277.877 70.3605 277.533C69.9906 277.19 69.5046 277 69 277Z" fill="#FF3939"/>
<path d="M384 261L387 264L390 261" stroke="#183B56" stroke-width="1.5" stroke-linecap="round" stroke-linejoin="round"/>
<g filter="url(#filter2_d_336_180)">
<rect x="298" y="297" width="313" height="172" rx="16" fill="white"/>
</g>
<path d="M311.201 296.222C309.401 294.322 307.001 293.022 304.501 292.522C303.401 292.222 302.301 292.022 301.201 291.922C304.001 288.622 303.501 283.622 300.201 280.822C296.901 278.022 291.901 278.522 289.101 281.822C286.301 285.122 286.801 290.122 290.101 292.922C290.701 293.422 291.301 293.822 291.901 294.022V296.222L290.301 294.722C288.901 293.322 286.601 293.322 285.101 294.722C283.701 296.122 283.601 298.322 285.001 299.722L289.601 305.122C289.801 306.522 290.301 307.822 291.001 309.022C291.501 309.922 292.201 310.822 292.901 311.522V313.422C292.901 314.022 293.301 314.422 293.901 314.422H307.501C308.001 314.422 308.501 313.922 308.501 313.422V310.822C310.401 308.522 311.401 305.622 311.401 302.722V296.922C311.501 296.522 311.401 296.322 311.201 296.222ZM289.201 286.822C289.201 283.522 291.901 280.922 295.201 281.022C298.501 281.022 301.101 283.722 301.001 287.022C301.001 288.822 300.201 290.422 298.801 291.522V286.522C298.75 285.655 298.37 284.841 297.737 284.246C297.105 283.651 296.269 283.32 295.401 283.322C293.601 283.222 292.001 284.722 292.001 286.522V291.722C290.301 290.722 289.301 288.822 289.201 286.822ZM309.501 302.622C309.601 305.222 308.701 307.722 307.001 309.722C306.801 309.922 306.601 310.122 306.601 310.422V312.522H295.001V311.122C295.001 310.822 294.801 310.522 294.601 310.322C293.901 309.722 293.301 309.022 292.801 308.122C292.201 307.122 291.801 305.922 291.601 304.722C291.601 304.522 291.501 304.322 291.401 304.122L286.601 298.422C286.301 298.122 286.101 297.722 286.101 297.222C286.101 296.822 286.301 296.322 286.601 296.022C287.301 295.422 288.301 295.422 289.001 296.022L291.901 298.922V301.922L293.801 300.922V286.522C293.901 285.822 294.501 285.222 295.301 285.322C296.001 285.322 296.701 285.822 296.701 286.522V298.022L298.701 298.422V293.822C298.801 293.722 298.901 293.722 299.001 293.622C299.701 293.622 300.401 293.722 301.101 293.822V298.922L302.701 299.222V294.022L303.901 294.322C304.401 294.422 304.901 294.622 305.401 294.822V299.822L307.001 300.122V295.522C307.901 295.922 308.701 296.522 309.401 297.222L309.501 302.622Z" fill="#7C2AE8"/>
<rect x="321" y="322" width="259" height="34" rx="4" fill="#00C4CC" fill-opacity="0.1"/>
<rect x="321" y="356" width="259" height="34" rx="4" fill="white"/>
<rect x="321" y="390" width="259" height="34" rx="4" fill="white"/>
<rect x="321" y="424" width="259" height="34" rx="4" fill="white"/>
<path d="M337.518 338.114C337.518 341.04 339.744 343.084 342.488 343.084C344.518 343.084 346.268 342.076 347.01 340.172H345.092C344.574 341.208 343.65 341.698 342.488 341.698C340.556 341.698 339.156 340.312 339.156 338.114C339.156 335.916 340.556 334.544 342.488 334.544C343.65 334.544 344.574 335.034 345.092 336.07H347.01C346.268 334.166 344.518 333.144 342.488 333.144C339.744 333.144 337.518 335.202 337.518 338.114ZM356.228 339.136C356.228 336.714 354.492 335.16 352.294 335.16C350.096 335.16 348.36 336.714 348.36 339.136C348.36 341.558 350.026 343.126 352.224 343.126C354.436 343.126 356.228 341.558 356.228 339.136ZM349.984 339.136C349.984 337.386 351.062 336.546 352.266 336.546C353.456 336.546 354.59 337.386 354.59 339.136C354.59 340.886 353.414 341.74 352.224 341.74C351.02 341.74 349.984 340.886 349.984 339.136ZM368.74 343H370.322V338.45C370.322 336.294 368.95 335.16 367.144 335.16C366.024 335.16 364.932 335.748 364.456 336.686C363.924 335.678 362.902 335.16 361.684 335.16C360.76 335.16 359.92 335.538 359.402 336.168V335.286H357.806V343H359.402V338.688C359.402 337.274 360.172 336.546 361.348 336.546C362.51 336.546 363.28 337.274 363.28 338.688V343H364.862V338.688C364.862 337.274 365.632 336.546 366.808 336.546C367.97 336.546 368.74 337.274 368.74 338.688V343ZM383.287 343H384.869V338.45C384.869 336.294 383.497 335.16 381.691 335.16C380.571 335.16 379.479 335.748 379.003 336.686C378.471 335.678 377.449 335.16 376.231 335.16C375.307 335.16 374.467 335.538 373.949 336.168V335.286H372.353V343H373.949V338.688C373.949 337.274 374.719 336.546 375.895 336.546C377.057 336.546 377.827 337.274 377.827 338.688V343H379.409V338.688C379.409 337.274 380.179 336.546 381.355 336.546C382.517 336.546 383.287 337.274 383.287 338.688V343ZM394.25 339.136C394.25 336.714 392.514 335.16 390.316 335.16C388.118 335.16 386.382 336.714 386.382 339.136C386.382 341.558 388.048 343.126 390.246 343.126C392.458 343.126 394.25 341.558 394.25 339.136ZM388.006 339.136C388.006 337.386 389.084 336.546 390.288 336.546C391.478 336.546 392.612 337.386 392.612 339.136C392.612 340.886 391.436 341.74 390.246 341.74C389.042 341.74 388.006 340.886 388.006 339.136ZM401.301 343H402.883V338.45C402.883 336.294 401.525 335.16 399.719 335.16C398.795 335.16 397.941 335.538 397.423 336.168V335.286H395.827V343H397.423V338.688C397.423 337.274 398.193 336.546 399.369 336.546C400.531 336.546 401.301 337.274 401.301 338.688V343Z" fill="#183B56"/>
<path d="M338.05 373.402C338.05 375.936 339.702 377.098 341.718 377.098C343.734 377.098 345.4 375.936 345.4 373.402V367.242H344.126V373.416C344.126 375.208 343.174 375.978 341.732 375.978C340.29 375.978 339.324 375.208 339.324 373.416V367.242H338.05V373.402ZM353.139 377H354.399V372.478C354.399 370.28 353.041 369.188 351.263 369.188C350.227 369.188 349.303 369.622 348.799 370.42V369.328H347.525V377H348.799V372.758C348.799 371.106 349.695 370.294 350.997 370.294C352.285 370.294 353.139 371.092 353.139 372.66V377ZM356.004 373.15C356.004 375.586 357.558 377.126 359.742 377.126C361.646 377.126 362.892 376.062 363.284 374.536H361.912C361.632 375.502 360.876 376.048 359.742 376.048C358.342 376.048 357.306 375.054 357.306 373.15C357.306 371.274 358.342 370.28 359.742 370.28C360.876 370.28 361.646 370.868 361.912 371.792H363.284C362.892 370.182 361.646 369.202 359.742 369.202C357.558 369.202 356.004 370.742 356.004 373.15ZM372.264 373.15C372.264 370.728 370.57 369.202 368.386 369.202C366.216 369.202 364.508 370.728 364.508 373.15C364.508 375.586 366.16 377.126 368.33 377.126C370.514 377.126 372.264 375.586 372.264 373.15ZM365.81 373.15C365.81 371.218 367.028 370.308 368.372 370.308C369.688 370.308 370.962 371.218 370.962 373.15C370.962 375.096 369.66 376.006 368.33 376.006C367 376.006 365.81 375.096 365.81 373.15ZM385.013 377H386.273V372.478C386.273 370.28 384.915 369.188 383.165 369.188C381.989 369.188 380.897 369.79 380.449 370.896C379.945 369.748 378.895 369.188 377.635 369.188C376.627 369.188 375.717 369.622 375.213 370.434V369.328H373.939V377H375.213V372.772C375.213 371.12 376.095 370.294 377.383 370.294C378.643 370.294 379.483 371.092 379.483 372.66V377H380.743V372.772C380.743 371.12 381.625 370.294 382.913 370.294C384.173 370.294 385.013 371.092 385.013 372.66V377ZM399.437 377H400.697V372.478C400.697 370.28 399.339 369.188 397.589 369.188C396.413 369.188 395.321 369.79 394.873 370.896C394.369 369.748 393.319 369.188 392.059 369.188C391.051 369.188 390.141 369.622 389.637 370.434V369.328H388.363V377H389.637V372.772C389.637 371.12 390.519 370.294 391.807 370.294C393.067 370.294 393.907 371.092 393.907 372.66V377H395.167V372.772C395.167 371.12 396.049 370.294 397.337 370.294C398.597 370.294 399.437 371.092 399.437 372.66V377ZM410.067 373.15C410.067 370.728 408.373 369.202 406.189 369.202C404.019 369.202 402.311 370.728 402.311 373.15C402.311 375.586 403.963 377.126 406.133 377.126C408.317 377.126 410.067 375.586 410.067 373.15ZM403.613 373.15C403.613 371.218 404.831 370.308 406.175 370.308C407.491 370.308 408.765 371.218 408.765 373.15C408.765 375.096 407.463 376.006 406.133 376.006C404.803 376.006 403.613 375.096 403.613 373.15ZM417.356 377H418.616V372.478C418.616 370.28 417.258 369.188 415.48 369.188C414.444 369.188 413.52 369.622 413.016 370.42V369.328H411.742V377H413.016V372.758C413.016 371.106 413.912 370.294 415.214 370.294C416.502 370.294 417.356 371.092 417.356 372.66V377Z" fill="#183B56"/>
<path d="M343.3 404.112C343.3 405.204 342.67 405.988 341.228 405.988H339.352V402.292H341.228C342.684 402.292 343.3 403.006 343.3 404.112ZM338.078 401.242V411H339.352V407.01H340.892L343.216 411H344.742L342.292 406.912C343.93 406.548 344.616 405.358 344.616 404.112C344.616 402.516 343.524 401.242 341.228 401.242H338.078ZM346.12 407.136C346.12 409.516 347.702 411.126 349.746 411.126C351.16 411.126 352.154 410.398 352.616 409.572V411H353.904V403.328H352.616V404.728C352.168 403.93 351.188 403.202 349.76 403.202C347.702 403.202 346.12 404.742 346.12 407.136ZM352.616 407.15C352.616 408.956 351.412 410.006 350.012 410.006C348.612 410.006 347.422 408.942 347.422 407.136C347.422 405.33 348.612 404.308 350.012 404.308C351.412 404.308 352.616 405.372 352.616 407.15ZM357.331 406.828C357.331 405.05 358.255 404.504 359.473 404.504H359.809V403.188C358.591 403.188 357.765 403.72 357.331 404.574V403.328H356.057V411H357.331V406.828ZM364.541 404.28C365.857 404.28 366.977 405.106 366.963 406.604H362.119C362.259 405.106 363.295 404.28 364.541 404.28ZM368.125 408.634H366.753C366.473 409.46 365.745 410.048 364.597 410.048C363.295 410.048 362.203 409.194 362.105 407.64H368.237C368.265 407.374 368.279 407.15 368.279 406.87C368.279 404.77 366.823 403.202 364.597 403.202C362.357 403.202 360.803 404.728 360.803 407.15C360.803 409.586 362.413 411.126 364.597 411.126C366.501 411.126 367.733 410.034 368.125 408.634Z" fill="#183B56"/>
<path d="M344.42 442.34C344.42 438.728 339.156 440.296 339.156 437.776C339.156 436.726 339.982 436.18 341.032 436.208C342.222 436.222 342.838 436.964 342.922 437.622H344.322C344.168 436.138 342.95 435.116 341.088 435.116C339.156 435.116 337.854 436.208 337.854 437.818C337.854 441.444 343.132 439.764 343.132 442.396C343.132 443.32 342.404 444.02 341.172 444.02C339.814 444.02 339.24 443.208 339.156 442.396H337.798C337.826 444.006 339.212 445.098 341.172 445.098C343.286 445.098 344.42 443.726 344.42 442.34ZM353.099 437.328H351.825V441.542C351.825 443.194 350.943 444.006 349.627 444.006C348.339 444.006 347.485 443.208 347.485 441.654V437.328H346.225V441.822C346.225 444.02 347.611 445.112 349.375 445.112C350.397 445.112 351.335 444.664 351.825 443.866V445H353.099V437.328ZM356.524 438.742V437.328H355.25V448.64H356.524V443.586C357 444.37 357.994 445.126 359.394 445.126C361.452 445.126 363.034 443.516 363.034 441.136C363.034 438.742 361.452 437.202 359.394 437.202C357.994 437.202 356.986 437.93 356.524 438.742ZM361.732 441.136C361.732 442.942 360.542 444.006 359.128 444.006C357.742 444.006 356.524 442.956 356.524 441.15C356.524 439.372 357.742 438.308 359.128 438.308C360.542 438.308 361.732 439.33 361.732 441.136ZM367.973 438.28C369.289 438.28 370.409 439.106 370.395 440.604H365.551C365.691 439.106 366.727 438.28 367.973 438.28ZM371.557 442.634H370.185C369.905 443.46 369.177 444.048 368.029 444.048C366.727 444.048 365.635 443.194 365.537 441.64H371.669C371.697 441.374 371.711 441.15 371.711 440.87C371.711 438.77 370.255 437.202 368.029 437.202C365.789 437.202 364.235 438.728 364.235 441.15C364.235 443.586 365.845 445.126 368.029 445.126C369.933 445.126 371.165 444.034 371.557 442.634ZM374.666 440.828C374.666 439.05 375.59 438.504 376.808 438.504H377.144V437.188C375.926 437.188 375.1 437.72 374.666 438.574V437.328H373.392V445H374.666V440.828ZM387.57 438.112C387.57 439.204 386.94 439.988 385.498 439.988H383.622V436.292H385.498C386.954 436.292 387.57 437.006 387.57 438.112ZM382.348 435.242V445H383.622V441.01H385.162L387.486 445H389.012L386.562 440.912C388.2 440.548 388.886 439.358 388.886 438.112C388.886 436.516 387.794 435.242 385.498 435.242H382.348ZM390.389 441.136C390.389 443.516 391.971 445.126 394.015 445.126C395.429 445.126 396.423 444.398 396.885 443.572V445H398.173V437.328H396.885V438.728C396.437 437.93 395.457 437.202 394.029 437.202C391.971 437.202 390.389 438.742 390.389 441.136ZM396.885 441.15C396.885 442.956 395.681 444.006 394.281 444.006C392.881 444.006 391.691 442.942 391.691 441.136C391.691 439.33 392.881 438.308 394.281 438.308C395.681 438.308 396.885 439.372 396.885 441.15ZM401.6 440.828C401.6 439.05 402.524 438.504 403.742 438.504H404.078V437.188C402.86 437.188 402.034 437.72 401.6 438.574V437.328H400.326V445H401.6V440.828ZM408.811 438.28C410.127 438.28 411.247 439.106 411.233 440.604H406.389C406.529 439.106 407.565 438.28 408.811 438.28ZM412.395 442.634H411.023C410.743 443.46 410.015 444.048 408.867 444.048C407.565 444.048 406.473 443.194 406.375 441.64H412.507C412.535 441.374 412.549 441.15 412.549 440.87C412.549 438.77 411.093 437.202 408.867 437.202C406.627 437.202 405.073 438.728 405.073 441.15C405.073 443.586 406.683 445.126 408.867 445.126C410.771 445.126 412.003 444.034 412.395 442.634Z" fill="#183B56"/>
<defs>
<filter id="filter0_d_336_180" x="0" y="0" width="476" height="368" filterUnits="userSpaceOnUse" color-interpolation-filters="sRGB">
<feFlood flood-opacity="0" result="BackgroundImageFix"/>
<feColorMatrix in="SourceAlpha" type="matrix" values="0 0 0 0 0 0 0 0 0 0 0 0 0 0 0 0 0 0 127 0" result="hardAlpha"/>
<feOffset dy="5"/>
<feGaussianBlur stdDeviation="15"/>
<feColorMatrix type="matrix" values="0 0 0 0 0.168627 0 0 0 0 0.529412 0 0 0 0 0.854902 0 0 0 0.2 0"/>
<feBlend mode="normal" in2="BackgroundImageFix" result="effect1_dropShadow_336_180"/>
<feBlend mode="normal" in="SourceGraphic" in2="effect1_dropShadow_336_180" result="shape"/>
</filter>
<filter id="filter1_d_336_180" x="21" y="244" width="96" height="96" filterUnits="userSpaceOnUse" color-interpolation-filters="sRGB">
<feFlood flood-opacity="0" result="BackgroundImageFix"/>
<feColorMatrix in="SourceAlpha" type="matrix" values="0 0 0 0 0 0 0 0 0 0 0 0 0 0 0 0 0 0 127 0" result="hardAlpha"/>
<feOffset dy="5"/>
<feGaussianBlur stdDeviation="15"/>
<feColorMatrix type="matrix" values="0 0 0 0 0.168627 0 0 0 0 0.529412 0 0 0 0 0.854902 0 0 0 0.2 0"/>
<feBlend mode="normal" in2="BackgroundImageFix" result="effect1_dropShadow_336_180"/>
<feBlend mode="normal" in="SourceGraphic" in2="effect1_dropShadow_336_180" result="shape"/>
</filter>
<filter id="filter2_d_336_180" x="268" y="272" width="373" height="232" filterUnits="userSpaceOnUse" color-interpolation-filters="sRGB">
<feFlood flood-opacity="0" result="BackgroundImageFix"/>
<feColorMatrix in="SourceAlpha" type="matrix" values="0 0 0 0 0 0 0 0 0 0 0 0 0 0 0 0 0 0 127 0" result="hardAlpha"/>
<feOffset dy="5"/>
<feGaussianBlur stdDeviation="15"/>
<feColorMatrix type="matrix" values="0 0 0 0 0.168627 0 0 0 0 0.529412 0 0 0 0 0.854902 0 0 0 0.2 0"/>
<feBlend mode="normal" in2="BackgroundImageFix" result="effect1_dropShadow_336_180"/>
<feBlend mode="normal" in="SourceGraphic" in2="effect1_dropShadow_336_180" result="shape"/>
</filter>
</defs>
</svg>
