<svg width="21" height="16" viewBox="0 0 21 16" fill="none" xmlns="http://www.w3.org/2000/svg">
<path d="M17.1214 1.27818C19.35 4.56304 20.4505 8.26828 20.0391 12.5339C20.0374 12.5519 20.028 12.5685 20.0132 12.5794C18.3256 13.8217 16.6905 14.5757 15.0784 15.0757C15.0658 15.0795 15.0524 15.0793 15.04 15.075C15.0275 15.0708 15.0167 15.0628 15.0091 15.0522C14.6366 14.5326 14.2982 13.9849 14.0017 13.4097C13.9847 13.3759 14.0003 13.335 14.0353 13.3217C14.5727 13.1187 15.0838 12.8754 15.5754 12.5873C15.6141 12.5645 15.6166 12.5089 15.5808 12.4822C15.4765 12.4045 15.3731 12.3229 15.2742 12.2413C15.2557 12.2262 15.2308 12.2233 15.2098 12.2334C12.0184 13.7109 8.52228 13.7109 5.29307 12.2334C5.2721 12.224 5.24719 12.2272 5.22918 12.2421C5.13052 12.3237 5.02692 12.4045 4.92358 12.4822C4.88781 12.5089 4.89077 12.5645 4.92974 12.5873C5.42133 12.8699 5.9324 13.1187 6.46912 13.3227C6.5039 13.336 6.52042 13.3759 6.50316 13.4097C6.21309 13.9856 5.87468 14.5334 5.49532 15.0529C5.4788 15.0739 5.45167 15.0836 5.42601 15.0757C3.82152 14.5757 2.18644 13.8217 0.498823 12.5794C0.484764 12.5685 0.474651 12.5512 0.473171 12.5331C0.129334 8.84346 0.830082 5.10755 3.38815 1.27744C3.39431 1.2673 3.40368 1.25938 3.41454 1.25469C4.67322 0.675556 6.02169 0.249493 7.43108 0.00616937C7.45673 0.00221289 7.48238 0.0140823 7.4957 0.0368321C7.66984 0.345932 7.86889 0.742322 8.00356 1.06626C9.48917 0.838761 10.998 0.838761 12.5146 1.06626C12.6493 0.749245 12.8415 0.345932 13.0149 0.0368321C13.021 0.0255462 13.0306 0.0165045 13.0422 0.0109979C13.0538 0.00549137 13.0669 0.00380143 13.0795 0.00616937C14.4896 0.250235 15.8381 0.676298 17.0958 1.25469C17.1069 1.25938 17.116 1.2673 17.1214 1.27818V1.27818ZM8.75882 8.29351C8.77436 7.20276 7.98112 6.30018 6.98537 6.30018C5.99776 6.30018 5.21216 7.19484 5.21216 8.29351C5.21216 9.39192 6.0133 10.2866 6.98537 10.2866C7.97322 10.2866 8.75882 9.39192 8.75882 8.29351V8.29351ZM15.3154 8.29351C15.331 7.20276 14.5377 6.30018 13.5422 6.30018C12.5544 6.30018 11.7688 7.19484 11.7688 8.29351C11.7688 9.39192 12.5699 10.2866 13.5422 10.2866C14.5377 10.2866 15.3154 9.39192 15.3154 8.29351V8.29351Z" fill="#183B56"/>
</svg>
