<svg width="150" height="170" viewBox="0 0 150 170" fill="none" xmlns="http://www.w3.org/2000/svg">
<rect width="150" height="170" rx="8" fill="#EBF0F9"/>
<path d="M55 70C55 68.6739 55.5268 67.4021 56.4645 66.4645C57.4021 65.5268 58.6739 65 60 65H90C91.3261 65 92.5979 65.5268 93.5355 66.4645C94.4732 67.4021 95 68.6739 95 70V95C95 96.3261 94.4732 97.5979 93.5355 98.5355C92.5979 99.4732 91.3261 100 90 100H60C58.6739 100 57.4021 99.4732 56.4645 98.5355C55.5268 97.5979 55 96.3261 55 95V70ZM57.5 92.5V95C57.5 95.663 57.7634 96.2989 58.2322 96.7678C58.7011 97.2366 59.337 97.5 60 97.5H90C90.663 97.5 91.2989 97.2366 91.7678 96.7678C92.2366 96.2989 92.5 95.663 92.5 95V86.25L83.0575 81.3825C82.8231 81.2651 82.5576 81.2243 82.2987 81.266C82.0399 81.3078 81.8007 81.4298 81.615 81.615L72.34 90.89L65.69 86.46C65.4499 86.3001 65.1619 86.2283 64.8748 86.2565C64.5878 86.2848 64.3193 86.4114 64.115 86.615L57.5 92.5ZM70 76.25C70 75.2554 69.6049 74.3016 68.9017 73.5983C68.1984 72.8951 67.2446 72.5 66.25 72.5C65.2554 72.5 64.3016 72.8951 63.5983 73.5983C62.8951 74.3016 62.5 75.2554 62.5 76.25C62.5 77.2446 62.8951 78.1984 63.5983 78.9017C64.3016 79.6049 65.2554 80 66.25 80C67.2446 80 68.1984 79.6049 68.9017 78.9017C69.6049 78.1984 70 77.2446 70 76.25Z" fill="#183B56" fill-opacity="0.2"/>
</svg>
