<svg width="39" height="51" viewBox="0 0 39 51" fill="none" xmlns="http://www.w3.org/2000/svg">
<path d="M33.2917 5.71452C30.1022 2.52362 25.9049 0.537394 21.4151 0.0943018C16.9253 -0.34879 12.4208 0.77867 8.66909 3.28456C4.9174 5.79045 2.1507 9.51971 0.840451 13.8369C-0.469799 18.154 -0.242529 22.792 1.48353 26.9603C3.2096 31.1287 6.32765 34.5696 10.3064 36.6967C14.2851 38.8238 18.8783 39.5054 23.3032 38.6255C27.7282 37.7455 31.7112 35.3585 34.5734 31.871C37.4356 28.3836 39 24.0115 39 19.4999V19.4374C39.003 16.8865 38.5 14.3604 37.5202 12.0052C36.5403 9.65005 35.1031 7.5126 33.2917 5.71661V5.71452ZM6.06875 19.4978C6.06875 10.177 11.8625 2.42911 19.5104 0.772866C27.1583 2.42911 32.9521 10.1916 32.9521 19.4978C32.9521 28.8041 27.1583 36.5666 19.5104 38.2228C11.8542 36.5645 6.06875 28.8166 6.06875 19.4958V19.4978Z" fill="#7C2AE8"/>
<path d="M25.4583 19.4973L25.4604 19.1079C25.4604 12.3877 23.2202 6.19566 19.4532 1.25806L19.5031 1.32541C15.786 6.33036 13.5499 12.6507 13.5499 19.4973C13.5499 26.3438 15.786 32.6642 19.5593 37.7492L19.5031 37.6713C23.3798 32.5786 25.4753 26.3275 25.4604 19.8993L25.4583 19.4762V19.4973ZM25.4147 39.8602H23.8775C23.6689 39.8605 23.4685 39.9424 23.3181 40.0887C23.1677 40.2349 23.079 40.4343 23.0704 40.6452V42.8362H15.915V40.6473C15.9074 40.4359 15.8191 40.2357 15.6685 40.0888C15.518 39.942 15.317 39.86 15.1079 39.8602H15.0809H15.083H13.5354C13.2859 39.8606 13.0464 39.9597 12.8681 40.1362C12.6897 40.3128 12.5866 40.5528 12.5806 40.8052V40.8073L13.2587 49.3776C13.2816 49.9037 13.708 50.3226 14.2322 50.3226H24.7865C25.3065 50.3226 25.7308 49.9016 25.7412 49.3776V49.3755L26.4193 40.8052C26.4139 40.5526 26.3109 40.3123 26.1324 40.1356C25.954 39.959 25.7142 39.8601 25.4646 39.8602L25.4126 39.8623H25.4147V39.8602Z" fill="#7C2AE8"/>
</svg>
