<svg width="76" height="47" viewBox="0 0 76 47" fill="none" xmlns="http://www.w3.org/2000/svg">
<path fill-rule="evenodd" clip-rule="evenodd" d="M0.131872 13.3888C0.133551 13.0036 0.211275 12.6224 0.360586 12.2673C0.509897 11.9122 0.727856 11.59 1.00196 11.3194C1.27606 11.0487 1.60092 10.8348 1.95788 10.6899C2.31485 10.5451 2.6969 10.4721 3.08212 10.4753L32.4602 10.704C34.0827 10.7165 35.4743 12.0387 35.5687 13.6568L35.7585 16.9129L45.5547 1.34765C45.7572 1.02202 46.0231 0.740507 46.3368 0.519902C46.6504 0.299296 47.0052 0.144119 47.3801 0.0636248C47.755 -0.016869 48.1422 -0.0210303 48.5187 0.0513914C48.8953 0.123813 49.2534 0.271334 49.5716 0.485151L74.1709 16.7763C74.8221 17.2073 75.2757 17.8789 75.4323 18.6438C75.5889 19.4088 75.4357 20.2046 75.0062 20.8568L58.9364 45.2761C58.0435 46.6328 56.2021 47.0385 54.8252 46.183L35.7585 34.3361V44.0626C35.7585 45.6851 34.4429 47 32.8237 47H2.9224C2.53729 47.0005 2.15589 46.9248 1.80017 46.7772C1.44446 46.6296 1.12147 46.4131 0.849822 46.1401C0.578172 45.8671 0.363232 45.5431 0.217388 45.1866C0.0715448 44.8302 -0.0023188 44.4484 5.54723e-05 44.0633L0.132239 13.3888H0.131872ZM4.47482 15.8467L4.40542 42.2139L31.623 42.2407L31.6102 31.3062L29.424 29.7938C28.7598 29.3348 28.552 28.3949 28.9625 27.6972L31.7464 22.9695L31.5753 15.7181L4.47482 15.8467ZM48.4466 5.34508L34.3166 27.2985L56.7014 41.3686L70.5116 19.8746L48.4466 5.34508Z" fill="#7C2AE8"/>
<path d="M41.6601 28.8443C43.2824 28.8443 44.5975 27.5292 44.5975 25.9069C44.5975 24.2846 43.2824 22.9695 41.6601 22.9695C40.0378 22.9695 38.7227 24.2846 38.7227 25.9069C38.7227 27.5292 40.0378 28.8443 41.6601 28.8443Z" fill="#7C2AE8"/>
<path d="M51.5738 27.0083C53.1961 27.0083 54.5112 25.6932 54.5112 24.0709C54.5112 22.4487 53.1961 21.1335 51.5738 21.1335C49.9516 21.1335 48.6364 22.4487 48.6364 24.0709C48.6364 25.6932 49.9516 27.0083 51.5738 27.0083Z" fill="#7C2AE8"/>
<path d="M61.8547 25.1727C63.477 25.1727 64.7921 23.8575 64.7921 22.2353C64.7921 20.613 63.477 19.2979 61.8547 19.2979C60.2325 19.2979 58.9173 20.613 58.9173 22.2353C58.9173 23.8575 60.2325 25.1727 61.8547 25.1727Z" fill="#7C2AE8"/>
<path d="M9.3487 24.805C10.971 24.805 12.2861 23.4899 12.2861 21.8676C12.2861 20.2453 10.971 18.9302 9.3487 18.9302C7.72642 18.9302 6.4113 20.2453 6.4113 21.8676C6.4113 23.4899 7.72642 24.805 9.3487 24.805Z" fill="#7C2AE8"/>
<path d="M17.7937 32.5159C19.416 32.5159 20.7311 31.2008 20.7311 29.5785C20.7311 27.9562 19.416 26.6411 17.7937 26.6411C16.1714 26.6411 14.8563 27.9562 14.8563 29.5785C14.8563 31.2008 16.1714 32.5159 17.7937 32.5159Z" fill="#7C2AE8"/>
<path d="M25.8716 24.438C27.4939 24.438 28.809 23.1229 28.809 21.5006C28.809 19.8784 27.4939 18.5632 25.8716 18.5632C24.2493 18.5632 22.9342 19.8784 22.9342 21.5006C22.9342 23.1229 24.2493 24.438 25.8716 24.438Z" fill="#7C2AE8"/>
<path d="M9.71587 39.8597C11.3382 39.8597 12.6533 38.5445 12.6533 36.9223C12.6533 35.3 11.3382 33.9849 9.71587 33.9849C8.09359 33.9849 6.77847 35.3 6.77847 36.9223C6.77847 38.5445 8.09359 39.8597 9.71587 39.8597Z" fill="#7C2AE8"/>
<path d="M25.8716 39.8597C27.4939 39.8597 28.809 38.5445 28.809 36.9223C28.809 35.3 27.4939 33.9849 25.8716 33.9849C24.2493 33.9849 22.9342 35.3 22.9342 36.9223C22.9342 38.5445 24.2493 39.8597 25.8716 39.8597Z" fill="#7C2AE8"/>
</svg>
