<svg width="39" height="51" viewBox="0 0 39 51" fill="none" xmlns="http://www.w3.org/2000/svg">
<path d="M11.1562 22.3125C10.7336 22.3125 10.3282 22.4804 10.0293 22.7793C9.73041 23.0782 9.5625 23.4836 9.5625 23.9062C9.5625 24.3289 9.73041 24.7343 10.0293 25.0332C10.3282 25.3321 10.7336 25.5 11.1562 25.5H27.0938C27.5164 25.5 27.9218 25.3321 28.2207 25.0332C28.5196 24.7343 28.6875 24.3289 28.6875 23.9062C28.6875 23.4836 28.5196 23.0782 28.2207 22.7793C27.9218 22.4804 27.5164 22.3125 27.0938 22.3125H11.1562ZM9.5625 30.2812C9.5625 29.8586 9.73041 29.4532 10.0293 29.1543C10.3282 28.8554 10.7336 28.6875 11.1562 28.6875H27.0938C27.5164 28.6875 27.9218 28.8554 28.2207 29.1543C28.5196 29.4532 28.6875 29.8586 28.6875 30.2812C28.6875 30.7039 28.5196 31.1093 28.2207 31.4082C27.9218 31.7071 27.5164 31.875 27.0938 31.875H11.1562C10.7336 31.875 10.3282 31.7071 10.0293 31.4082C9.73041 31.1093 9.5625 30.7039 9.5625 30.2812ZM9.5625 36.6562C9.5625 36.2336 9.73041 35.8282 10.0293 35.5293C10.3282 35.2304 10.7336 35.0625 11.1562 35.0625H17.5312C17.9539 35.0625 18.3593 35.2304 18.6582 35.5293C18.9571 35.8282 19.125 36.2336 19.125 36.6562C19.125 37.0789 18.9571 37.4843 18.6582 37.7832C18.3593 38.0821 17.9539 38.25 17.5312 38.25H11.1562C10.7336 38.25 10.3282 38.0821 10.0293 37.7832C9.73041 37.4843 9.5625 37.0789 9.5625 36.6562Z" fill="#7C2AE8"/>
<path d="M23.9062 0H6.375C4.68424 0 3.06274 0.67165 1.86719 1.86719C0.67165 3.06274 0 4.68424 0 6.375V44.625C0 46.3158 0.67165 47.9373 1.86719 49.1328C3.06274 50.3284 4.68424 51 6.375 51H31.875C33.5658 51 35.1873 50.3284 36.3828 49.1328C37.5784 47.9373 38.25 46.3158 38.25 44.625V14.3438L23.9062 0ZM23.9062 3.1875V9.5625C23.9062 10.8306 24.41 12.0467 25.3066 12.9434C26.2033 13.84 27.4194 14.3438 28.6875 14.3438H35.0625V44.625C35.0625 45.4704 34.7267 46.2811 34.1289 46.8789C33.5311 47.4767 32.7204 47.8125 31.875 47.8125H6.375C5.52962 47.8125 4.71887 47.4767 4.1211 46.8789C3.52332 46.2811 3.1875 45.4704 3.1875 44.625V6.375C3.1875 5.52962 3.52332 4.71887 4.1211 4.1211C4.71887 3.52332 5.52962 3.1875 6.375 3.1875H23.9062Z" fill="#7C2AE8"/>
</svg>
