<svg width="58" height="40" viewBox="0 0 58 40" fill="none" xmlns="http://www.w3.org/2000/svg">
<path d="M8.71813 15.0089C8.70634 14.7679 8.7 14.5268 8.7 14.2857C8.7 6.39286 15.1888 0 23.2 0C28.5741 0 33.2594 2.87946 35.7697 7.16071C37.1472 6.16964 38.8147 5.71429 40.6 5.71429C45.4031 5.71429 49.3 9.47321 49.3 14.2857C49.3 15.375 49.0916 16.4107 48.72 17.375C54.0125 18.4286 58 23.0446 58 28.5714C58 34.8839 52.8072 40 46.4 40H13.05C5.84259 40 0 34.2411 0 27.1429C0 21.5357 3.64041 16.7679 8.71813 15.0089Z" fill="#7C2AE8"/>
</svg>
