<svg width="58" height="58" viewBox="0 0 58 58" fill="none" xmlns="http://www.w3.org/2000/svg">
<path d="M2.34943e-05 29C2.34943e-05 12.9833 12.9833 0 29 0C45.0167 0 58 12.9833 58 29C58 45.0167 45.0167 58 29 58H2.34943e-05L8.49412 49.5059C5.79723 46.816 3.65848 43.6197 2.20078 40.1006C0.743079 36.5815 -0.00483239 32.809 2.34943e-05 29ZM14.0012 52.2H29C33.5885 52.2 38.074 50.8393 41.8892 48.2901C45.7045 45.7408 48.6781 42.1175 50.434 37.8783C52.19 33.639 52.6494 28.9743 51.7542 24.4739C50.859 19.9735 48.6495 15.8397 45.4049 12.5951C42.1603 9.35054 38.0265 7.14096 33.5261 6.24578C29.0257 5.35061 24.361 5.81004 20.1218 7.566C15.8825 9.32195 12.2592 12.2956 9.70993 16.1108C7.16068 19.926 5.80002 24.4115 5.80002 29C5.80002 35.2408 8.26792 41.0785 12.5947 45.4053L16.6953 49.5059L14.0012 52.2ZM17.4 31.9H40.6C40.6 34.9765 39.3779 37.927 37.2024 40.1024C35.027 42.2779 32.0765 43.5 29 43.5C25.9235 43.5 22.973 42.2779 20.7976 40.1024C18.6222 37.927 17.4 34.9765 17.4 31.9Z" fill="#7C2AE8"/>
</svg>
