<svg width="71" height="32" viewBox="0 0 71 32" fill="none" xmlns="http://www.w3.org/2000/svg">
<path d="M16.0297 32C13.1606 31.9994 10.3442 31.2305 7.87438 29.7735C5.40453 28.3166 3.3717 26.2249 1.98795 23.7167C0.604199 21.2085 -0.0797663 18.3758 0.0074032 15.5139C0.0945726 12.652 0.949683 9.86593 2.48353 7.44625C4.01737 5.02657 6.17376 3.06197 8.72772 1.75738C11.2817 0.452798 14.1397 -0.143967 17.0035 0.0293426C19.8673 0.202652 22.6321 1.13969 25.0094 2.74269C27.3867 4.3457 29.2893 6.55595 30.519 9.14286H64.1287L71 16L64.1287 22.8571L59.5479 18.2857L54.967 22.8571L50.3861 18.2857L45.8053 22.8571L41.2244 18.2857L36.6436 22.8571H30.519C29.2184 25.5933 27.1665 27.9049 24.6016 29.5233C22.0367 31.1418 19.0643 32.0006 16.0297 32ZM11.4488 20.5714C12.6638 20.5714 13.8289 20.0898 14.688 19.2325C15.5471 18.3752 16.0297 17.2124 16.0297 16C16.0297 14.7876 15.5471 13.6248 14.688 12.7675C13.8289 11.9102 12.6638 11.4286 11.4488 11.4286C10.2339 11.4286 9.06876 11.9102 8.20968 12.7675C7.35061 13.6248 6.86798 14.7876 6.86798 16C6.86798 17.2124 7.35061 18.3752 8.20968 19.2325C9.06876 20.0898 10.2339 20.5714 11.4488 20.5714Z" fill="#7C2AE8"/>
</svg>
