<svg width="44" height="50" viewBox="0 0 44 50" fill="none" xmlns="http://www.w3.org/2000/svg">
<path d="M13.75 5.56085C13.0207 5.56085 12.3212 5.85343 11.8055 6.37422C11.2897 6.89501 11 7.60136 11 8.33787C11 9.07438 11.2897 9.78073 11.8055 10.3015C12.3212 10.8223 13.0207 11.1149 13.75 11.1149C14.4793 11.1149 15.1788 10.8223 15.6945 10.3015C16.2103 9.78073 16.5 9.07438 16.5 8.33787C16.5 7.60136 16.2103 6.89501 15.6945 6.37422C15.1788 5.85343 14.4793 5.56085 13.75 5.56085ZM5.9675 5.56085C6.53566 3.93481 7.58928 2.52677 8.98315 1.53081C10.377 0.534843 12.0425 0 13.75 0C15.4575 0 17.123 0.534843 18.5169 1.53081C19.9107 2.52677 20.9643 3.93481 21.5325 5.56085H41.25C41.9793 5.56085 42.6788 5.85343 43.1945 6.37422C43.7103 6.89501 44 7.60136 44 8.33787C44 9.07438 43.7103 9.78073 43.1945 10.3015C42.6788 10.8223 41.9793 11.1149 41.25 11.1149H21.5325C20.9643 12.7409 19.9107 14.149 18.5169 15.1449C17.123 16.1409 15.4575 16.6757 13.75 16.6757C12.0425 16.6757 10.377 16.1409 8.98315 15.1449C7.58928 14.149 6.53566 12.7409 5.9675 11.1149H2.75C2.02065 11.1149 1.32118 10.8223 0.805457 10.3015C0.289732 9.78073 0 9.07438 0 8.33787C0 7.60136 0.289732 6.89501 0.805457 6.37422C1.32118 5.85343 2.02065 5.56085 2.75 5.56085H5.9675ZM30.25 22.223C29.5207 22.223 28.8212 22.5156 28.3055 23.0363C27.7897 23.5571 27.5 24.2635 27.5 25C27.5 25.7365 27.7897 26.4429 28.3055 26.9636C28.8212 27.4844 29.5207 27.777 30.25 27.777C30.9793 27.777 31.6788 27.4844 32.1945 26.9636C32.7103 26.4429 33 25.7365 33 25C33 24.2635 32.7103 23.5571 32.1945 23.0363C31.6788 22.5156 30.9793 22.223 30.25 22.223ZM22.4675 22.223C23.0357 20.5969 24.0893 19.1889 25.4831 18.1929C26.877 17.197 28.5425 16.6621 30.25 16.6621C31.9575 16.6621 33.623 17.197 35.0168 18.1929C36.4107 19.1889 37.4643 20.5969 38.0325 22.223H41.25C41.9793 22.223 42.6788 22.5156 43.1945 23.0363C43.7103 23.5571 44 24.2635 44 25C44 25.7365 43.7103 26.4429 43.1945 26.9636C42.6788 27.4844 41.9793 27.777 41.25 27.777H38.0325C37.4643 29.4031 36.4107 30.8111 35.0168 31.8071C33.623 32.803 31.9575 33.3379 30.25 33.3379C28.5425 33.3379 26.877 32.803 25.4831 31.8071C24.0893 30.8111 23.0357 29.4031 22.4675 27.777H2.75C2.02065 27.777 1.32118 27.4844 0.805457 26.9636C0.289732 26.4429 0 25.7365 0 25C0 24.2635 0.289732 23.5571 0.805457 23.0363C1.32118 22.5156 2.02065 22.223 2.75 22.223H22.4675ZM13.75 38.8851C13.0207 38.8851 12.3212 39.1777 11.8055 39.6985C11.2897 40.2193 11 40.9256 11 41.6621C11 42.3986 11.2897 43.105 11.8055 43.6258C12.3212 44.1466 13.0207 44.4391 13.75 44.4391C14.4793 44.4391 15.1788 44.1466 15.6945 43.6258C16.2103 43.105 16.5 42.3986 16.5 41.6621C16.5 40.9256 16.2103 40.2193 15.6945 39.6985C15.1788 39.1777 14.4793 38.8851 13.75 38.8851ZM5.9675 38.8851C6.53566 37.2591 7.58928 35.851 8.98315 34.8551C10.377 33.8591 12.0425 33.3243 13.75 33.3243C15.4575 33.3243 17.123 33.8591 18.5169 34.8551C19.9107 35.851 20.9643 37.2591 21.5325 38.8851H41.25C41.9793 38.8851 42.6788 39.1777 43.1945 39.6985C43.7103 40.2193 44 40.9256 44 41.6621C44 42.3986 43.7103 43.105 43.1945 43.6258C42.6788 44.1466 41.9793 44.4391 41.25 44.4391H21.5325C20.9643 46.0652 19.9107 47.4732 18.5169 48.4692C17.123 49.4652 15.4575 50 13.75 50C12.0425 50 10.377 49.4652 8.98315 48.4692C7.58928 47.4732 6.53566 46.0652 5.9675 44.4391H2.75C2.02065 44.4391 1.32118 44.1466 0.805457 43.6258C0.289732 43.105 0 42.3986 0 41.6621C0 40.9256 0.289732 40.2193 0.805457 39.6985C1.32118 39.1777 2.02065 38.8851 2.75 38.8851H5.9675Z" fill="#7C2AE8"/>
</svg>
