<svg width="688" height="346" viewBox="0 0 688 346" fill="none" xmlns="http://www.w3.org/2000/svg">
<path d="M367 156C364.2 156 250.5 156 194 156" stroke="#7C2AE8" stroke-dasharray="2 2"/>
<path d="M359 221C359 218.54 359 118.642 359 69" stroke="#7C2AE8" stroke-dasharray="2 2"/>
<path d="M442 250C442 247.54 442 147.642 442 98" stroke="#7C2AE8" stroke-dasharray="2 2"/>
<path d="M528 235C528 232.54 528 132.642 528 83" stroke="#7C2AE8" stroke-dasharray="2 2"/>
<path d="M615 235C615 232.54 615 132.642 615 83" stroke="#7C2AE8" stroke-dasharray="2 2"/>
<g filter="url(#filter0_d_336_183)">
<rect x="583" y="122" width="73" height="77" rx="16" fill="white"/>
</g>
<g filter="url(#filter1_d_336_183)">
<rect x="322" y="118" width="73" height="77" rx="16" fill="white"/>
</g>
<g filter="url(#filter2_d_336_183)">
<rect x="405" y="144" width="73" height="77" rx="16" fill="white"/>
</g>
<g filter="url(#filter3_d_336_183)">
<rect x="490" y="118" width="73" height="77" rx="16" fill="white"/>
</g>
<g filter="url(#filter4_d_336_183)">
<rect x="494" y="205" width="73" height="77" rx="16" fill="white"/>
</g>
<g filter="url(#filter5_d_336_183)">
<rect x="491" y="25" width="73" height="77" rx="16" fill="white"/>
</g>
<g filter="url(#filter6_d_336_183)">
<rect x="585" y="215" width="73" height="77" rx="16" fill="white"/>
</g>
<g filter="url(#filter7_d_336_183)">
<rect x="405" y="234" width="73" height="77" rx="16" fill="white"/>
</g>
<g filter="url(#filter8_d_336_183)">
<rect x="402" y="54" width="73" height="77" rx="16" fill="white"/>
</g>
<g filter="url(#filter9_d_336_183)">
<rect x="322" y="205" width="73" height="77" rx="16" fill="white"/>
</g>
<g filter="url(#filter10_d_336_183)">
<rect x="580" y="29" width="73" height="77" rx="16" fill="white"/>
</g>
<g filter="url(#filter11_d_336_183)">
<rect x="319" y="25" width="73" height="77" rx="16" fill="white"/>
</g>
<path d="M549.523 239.781H546.756V242.909H549.523V239.781Z" fill="#EDAAAA"/>
<path d="M520.111 251.75H515.901V255.599H520.111V251.75Z" fill="#D3EBF2"/>
<path d="M555.537 249.104H515.781V252.231H555.537V249.104Z" fill="#D98636"/>
<path d="M537.133 251.87H525.044V255.178H537.133V251.87Z" fill="#D98636"/>
<path d="M534.305 254.697H528.11V258.005H534.305V254.697Z" fill="#D98636"/>
<path d="M555.477 251.93H543.388V255.239H555.477V251.93Z" fill="#D98636"/>
<path d="M552.65 255.238H546.455V258.546H552.65V255.238Z" fill="#D98636"/>
<path d="M522.036 243.209H518.849V252.171H522.036V243.209Z" fill="#D98636"/>
<path d="M516.022 252.111H512.834V255.419H516.022V252.111Z" fill="#D98636"/>
<path d="M519.03 255.359H515.842V261.193H519.03V255.359Z" fill="#D98636"/>
<path d="M519.089 240.082H507V243.209H519.089V240.082Z" fill="#EDAAAA"/>
<path d="M518.909 243.089H512.954V246.217H518.909V243.089Z" fill="#EDAAAA"/>
<path d="M518.909 246.036H512.954V249.164H518.909V246.036Z" fill="#EDAAAA"/>
<path d="M524.382 233.947H521.615V237.075H524.382V233.947Z" fill="#EDAAAA"/>
<path d="M521.796 237.015H519.029V240.142H521.796V237.015Z" fill="#EDAAAA"/>
<path d="M515.781 249.044H512.533V252.171H515.781V249.044Z" fill="#EDAAAA"/>
<path d="M546.937 242.307H537.313V245.435H546.937V242.307Z" fill="#EDAAAA"/>
<path d="M537.433 240.082H519.089V243.209H537.433V240.082Z" fill="#EDAAAA"/>
<path d="M552.409 234.007H549.222V239.781H552.409V234.007Z" fill="#EDAAAA"/>
<path d="M513.147 242.626H509.707V252.231H513.147V242.626Z" fill="#EDAAAA"/>
<path d="M549.282 233.947H521.615V242.788H549.282V233.947Z" fill="#EDAAAA"/>
<path d="M549.282 231H524.262V234.128H549.282V231Z" fill="#EDAAAA"/>
<path d="M542.365 257.885H539.357V266.064H542.365V257.885Z" fill="#131212"/>
<path d="M375.523 145.781H372.756V148.909H375.523V145.781Z" fill="#1D1D1B"/>
<path d="M346.111 157.75H341.901V161.599H346.111V157.75Z" fill="#1D1D1B"/>
<path d="M381.537 155.104H341.781V158.231H381.537V155.104Z" fill="#1D1D1B"/>
<path d="M363.133 157.87H351.044V161.178H363.133V157.87Z" fill="#1D1D1B"/>
<path d="M360.305 160.697H354.11V164.005H360.305V160.697Z" fill="#1D1D1B"/>
<path d="M381.477 157.93H369.388V161.239H381.477V157.93Z" fill="#1D1D1B"/>
<path d="M378.65 161.238H372.455V164.546H378.65V161.238Z" fill="#1D1D1B"/>
<path d="M348.036 149.209H344.849V158.171H348.036V149.209Z" fill="#1D1D1B"/>
<path d="M342.022 158.111H338.834V161.419H342.022V158.111Z" fill="#1D1D1B"/>
<path d="M345.03 161.359H341.842V167.193H345.03V161.359Z" fill="#1D1D1B"/>
<path d="M345.089 146.082H333V149.209H345.089V146.082Z" fill="#1D1D1B"/>
<path d="M344.909 149.089H338.954V152.217H344.909V149.089Z" fill="#1D1D1B"/>
<path d="M344.909 152.036H338.954V155.164H344.909V152.036Z" fill="#1D1D1B"/>
<path d="M350.382 139.947H347.615V143.075H350.382V139.947Z" fill="#1D1D1B"/>
<path d="M347.796 143.015H345.029V146.142H347.796V143.015Z" fill="#1D1D1B"/>
<path d="M341.781 155.044H338.533V158.171H341.781V155.044Z" fill="#1D1D1B"/>
<path d="M372.937 148.307H363.313V151.435H372.937V148.307Z" fill="#1D1D1B"/>
<path d="M363.433 146.082H345.089V149.209H363.433V146.082Z" fill="#1D1D1B"/>
<path d="M378.409 140.007H375.222V145.781H378.409V140.007Z" fill="#1D1D1B"/>
<path d="M339.147 148.626H335.707V158.231H339.147V148.626Z" fill="#1D1D1B"/>
<path d="M375.282 139.947H347.615V148.788H375.282V139.947Z" fill="#1D1D1B"/>
<path d="M375.282 137H350.262V140.128H375.282V137Z" fill="#1D1D1B"/>
<path d="M368.365 163.885H365.357V172.064H368.365V163.885Z" fill="#1D1D1B"/>
<path d="M621.713 264.047H608.469V277.543H621.713V264.047Z" fill="#D3EBF2"/>
<path d="M608.215 240.082H603.801V244.118H608.215V240.082Z" fill="#D3EBF2"/>
<path d="M645.363 237.307H603.676V240.586H645.363V237.307Z" fill="#1D1D1B"/>
<path d="M626.064 240.208H613.388V243.677H626.064V240.208Z" fill="#1D1D1B"/>
<path d="M645.299 240.271H632.623V243.74H645.299V240.271Z" fill="#1D1D1B"/>
<path d="M603.928 240.46H600.585V243.929H603.928V240.46Z" fill="#1D1D1B"/>
<path d="M639.119 265.939H635.776V269.408H639.119V265.939Z" fill="#1D1D1B"/>
<path d="M623.099 272.057H619.757V277.67H623.099V272.057Z" fill="#1D1D1B"/>
<path d="M636.091 269.345H619.883V272.813H636.091V269.345Z" fill="#1D1D1B"/>
<path d="M635.965 259.443H619.757V262.912H635.965V259.443Z" fill="#1D1D1B"/>
<path d="M607.081 243.866H603.738V249.983H607.081V243.866Z" fill="#1D1D1B"/>
<path d="M610.297 246.956H606.954V277.543H610.297V246.956Z" fill="#1D1D1B"/>
<path d="M606.955 231H600.711V234.28H606.955V231Z" fill="#D98636"/>
<path d="M606.955 234.09H600.711V237.37H606.955V234.09Z" fill="#D98636"/>
<path d="M603.675 237.244H600.27V240.523H603.675V237.244Z" fill="#D98636"/>
<path d="M631.551 246.514H628.397V255.092H631.551V246.514Z" fill="#7EAEB2"/>
<path d="M460.36 89.7802H457.278V93.2635H460.36V89.7802Z" fill="#293289"/>
<path d="M426.464 90.1149H413V93.5983H426.464V90.1149Z" fill="#293289"/>
<path d="M426.264 93.4643H419.632V96.9477H426.264V93.4643Z" fill="#293289"/>
<path d="M426.264 96.7467H419.632V100.23H426.264V96.7467Z" fill="#293289"/>
<path d="M432.359 83.2824H429.277V86.7658H432.359V83.2824Z" fill="#293289"/>
<path d="M429.479 86.6987H426.397V90.1821H429.479V86.6987Z" fill="#293289"/>
<path d="M422.78 100.096H419.163V103.579H422.78V100.096Z" fill="#293289"/>
<path d="M457.48 92.5936H446.762V96.077H457.48V92.5936Z" fill="#293289"/>
<path d="M446.895 90.1149H426.464V93.5983H446.895V90.1149Z" fill="#293289"/>
<path d="M463.575 83.3494H460.024V89.7801H463.575V83.3494Z" fill="#293289"/>
<path d="M419.845 92.9484H416.015V103.646H419.845V92.9484Z" fill="#293289"/>
<path d="M460.091 83.2824H429.277V93.1294H460.091V83.2824Z" fill="#293289"/>
<path d="M460.092 80H432.226V83.4834H460.092V80Z" fill="#293289"/>
<path d="M380.36 240.78H377.278V244.264H380.36V240.78Z" fill="#2E6989"/>
<path d="M346.464 241.115H333V244.598H346.464V241.115Z" fill="#2E6989"/>
<path d="M346.264 244.464H339.632V247.948H346.264V244.464Z" fill="#2E6989"/>
<path d="M346.264 247.747H339.632V251.23H346.264V247.747Z" fill="#2E6989"/>
<path d="M352.359 234.282H349.277V237.766H352.359V234.282Z" fill="#2E6989"/>
<path d="M349.479 237.699H346.397V241.182H349.479V237.699Z" fill="#2E6989"/>
<path d="M342.78 251.096H339.163V254.579H342.78V251.096Z" fill="#2E6989"/>
<path d="M377.48 243.594H366.762V247.077H377.48V243.594Z" fill="#2E6989"/>
<path d="M366.895 241.115H346.464V244.598H366.895V241.115Z" fill="#2E6989"/>
<path d="M383.575 234.349H380.024V240.78H383.575V234.349Z" fill="#2E6989"/>
<path d="M339.845 243.948H336.015V254.646H339.845V243.948Z" fill="#2E6989"/>
<path d="M380.091 234.282H349.277V244.129H380.091V234.282Z" fill="#2E6989"/>
<path d="M380.092 231H352.226V234.483H380.092V231Z" fill="#2E6989"/>
<path d="M550.311 61H509V64.2499H550.311V61Z" fill="#E65700"/>
<path d="M531.187 63.8749H518.625V67.3123H531.187V63.8749Z" fill="#E65700"/>
<path d="M528.25 66.8122H521.812V70.2497H528.25V66.8122Z" fill="#E65700"/>
<path d="M550.249 63.9374H537.687V67.3749H550.249V63.9374Z" fill="#E65700"/>
<path d="M547.311 67.3747H540.874V70.8122H547.311V67.3747Z" fill="#E65700"/>
<path d="M644.311 154H594V157.958H644.311V154Z" fill="#1D1D1B"/>
<path d="M621.021 157.501H605.722V161.688H621.021V157.501Z" fill="#1D1D1B"/>
<path d="M617.443 161.078H609.604V165.265H617.443V161.078Z" fill="#1D1D1B"/>
<path d="M644.234 157.577H628.936V161.764H644.234V157.577Z" fill="#1D1D1B"/>
<path d="M640.657 161.763H632.817V165.95H640.657V161.763Z" fill="#1D1D1B"/>
<path d="M515.881 140H504V146.344H515.881V140Z" fill="#1D1D1B"/>
<path d="M551.061 141.038H539.181V147.382H551.061V141.038Z" fill="#1D1D1B"/>
<path d="M539.412 169.76H509.768V176.104H539.412V169.76Z" fill="#1D1D1B"/>
<path d="M531.337 146.114H525.569V161.801H531.337V146.114Z" fill="#7EAEB2"/>
<circle cx="443.5" cy="284.5" r="5.5" fill="#E65700"/>
<path d="M430.881 266H419V272.344H430.881V266Z" fill="#1D1D1B"/>
<path d="M466.061 266H454.181V272.344H466.061V266Z" fill="#1D1D1B"/>
<path d="M457.461 169.801H454.373V173.292H457.461V169.801Z" fill="#AF8C5C"/>
<path d="M424.635 183.16H419.936V187.456H424.635V183.16Z" fill="#D3EBF2"/>
<path d="M443.633 183.294H430.14V186.987H443.633V183.294Z" fill="#F4BFD8"/>
<path d="M440.478 186.449H433.563V190.142H440.478V186.449Z" fill="#F4BFD8"/>
<path d="M464.107 183.362H450.614V187.054H464.107V183.362Z" fill="#F4BFD8"/>
<path d="M460.952 187.054H454.038V190.746H460.952V187.054Z" fill="#F4BFD8"/>
<path d="M426.783 173.628H423.225V183.63H426.783V173.628Z" fill="#F4BFD8"/>
<path d="M420.07 183.563H416.512V187.255H420.07V183.563Z" fill="#1D1D1B"/>
<path d="M454.173 203.769H436.92V207.461H454.173V203.769Z" fill="#F4BFD8"/>
<path d="M423.426 187.188H419.868V193.7H423.426V187.188Z" fill="#1D1D1B"/>
<path d="M423.493 170.137H410V173.627H423.493V170.137Z" fill="#AF8C5C"/>
<path d="M423.292 173.493H416.646V176.984H423.292V173.493Z" fill="#AF8C5C"/>
<path d="M423.292 176.783H416.646V180.273H423.292V176.783Z" fill="#AF8C5C"/>
<path d="M429.401 163.289H426.312V166.78H429.401V163.289Z" fill="#AF8C5C"/>
<path d="M426.514 166.713H423.426V170.204H426.514V166.713Z" fill="#AF8C5C"/>
<path d="M419.801 180.139H416.176V183.63H419.801V180.139Z" fill="#AF8C5C"/>
<path d="M454.575 172.621H443.834V176.112H454.575V172.621Z" fill="#AF8C5C"/>
<path d="M443.968 170.137H423.493V173.627H443.968V170.137Z" fill="#AF8C5C"/>
<path d="M460.684 163.357H457.126V169.801H460.684V163.357Z" fill="#AF8C5C"/>
<path d="M416.86 172.976H413.021V183.697H416.86V172.976Z" fill="#AF8C5C"/>
<path d="M457.193 163.289H426.312V173.158H457.193V163.289Z" fill="#AF8C5C"/>
<path d="M457.193 160H429.267V163.491H457.193V160Z" fill="#AF8C5C"/>
<path d="M449.473 190.007H446.116V199.137H449.473V190.007Z" fill="#7EAEB2"/>
<path d="M629.462 55.3231H627.154V57.9313H629.462V55.3231Z" fill="#FF00CF"/>
<path d="M604.935 65.3044H601.424V68.5144H604.935V65.3044Z" fill="#D3EBF2"/>
<path d="M634.477 63.0975H601.323V65.7057H634.477V63.0975Z" fill="#87D000"/>
<path d="M619.129 65.4047H609.047V68.1634H619.129V65.4047Z" fill="#87D000"/>
<path d="M616.772 67.762H611.605V70.5207H616.772V67.762Z" fill="#87D000"/>
<path d="M634.426 65.4549H624.345V68.2136H634.426V65.4549Z" fill="#87D000"/>
<path d="M632.069 68.2134H626.903V70.9721H632.069V68.2134Z" fill="#87D000"/>
<path d="M606.539 58.1819H603.881V65.6554H606.539V58.1819Z" fill="#87D000"/>
<path d="M601.524 65.6053H598.865V68.3641H601.524V65.6053Z" fill="#1D1D1B"/>
<path d="M627.004 80.7026H614.113V83.4613H627.004V80.7026Z" fill="#87D000"/>
<path d="M604.031 68.3138H601.373V73.1791H604.031V68.3138Z" fill="#1D1D1B"/>
<path d="M604.082 55.5737H594V58.182H604.082V55.5737Z" fill="#FF00CF"/>
<path d="M603.931 58.0817H598.966V60.6899H603.931V58.0817Z" fill="#FF00CF"/>
<path d="M603.931 60.5394H598.966V63.1476H603.931V60.5394Z" fill="#FF00CF"/>
<path d="M608.496 50.4578H606.188V53.066H608.496V50.4578Z" fill="#FF00CF"/>
<path d="M606.339 53.0158H604.031V55.624H606.339V53.0158Z" fill="#FF00CF"/>
<path d="M601.323 63.0473H598.614V65.6555H601.323V63.0473Z" fill="#FF00CF"/>
<path d="M627.304 57.4297H619.279V60.0379H627.304V57.4297Z" fill="#FF00CF"/>
<path d="M619.379 55.5737H604.081V58.182H619.379V55.5737Z" fill="#FF00CF"/>
<path d="M631.869 50.5079H629.211V55.323H631.869V50.5079Z" fill="#FF00CF"/>
<path d="M599.125 57.6953H596.257V65.7056H599.125V57.6953Z" fill="#FF00CF"/>
<path d="M629.261 50.4578H606.188V57.8309H629.261V50.4578Z" fill="#FF00CF"/>
<path d="M629.261 48H608.396V50.6082H629.261V48Z" fill="#FF00CF"/>
<path d="M623.492 70.4203H620.984V77.2418H623.492V70.4203Z" fill="#7EAEB2"/>
<path d="M368.462 54.3231H366.154V56.9313H368.462V54.3231Z" fill="#60E9FD"/>
<path d="M343.935 64.3044H340.424V67.5144H343.935V64.3044Z" fill="#D3EBF2"/>
<path d="M373.477 62.0975H340.323V64.7057H373.477V62.0975Z" fill="#1D1D1B"/>
<path d="M358.129 64.4047H348.047V67.1634H358.129V64.4047Z" fill="#1D1D1B"/>
<path d="M355.772 66.762H350.605V69.5207H355.772V66.762Z" fill="#1D1D1B"/>
<path d="M373.426 64.4549H363.345V67.2136H373.426V64.4549Z" fill="#1D1D1B"/>
<path d="M371.069 67.2134H365.903V69.9721H371.069V67.2134Z" fill="#1D1D1B"/>
<path d="M345.539 57.1819H342.881V64.6554H345.539V57.1819Z" fill="#1D1D1B"/>
<path d="M340.524 64.6053H337.865V67.3641H340.524V64.6053Z" fill="#1D1D1B"/>
<path d="M366.004 79.7026H353.113V82.4613H366.004V79.7026Z" fill="#1D1D1B"/>
<path d="M343.031 67.3138H340.373V72.1791H343.031V67.3138Z" fill="#1D1D1B"/>
<path d="M343.082 54.5737H333V57.182H343.082V54.5737Z" fill="#60E9FD"/>
<path d="M342.931 57.0817H337.966V59.6899H342.931V57.0817Z" fill="#60E9FD"/>
<path d="M342.931 59.5394H337.966V62.1476H342.931V59.5394Z" fill="#60E9FD"/>
<path d="M347.496 49.4578H345.188V52.066H347.496V49.4578Z" fill="#60E9FD"/>
<path d="M345.339 52.0158H343.031V54.624H345.339V52.0158Z" fill="#60E9FD"/>
<path d="M340.323 62.0473H337.614V64.6555H340.323V62.0473Z" fill="#60E9FD"/>
<path d="M366.304 56.4297H358.279V59.0379H366.304V56.4297Z" fill="#60E9FD"/>
<path d="M358.379 54.5737H343.081V57.182H358.379V54.5737Z" fill="#60E9FD"/>
<path d="M370.869 49.5079H368.211V54.323H370.869V49.5079Z" fill="#60E9FD"/>
<path d="M338.125 56.6953H335.257V64.7056H338.125V56.6953Z" fill="#60E9FD"/>
<path d="M368.261 49.4578H345.188V56.8309H368.261V49.4578Z" fill="#60E9FD"/>
<path d="M368.261 47H347.396V49.6082H368.261V47Z" fill="#60E9FD"/>
<path d="M362.492 69.4203H359.984V76.2418H362.492V69.4203Z" fill="#7EAEB2"/>
<g filter="url(#filter12_d_336_183)">
<rect x="30" y="61" width="185" height="196" rx="16" fill="white"/>
</g>
<path d="M167.482 108.576H160.684V116.261H167.482V108.576Z" fill="#293289"/>
<path d="M175.017 127.049H167.185V198.722H175.017V127.049Z" fill="#1D1D1B"/>
<path d="M167.628 114.34H92.8516V206.702H167.628V114.34Z" fill="#D3EBF2"/>
<path d="M126.842 194.141H95.8076V225.766H126.842V194.141Z" fill="#D3EBF2"/>
<path d="M95.2166 137.984H84.8721V147.442H95.2166V137.984Z" fill="#D3EBF2"/>
<path d="M182.259 131.482H84.5762V139.167H182.259V131.482Z" fill="#1D1D1B"/>
<path d="M137.038 138.28H107.334V146.408H137.038V138.28Z" fill="#1D1D1B"/>
<path d="M130.092 145.225H114.871V153.353H130.092V145.225Z" fill="#1D1D1B"/>
<path d="M182.11 138.428H152.406V146.556H182.11V138.428Z" fill="#1D1D1B"/>
<path d="M175.165 146.555H159.943V154.684H175.165V146.555Z" fill="#1D1D1B"/>
<path d="M99.9448 116.999H92.1123V139.019H99.9448V116.999Z" fill="#1D1D1B"/>
<path d="M85.1675 138.871H77.335V146.999H85.1675V138.871Z" fill="#1D1D1B"/>
<path d="M167.628 198.574H159.796V206.702H167.628V198.574Z" fill="#1D1D1B"/>
<path d="M130.092 212.909H122.26V226.061H130.092V212.909Z" fill="#1D1D1B"/>
<path d="M160.535 206.554H122.556V214.682H160.535V206.554Z" fill="#1D1D1B"/>
<path d="M160.239 183.353H122.26V191.481H160.239V183.353Z" fill="#1D1D1B"/>
<path d="M92.5561 146.851H84.7236V161.186H92.5561V146.851Z" fill="#1D1D1B"/>
<path d="M100.093 154.092H92.2607V225.766H100.093V154.092Z" fill="#1D1D1B"/>
<path d="M175.165 108.724H167.333V198.574H175.165V108.724Z" fill="#1D1D1B"/>
<path d="M92.7038 109.315H63V116.999H92.7038V109.315Z" fill="#293289"/>
<path d="M92.2603 116.704H77.6299V124.388H92.2603V116.704Z" fill="#293289"/>
<path d="M92.2603 123.945H77.6299V131.63H92.2603V123.945Z" fill="#293289"/>
<path d="M105.709 94.2413H98.9111V101.926H105.709V94.2413Z" fill="#293289"/>
<path d="M99.3536 101.778H92.5557V109.463H99.3536V101.778Z" fill="#293289"/>
<path d="M84.576 131.334H76.5957V139.019H84.576V131.334Z" fill="#293289"/>
<path d="M161.126 114.783H137.481V122.468H161.126V114.783Z" fill="#293289"/>
<path d="M137.776 109.315H92.7031V116.999H137.776V109.315Z" fill="#293289"/>
<path d="M174.575 94.3891H166.742V108.576H174.575V94.3891Z" fill="#293289"/>
<path d="M78.1016 115.566H69.6504V139.167H78.1016V115.566Z" fill="#293289"/>
<path d="M166.89 94.2413H98.9111V115.965H166.89V94.2413Z" fill="#293289"/>
<path d="M166.89 87H105.413V94.6847H166.89V87Z" fill="#293289"/>
<path d="M149.895 153.058H142.506V173.156H149.895V153.058Z" fill="#7EAEB2"/>
<path d="M409.5 33.08C409.5 33.86 409.05 34.42 408.02 34.42H406.68V31.78H408.02C409.06 31.78 409.5 32.29 409.5 33.08ZM405.77 31.03V38H406.68V35.15H407.78L409.44 38H410.53L408.78 35.08C409.95 34.82 410.44 33.97 410.44 33.08C410.44 31.94 409.66 31.03 408.02 31.03H405.77ZM411.514 35.24C411.514 36.94 412.644 38.09 414.104 38.09C415.114 38.09 415.824 37.57 416.154 36.98V38H417.074V32.52H416.154V33.52C415.834 32.95 415.134 32.43 414.114 32.43C412.644 32.43 411.514 33.53 411.514 35.24ZM416.154 35.25C416.154 36.54 415.294 37.29 414.294 37.29C413.294 37.29 412.444 36.53 412.444 35.24C412.444 33.95 413.294 33.22 414.294 33.22C415.294 33.22 416.154 33.98 416.154 35.25ZM422.622 38H423.522V34.77C423.522 33.2 422.552 32.42 421.282 32.42C420.542 32.42 419.882 32.73 419.522 33.3V32.52H418.612V38H419.522V34.97C419.522 33.79 420.162 33.21 421.092 33.21C422.012 33.21 422.622 33.78 422.622 34.9V38ZM424.668 35.24C424.668 36.94 425.798 38.09 427.268 38.09C428.268 38.09 428.978 37.58 429.308 36.97V38H430.228V30.6H429.308V33.5C428.928 32.87 428.138 32.43 427.278 32.43C425.798 32.43 424.668 33.53 424.668 35.24ZM429.308 35.25C429.308 36.54 428.448 37.29 427.448 37.29C426.448 37.29 425.598 36.53 425.598 35.24C425.598 33.95 426.448 33.22 427.448 33.22C428.448 33.22 429.308 33.98 429.308 35.25ZM436.966 35.25C436.966 33.52 435.756 32.43 434.196 32.43C432.646 32.43 431.426 33.52 431.426 35.25C431.426 36.99 432.606 38.09 434.156 38.09C435.716 38.09 436.966 36.99 436.966 35.25ZM432.356 35.25C432.356 33.87 433.226 33.22 434.186 33.22C435.126 33.22 436.036 33.87 436.036 35.25C436.036 36.64 435.106 37.29 434.156 37.29C433.206 37.29 432.356 36.64 432.356 35.25ZM446.073 38H446.973V34.77C446.973 33.2 446.003 32.42 444.753 32.42C443.913 32.42 443.133 32.85 442.813 33.64C442.453 32.82 441.703 32.42 440.803 32.42C440.083 32.42 439.433 32.73 439.073 33.31V32.52H438.163V38H439.073V34.98C439.073 33.8 439.703 33.21 440.623 33.21C441.523 33.21 442.123 33.78 442.123 34.9V38H443.023V34.98C443.023 33.8 443.653 33.21 444.573 33.21C445.473 33.21 446.073 33.78 446.073 34.9V38ZM451.131 31.03V38H454.481V37.26H452.041V31.03H451.131ZM455.108 35.24C455.108 36.94 456.238 38.09 457.698 38.09C458.708 38.09 459.418 37.57 459.748 36.98V38H460.668V32.52H459.748V33.52C459.428 32.95 458.728 32.43 457.708 32.43C456.238 32.43 455.108 33.53 455.108 35.24ZM459.748 35.25C459.748 36.54 458.888 37.29 457.888 37.29C456.888 37.29 456.038 36.53 456.038 35.24C456.038 33.95 456.888 33.22 457.888 33.22C458.888 33.22 459.748 33.98 459.748 35.25ZM464.286 36.96L462.566 32.52H461.556L463.766 37.94L462.686 40.58H463.626L466.926 32.52H465.986L464.286 36.96ZM470.17 33.2C471.11 33.2 471.91 33.79 471.9 34.86H468.44C468.54 33.79 469.28 33.2 470.17 33.2ZM472.73 36.31H471.75C471.55 36.9 471.03 37.32 470.21 37.32C469.28 37.32 468.5 36.71 468.43 35.6H472.81C472.83 35.41 472.84 35.25 472.84 35.05C472.84 33.55 471.8 32.43 470.21 32.43C468.61 32.43 467.5 33.52 467.5 35.25C467.5 36.99 468.65 38.09 470.21 38.09C471.57 38.09 472.45 37.31 472.73 36.31ZM474.951 35.02C474.951 33.75 475.611 33.36 476.481 33.36H476.721V32.42C475.851 32.42 475.261 32.8 474.951 33.41V32.52H474.041V38H474.951V35.02Z" fill="#183B56"/>
<path d="M59.47 36.37V39H60.38V36.37L62.65 32.03H61.64L59.92 35.56L58.2 32.03H57.19L59.47 36.37ZM68.8098 36.25C68.8098 34.52 67.5998 33.43 66.0398 33.43C64.4898 33.43 63.2698 34.52 63.2698 36.25C63.2698 37.99 64.4498 39.09 65.9998 39.09C67.5598 39.09 68.8098 37.99 68.8098 36.25ZM64.1998 36.25C64.1998 34.87 65.0698 34.22 66.0298 34.22C66.9698 34.22 67.8798 34.87 67.8798 36.25C67.8798 37.64 66.9498 38.29 65.9998 38.29C65.0498 38.29 64.1998 37.64 64.1998 36.25ZM74.8663 33.52H73.9563V36.53C73.9563 37.71 73.3263 38.29 72.3863 38.29C71.4663 38.29 70.8563 37.72 70.8563 36.61V33.52H69.9563V36.73C69.9563 38.3 70.9463 39.08 72.2063 39.08C72.9363 39.08 73.6063 38.76 73.9563 38.19V39H74.8663V33.52ZM77.3128 36.02C77.3128 34.75 77.9728 34.36 78.8428 34.36H79.0828V33.42C78.2128 33.42 77.6228 33.8 77.3128 34.41V33.52H76.4028V39H77.3128V36.02ZM87.4793 39H88.4393L85.9293 32.07H84.8793L82.3593 39H83.3193L83.8793 37.45H86.9193L87.4793 39ZM86.6593 36.71H84.1393L85.3993 33.19L86.6593 36.71ZM94.3976 33.52H93.4876V36.53C93.4876 37.71 92.8576 38.29 91.9176 38.29C90.9976 38.29 90.3876 37.72 90.3876 36.61V33.52H89.4876V36.73C89.4876 38.3 90.4776 39.08 91.7376 39.08C92.4676 39.08 93.1376 38.76 93.4876 38.19V39H94.3976V33.52ZM96.1341 37.5C96.1341 38.6 96.6841 39 97.6541 39H98.4741V38.23H97.8041C97.2441 38.23 97.0441 38.04 97.0441 37.5V34.27H98.4741V33.52H97.0441V32.14H96.1341V33.52H95.4241V34.27H96.1341V37.5ZM104.777 36.25C104.777 34.52 103.567 33.43 102.007 33.43C100.457 33.43 99.2366 34.52 99.2366 36.25C99.2366 37.99 100.417 39.09 101.967 39.09C103.527 39.09 104.777 37.99 104.777 36.25ZM100.167 36.25C100.167 34.87 101.037 34.22 101.997 34.22C102.937 34.22 103.847 34.87 103.847 36.25C103.847 37.64 102.917 38.29 101.967 38.29C101.017 38.29 100.167 37.64 100.167 36.25ZM111.799 31.95C109.839 31.95 108.299 33.42 108.299 35.51C108.299 37.6 109.839 39.06 111.799 39.06C113.689 39.06 115.059 37.67 115.219 35.94V35.24H111.469V35.98H114.249C114.109 37.36 113.169 38.24 111.799 38.24C110.329 38.24 109.229 37.18 109.229 35.51C109.229 33.83 110.329 32.77 111.799 32.77C112.779 32.77 113.539 33.24 113.919 34.05H115.009C114.489 32.71 113.269 31.95 111.799 31.95ZM118.752 34.2C119.692 34.2 120.492 34.79 120.482 35.86H117.022C117.122 34.79 117.862 34.2 118.752 34.2ZM121.312 37.31H120.332C120.132 37.9 119.612 38.32 118.792 38.32C117.862 38.32 117.082 37.71 117.012 36.6H121.392C121.412 36.41 121.422 36.25 121.422 36.05C121.422 34.55 120.382 33.43 118.792 33.43C117.192 33.43 116.082 34.52 116.082 36.25C116.082 37.99 117.232 39.09 118.792 39.09C120.152 39.09 121.032 38.31 121.312 37.31ZM126.634 39H127.534V35.77C127.534 34.2 126.564 33.42 125.294 33.42C124.554 33.42 123.894 33.73 123.534 34.3V33.52H122.624V39H123.534V35.97C123.534 34.79 124.174 34.21 125.104 34.21C126.024 34.21 126.634 34.78 126.634 35.9V39ZM131.35 34.2C132.29 34.2 133.09 34.79 133.08 35.86H129.62C129.72 34.79 130.46 34.2 131.35 34.2ZM133.91 37.31H132.93C132.73 37.9 132.21 38.32 131.39 38.32C130.46 38.32 129.68 37.71 129.61 36.6H133.99C134.01 36.41 134.02 36.25 134.02 36.05C134.02 34.55 132.98 33.43 131.39 33.43C129.79 33.43 128.68 34.52 128.68 36.25C128.68 37.99 129.83 39.09 131.39 39.09C132.75 39.09 133.63 38.31 133.91 37.31ZM136.131 36.02C136.131 34.75 136.791 34.36 137.661 34.36H137.901V33.42C137.031 33.42 136.441 33.8 136.131 34.41V33.52H135.221V39H136.131V36.02ZM138.612 36.24C138.612 37.94 139.742 39.09 141.202 39.09C142.212 39.09 142.922 38.57 143.252 37.98V39H144.172V33.52H143.252V34.52C142.932 33.95 142.232 33.43 141.212 33.43C139.742 33.43 138.612 34.53 138.612 36.24ZM143.252 36.25C143.252 37.54 142.392 38.29 141.392 38.29C140.392 38.29 139.542 37.53 139.542 36.24C139.542 34.95 140.392 34.22 141.392 34.22C142.392 34.22 143.252 34.98 143.252 36.25ZM145.909 37.5C145.909 38.6 146.459 39 147.429 39H148.249V38.23H147.579C147.019 38.23 146.819 38.04 146.819 37.5V34.27H148.249V33.52H146.819V32.14H145.909V33.52H145.199V34.27H145.909V37.5ZM151.682 34.2C152.622 34.2 153.422 34.79 153.412 35.86H149.952C150.052 34.79 150.792 34.2 151.682 34.2ZM154.242 37.31H153.262C153.062 37.9 152.542 38.32 151.722 38.32C150.792 38.32 150.012 37.71 149.942 36.6H154.322C154.342 36.41 154.352 36.25 154.352 36.05C154.352 34.55 153.312 33.43 151.722 33.43C150.122 33.43 149.012 34.52 149.012 36.25C149.012 37.99 150.162 39.09 151.722 39.09C153.082 39.09 153.962 38.31 154.242 37.31ZM162.789 32.02V37.56L159.129 32.02H158.219V39H159.129V33.45L162.789 39H163.699V32.02H162.789ZM165.25 39H166.16V35.86H168.62V35.12H166.16V32.77H169.19V32.03H165.25V39ZM169.86 32.77H171.77V39H172.68V32.77H174.58V32.03H169.86V32.77Z" fill="#183B56"/>
<g filter="url(#filter13_d_336_183)">
<mask id="path-229-inside-1_336_183" fill="white">
<path d="M270.192 149.526C270.255 149.921 270.29 150.326 270.29 150.686C270.29 151.149 270.255 151.555 270.192 151.949L271.464 153.097C271.866 153.462 272.032 153.99 271.82 154.546C271.688 154.801 271.545 155.155 271.384 155.444L271.207 155.757C270.983 156.047 270.846 156.326 270.645 156.598C270.319 157.038 269.746 157.183 269.23 157.009L267.608 156.47C266.995 156.986 266.296 157.398 265.534 157.688L265.139 159.369C265.076 159.908 264.663 160.337 264.125 160.406C263.741 160.453 263.351 160.476 262.956 160.476C262.56 160.476 262.171 160.453 261.787 160.406C261.248 160.337 260.784 159.908 260.721 159.369L260.326 157.688C259.615 157.398 258.916 156.986 258.3 156.47L256.684 157.009C256.168 157.183 255.594 157.038 255.268 156.598C255.065 156.326 254.876 156.042 254.702 155.752L254.529 155.444C254.369 155.155 254.223 154.853 254.093 154.546C253.881 153.99 254.044 153.462 254.448 153.097L255.719 151.949C255.655 151.555 255.57 151.149 255.57 150.686C255.57 150.326 255.655 149.921 255.719 149.526L254.448 148.379C254.044 147.961 253.881 147.434 254.093 146.93C254.223 146.57 254.369 146.32 254.528 146.029L254.702 145.725C254.876 145.432 255.065 145.149 255.268 144.877C255.594 144.44 256.168 144.294 256.684 144.466L258.3 145.005C258.916 144.492 259.615 144.08 260.326 143.791L260.721 142.106C260.784 141.568 261.248 141.137 261.787 141.071C262.175 141.024 262.565 141 262.956 141C263.351 141 263.741 141.024 264.125 141.071C264.663 141.137 265.076 141.568 265.139 142.106L265.534 143.791C266.296 144.08 266.995 144.492 267.608 145.005L269.23 144.466C269.746 144.294 270.319 144.44 270.645 144.877C270.846 145.148 270.983 145.43 271.207 145.721L271.384 146.033C271.545 146.323 271.688 146.622 271.82 146.93C272.032 147.434 271.866 147.961 271.464 148.379L270.192 149.526ZM262.956 147.903C261.437 147.903 260.206 149.202 260.206 150.686C260.206 152.274 261.437 153.468 262.956 153.468C264.474 153.468 265.706 152.274 265.706 150.686C265.706 149.202 264.474 147.903 262.956 147.903ZM281.572 168.26C281.182 168.324 280.781 168.359 280.374 168.359C279.967 168.359 279.566 168.324 279.177 168.26L278.042 169.547C277.63 169.953 277.108 170.121 276.61 169.906C276.306 169.773 276.008 169.628 275.722 169.466L275.412 169.286C275.126 169.06 274.851 168.921 274.581 168.718C274.146 168.388 274.003 167.808 274.175 167.286L274.707 165.646C274.198 165.026 273.791 164.319 273.504 163.548L271.843 163.148C271.31 163.084 270.886 162.667 270.817 162.122C270.771 161.734 270.748 161.339 270.748 160.939C270.748 160.539 270.771 160.145 270.817 159.757C270.886 159.212 271.31 158.743 271.843 158.679L273.504 158.279C273.791 157.56 274.198 156.853 274.707 156.233L274.175 154.592C274.003 154.071 274.146 153.491 274.581 153.161C274.851 152.958 275.131 152.714 275.418 152.587L275.722 152.413C276.008 152.251 276.254 152.106 276.61 151.972C277.108 151.758 277.63 151.926 278.042 152.332L279.177 153.619C279.566 153.555 279.967 153.52 280.374 153.52C280.781 153.52 281.182 153.555 281.572 153.619L282.706 152.332C283.067 151.926 283.588 151.758 284.139 151.972C284.442 152.106 284.74 152.251 285.027 152.413L285.33 152.587C285.617 152.714 285.898 152.958 286.167 153.161C286.602 153.491 286.746 154.071 286.574 154.592L286.041 156.233C286.551 156.853 286.958 157.56 287.244 158.279L288.906 158.679C289.438 158.743 289.862 159.212 289.931 159.757C289.977 160.145 290 160.539 290 160.939C290 161.339 289.977 161.734 289.931 162.122C289.862 162.667 289.438 163.084 288.906 163.148L287.244 163.548C286.958 164.319 286.551 165.026 286.041 165.646L286.574 167.286C286.746 167.808 286.602 168.388 286.167 168.718C285.898 168.921 285.623 169.06 285.336 169.286L285.027 169.466C284.74 169.628 284.391 169.773 284.139 169.906C283.588 170.121 283.067 169.953 282.706 169.547L281.572 168.26ZM283.124 160.939C283.124 159.403 281.892 158.157 280.374 158.157C278.856 158.157 277.624 159.403 277.624 160.939C277.624 162.475 278.856 163.722 280.374 163.722C281.892 163.722 283.124 162.475 283.124 160.939Z"/>
</mask>
<path d="M270.192 149.526C270.255 149.921 270.29 150.326 270.29 150.686C270.29 151.149 270.255 151.555 270.192 151.949L271.464 153.097C271.866 153.462 272.032 153.99 271.82 154.546C271.688 154.801 271.545 155.155 271.384 155.444L271.207 155.757C270.983 156.047 270.846 156.326 270.645 156.598C270.319 157.038 269.746 157.183 269.23 157.009L267.608 156.47C266.995 156.986 266.296 157.398 265.534 157.688L265.139 159.369C265.076 159.908 264.663 160.337 264.125 160.406C263.741 160.453 263.351 160.476 262.956 160.476C262.56 160.476 262.171 160.453 261.787 160.406C261.248 160.337 260.784 159.908 260.721 159.369L260.326 157.688C259.615 157.398 258.916 156.986 258.3 156.47L256.684 157.009C256.168 157.183 255.594 157.038 255.268 156.598C255.065 156.326 254.876 156.042 254.702 155.752L254.529 155.444C254.369 155.155 254.223 154.853 254.093 154.546C253.881 153.99 254.044 153.462 254.448 153.097L255.719 151.949C255.655 151.555 255.57 151.149 255.57 150.686C255.57 150.326 255.655 149.921 255.719 149.526L254.448 148.379C254.044 147.961 253.881 147.434 254.093 146.93C254.223 146.57 254.369 146.32 254.528 146.029L254.702 145.725C254.876 145.432 255.065 145.149 255.268 144.877C255.594 144.44 256.168 144.294 256.684 144.466L258.3 145.005C258.916 144.492 259.615 144.08 260.326 143.791L260.721 142.106C260.784 141.568 261.248 141.137 261.787 141.071C262.175 141.024 262.565 141 262.956 141C263.351 141 263.741 141.024 264.125 141.071C264.663 141.137 265.076 141.568 265.139 142.106L265.534 143.791C266.296 144.08 266.995 144.492 267.608 145.005L269.23 144.466C269.746 144.294 270.319 144.44 270.645 144.877C270.846 145.148 270.983 145.43 271.207 145.721L271.384 146.033C271.545 146.323 271.688 146.622 271.82 146.93C272.032 147.434 271.866 147.961 271.464 148.379L270.192 149.526ZM262.956 147.903C261.437 147.903 260.206 149.202 260.206 150.686C260.206 152.274 261.437 153.468 262.956 153.468C264.474 153.468 265.706 152.274 265.706 150.686C265.706 149.202 264.474 147.903 262.956 147.903ZM281.572 168.26C281.182 168.324 280.781 168.359 280.374 168.359C279.967 168.359 279.566 168.324 279.177 168.26L278.042 169.547C277.63 169.953 277.108 170.121 276.61 169.906C276.306 169.773 276.008 169.628 275.722 169.466L275.412 169.286C275.126 169.06 274.851 168.921 274.581 168.718C274.146 168.388 274.003 167.808 274.175 167.286L274.707 165.646C274.198 165.026 273.791 164.319 273.504 163.548L271.843 163.148C271.31 163.084 270.886 162.667 270.817 162.122C270.771 161.734 270.748 161.339 270.748 160.939C270.748 160.539 270.771 160.145 270.817 159.757C270.886 159.212 271.31 158.743 271.843 158.679L273.504 158.279C273.791 157.56 274.198 156.853 274.707 156.233L274.175 154.592C274.003 154.071 274.146 153.491 274.581 153.161C274.851 152.958 275.131 152.714 275.418 152.587L275.722 152.413C276.008 152.251 276.254 152.106 276.61 151.972C277.108 151.758 277.63 151.926 278.042 152.332L279.177 153.619C279.566 153.555 279.967 153.52 280.374 153.52C280.781 153.52 281.182 153.555 281.572 153.619L282.706 152.332C283.067 151.926 283.588 151.758 284.139 151.972C284.442 152.106 284.74 152.251 285.027 152.413L285.33 152.587C285.617 152.714 285.898 152.958 286.167 153.161C286.602 153.491 286.746 154.071 286.574 154.592L286.041 156.233C286.551 156.853 286.958 157.56 287.244 158.279L288.906 158.679C289.438 158.743 289.862 159.212 289.931 159.757C289.977 160.145 290 160.539 290 160.939C290 161.339 289.977 161.734 289.931 162.122C289.862 162.667 289.438 163.084 288.906 163.148L287.244 163.548C286.958 164.319 286.551 165.026 286.041 165.646L286.574 167.286C286.746 167.808 286.602 168.388 286.167 168.718C285.898 168.921 285.623 169.06 285.336 169.286L285.027 169.466C284.74 169.628 284.391 169.773 284.139 169.906C283.588 170.121 283.067 169.953 282.706 169.547L281.572 168.26ZM283.124 160.939C283.124 159.403 281.892 158.157 280.374 158.157C278.856 158.157 277.624 159.403 277.624 160.939C277.624 162.475 278.856 163.722 280.374 163.722C281.892 163.722 283.124 162.475 283.124 160.939Z" fill="white"/>
<path d="M270.192 149.526C270.255 149.921 270.29 150.326 270.29 150.686C270.29 151.149 270.255 151.555 270.192 151.949L271.464 153.097C271.866 153.462 272.032 153.99 271.82 154.546C271.688 154.801 271.545 155.155 271.384 155.444L271.207 155.757C270.983 156.047 270.846 156.326 270.645 156.598C270.319 157.038 269.746 157.183 269.23 157.009L267.608 156.47C266.995 156.986 266.296 157.398 265.534 157.688L265.139 159.369C265.076 159.908 264.663 160.337 264.125 160.406C263.741 160.453 263.351 160.476 262.956 160.476C262.56 160.476 262.171 160.453 261.787 160.406C261.248 160.337 260.784 159.908 260.721 159.369L260.326 157.688C259.615 157.398 258.916 156.986 258.3 156.47L256.684 157.009C256.168 157.183 255.594 157.038 255.268 156.598C255.065 156.326 254.876 156.042 254.702 155.752L254.529 155.444C254.369 155.155 254.223 154.853 254.093 154.546C253.881 153.99 254.044 153.462 254.448 153.097L255.719 151.949C255.655 151.555 255.57 151.149 255.57 150.686C255.57 150.326 255.655 149.921 255.719 149.526L254.448 148.379C254.044 147.961 253.881 147.434 254.093 146.93C254.223 146.57 254.369 146.32 254.528 146.029L254.702 145.725C254.876 145.432 255.065 145.149 255.268 144.877C255.594 144.44 256.168 144.294 256.684 144.466L258.3 145.005C258.916 144.492 259.615 144.08 260.326 143.791L260.721 142.106C260.784 141.568 261.248 141.137 261.787 141.071C262.175 141.024 262.565 141 262.956 141C263.351 141 263.741 141.024 264.125 141.071C264.663 141.137 265.076 141.568 265.139 142.106L265.534 143.791C266.296 144.08 266.995 144.492 267.608 145.005L269.23 144.466C269.746 144.294 270.319 144.44 270.645 144.877C270.846 145.148 270.983 145.43 271.207 145.721L271.384 146.033C271.545 146.323 271.688 146.622 271.82 146.93C272.032 147.434 271.866 147.961 271.464 148.379L270.192 149.526ZM262.956 147.903C261.437 147.903 260.206 149.202 260.206 150.686C260.206 152.274 261.437 153.468 262.956 153.468C264.474 153.468 265.706 152.274 265.706 150.686C265.706 149.202 264.474 147.903 262.956 147.903ZM281.572 168.26C281.182 168.324 280.781 168.359 280.374 168.359C279.967 168.359 279.566 168.324 279.177 168.26L278.042 169.547C277.63 169.953 277.108 170.121 276.61 169.906C276.306 169.773 276.008 169.628 275.722 169.466L275.412 169.286C275.126 169.06 274.851 168.921 274.581 168.718C274.146 168.388 274.003 167.808 274.175 167.286L274.707 165.646C274.198 165.026 273.791 164.319 273.504 163.548L271.843 163.148C271.31 163.084 270.886 162.667 270.817 162.122C270.771 161.734 270.748 161.339 270.748 160.939C270.748 160.539 270.771 160.145 270.817 159.757C270.886 159.212 271.31 158.743 271.843 158.679L273.504 158.279C273.791 157.56 274.198 156.853 274.707 156.233L274.175 154.592C274.003 154.071 274.146 153.491 274.581 153.161C274.851 152.958 275.131 152.714 275.418 152.587L275.722 152.413C276.008 152.251 276.254 152.106 276.61 151.972C277.108 151.758 277.63 151.926 278.042 152.332L279.177 153.619C279.566 153.555 279.967 153.52 280.374 153.52C280.781 153.52 281.182 153.555 281.572 153.619L282.706 152.332C283.067 151.926 283.588 151.758 284.139 151.972C284.442 152.106 284.74 152.251 285.027 152.413L285.33 152.587C285.617 152.714 285.898 152.958 286.167 153.161C286.602 153.491 286.746 154.071 286.574 154.592L286.041 156.233C286.551 156.853 286.958 157.56 287.244 158.279L288.906 158.679C289.438 158.743 289.862 159.212 289.931 159.757C289.977 160.145 290 160.539 290 160.939C290 161.339 289.977 161.734 289.931 162.122C289.862 162.667 289.438 163.084 288.906 163.148L287.244 163.548C286.958 164.319 286.551 165.026 286.041 165.646L286.574 167.286C286.746 167.808 286.602 168.388 286.167 168.718C285.898 168.921 285.623 169.06 285.336 169.286L285.027 169.466C284.74 169.628 284.391 169.773 284.139 169.906C283.588 170.121 283.067 169.953 282.706 169.547L281.572 168.26ZM283.124 160.939C283.124 159.403 281.892 158.157 280.374 158.157C278.856 158.157 277.624 159.403 277.624 160.939C277.624 162.475 278.856 163.722 280.374 163.722C281.892 163.722 283.124 162.475 283.124 160.939Z" stroke="#7C2AE8" stroke-width="0.4" mask="url(#path-229-inside-1_336_183)"/>
</g>
<defs>
<filter id="filter0_d_336_183" x="553" y="97" width="133" height="137" filterUnits="userSpaceOnUse" color-interpolation-filters="sRGB">
<feFlood flood-opacity="0" result="BackgroundImageFix"/>
<feColorMatrix in="SourceAlpha" type="matrix" values="0 0 0 0 0 0 0 0 0 0 0 0 0 0 0 0 0 0 127 0" result="hardAlpha"/>
<feOffset dy="5"/>
<feGaussianBlur stdDeviation="15"/>
<feColorMatrix type="matrix" values="0 0 0 0 0.168627 0 0 0 0 0.529412 0 0 0 0 0.854902 0 0 0 0.2 0"/>
<feBlend mode="normal" in2="BackgroundImageFix" result="effect1_dropShadow_336_183"/>
<feBlend mode="normal" in="SourceGraphic" in2="effect1_dropShadow_336_183" result="shape"/>
</filter>
<filter id="filter1_d_336_183" x="292" y="93" width="133" height="137" filterUnits="userSpaceOnUse" color-interpolation-filters="sRGB">
<feFlood flood-opacity="0" result="BackgroundImageFix"/>
<feColorMatrix in="SourceAlpha" type="matrix" values="0 0 0 0 0 0 0 0 0 0 0 0 0 0 0 0 0 0 127 0" result="hardAlpha"/>
<feOffset dy="5"/>
<feGaussianBlur stdDeviation="15"/>
<feColorMatrix type="matrix" values="0 0 0 0 0.168627 0 0 0 0 0.529412 0 0 0 0 0.854902 0 0 0 0.2 0"/>
<feBlend mode="normal" in2="BackgroundImageFix" result="effect1_dropShadow_336_183"/>
<feBlend mode="normal" in="SourceGraphic" in2="effect1_dropShadow_336_183" result="shape"/>
</filter>
<filter id="filter2_d_336_183" x="375" y="119" width="133" height="137" filterUnits="userSpaceOnUse" color-interpolation-filters="sRGB">
<feFlood flood-opacity="0" result="BackgroundImageFix"/>
<feColorMatrix in="SourceAlpha" type="matrix" values="0 0 0 0 0 0 0 0 0 0 0 0 0 0 0 0 0 0 127 0" result="hardAlpha"/>
<feOffset dy="5"/>
<feGaussianBlur stdDeviation="15"/>
<feColorMatrix type="matrix" values="0 0 0 0 0.168627 0 0 0 0 0.529412 0 0 0 0 0.854902 0 0 0 0.2 0"/>
<feBlend mode="normal" in2="BackgroundImageFix" result="effect1_dropShadow_336_183"/>
<feBlend mode="normal" in="SourceGraphic" in2="effect1_dropShadow_336_183" result="shape"/>
</filter>
<filter id="filter3_d_336_183" x="460" y="93" width="133" height="137" filterUnits="userSpaceOnUse" color-interpolation-filters="sRGB">
<feFlood flood-opacity="0" result="BackgroundImageFix"/>
<feColorMatrix in="SourceAlpha" type="matrix" values="0 0 0 0 0 0 0 0 0 0 0 0 0 0 0 0 0 0 127 0" result="hardAlpha"/>
<feOffset dy="5"/>
<feGaussianBlur stdDeviation="15"/>
<feColorMatrix type="matrix" values="0 0 0 0 0.168627 0 0 0 0 0.529412 0 0 0 0 0.854902 0 0 0 0.2 0"/>
<feBlend mode="normal" in2="BackgroundImageFix" result="effect1_dropShadow_336_183"/>
<feBlend mode="normal" in="SourceGraphic" in2="effect1_dropShadow_336_183" result="shape"/>
</filter>
<filter id="filter4_d_336_183" x="464" y="180" width="133" height="137" filterUnits="userSpaceOnUse" color-interpolation-filters="sRGB">
<feFlood flood-opacity="0" result="BackgroundImageFix"/>
<feColorMatrix in="SourceAlpha" type="matrix" values="0 0 0 0 0 0 0 0 0 0 0 0 0 0 0 0 0 0 127 0" result="hardAlpha"/>
<feOffset dy="5"/>
<feGaussianBlur stdDeviation="15"/>
<feColorMatrix type="matrix" values="0 0 0 0 0.168627 0 0 0 0 0.529412 0 0 0 0 0.854902 0 0 0 0.2 0"/>
<feBlend mode="normal" in2="BackgroundImageFix" result="effect1_dropShadow_336_183"/>
<feBlend mode="normal" in="SourceGraphic" in2="effect1_dropShadow_336_183" result="shape"/>
</filter>
<filter id="filter5_d_336_183" x="461" y="0" width="133" height="137" filterUnits="userSpaceOnUse" color-interpolation-filters="sRGB">
<feFlood flood-opacity="0" result="BackgroundImageFix"/>
<feColorMatrix in="SourceAlpha" type="matrix" values="0 0 0 0 0 0 0 0 0 0 0 0 0 0 0 0 0 0 127 0" result="hardAlpha"/>
<feOffset dy="5"/>
<feGaussianBlur stdDeviation="15"/>
<feColorMatrix type="matrix" values="0 0 0 0 0.168627 0 0 0 0 0.529412 0 0 0 0 0.854902 0 0 0 0.2 0"/>
<feBlend mode="normal" in2="BackgroundImageFix" result="effect1_dropShadow_336_183"/>
<feBlend mode="normal" in="SourceGraphic" in2="effect1_dropShadow_336_183" result="shape"/>
</filter>
<filter id="filter6_d_336_183" x="555" y="190" width="133" height="137" filterUnits="userSpaceOnUse" color-interpolation-filters="sRGB">
<feFlood flood-opacity="0" result="BackgroundImageFix"/>
<feColorMatrix in="SourceAlpha" type="matrix" values="0 0 0 0 0 0 0 0 0 0 0 0 0 0 0 0 0 0 127 0" result="hardAlpha"/>
<feOffset dy="5"/>
<feGaussianBlur stdDeviation="15"/>
<feColorMatrix type="matrix" values="0 0 0 0 0.168627 0 0 0 0 0.529412 0 0 0 0 0.854902 0 0 0 0.2 0"/>
<feBlend mode="normal" in2="BackgroundImageFix" result="effect1_dropShadow_336_183"/>
<feBlend mode="normal" in="SourceGraphic" in2="effect1_dropShadow_336_183" result="shape"/>
</filter>
<filter id="filter7_d_336_183" x="375" y="209" width="133" height="137" filterUnits="userSpaceOnUse" color-interpolation-filters="sRGB">
<feFlood flood-opacity="0" result="BackgroundImageFix"/>
<feColorMatrix in="SourceAlpha" type="matrix" values="0 0 0 0 0 0 0 0 0 0 0 0 0 0 0 0 0 0 127 0" result="hardAlpha"/>
<feOffset dy="5"/>
<feGaussianBlur stdDeviation="15"/>
<feColorMatrix type="matrix" values="0 0 0 0 0.168627 0 0 0 0 0.529412 0 0 0 0 0.854902 0 0 0 0.2 0"/>
<feBlend mode="normal" in2="BackgroundImageFix" result="effect1_dropShadow_336_183"/>
<feBlend mode="normal" in="SourceGraphic" in2="effect1_dropShadow_336_183" result="shape"/>
</filter>
<filter id="filter8_d_336_183" x="372" y="29" width="133" height="137" filterUnits="userSpaceOnUse" color-interpolation-filters="sRGB">
<feFlood flood-opacity="0" result="BackgroundImageFix"/>
<feColorMatrix in="SourceAlpha" type="matrix" values="0 0 0 0 0 0 0 0 0 0 0 0 0 0 0 0 0 0 127 0" result="hardAlpha"/>
<feOffset dy="5"/>
<feGaussianBlur stdDeviation="15"/>
<feColorMatrix type="matrix" values="0 0 0 0 0.168627 0 0 0 0 0.529412 0 0 0 0 0.854902 0 0 0 0.2 0"/>
<feBlend mode="normal" in2="BackgroundImageFix" result="effect1_dropShadow_336_183"/>
<feBlend mode="normal" in="SourceGraphic" in2="effect1_dropShadow_336_183" result="shape"/>
</filter>
<filter id="filter9_d_336_183" x="292" y="180" width="133" height="137" filterUnits="userSpaceOnUse" color-interpolation-filters="sRGB">
<feFlood flood-opacity="0" result="BackgroundImageFix"/>
<feColorMatrix in="SourceAlpha" type="matrix" values="0 0 0 0 0 0 0 0 0 0 0 0 0 0 0 0 0 0 127 0" result="hardAlpha"/>
<feOffset dy="5"/>
<feGaussianBlur stdDeviation="15"/>
<feColorMatrix type="matrix" values="0 0 0 0 0.168627 0 0 0 0 0.529412 0 0 0 0 0.854902 0 0 0 0.2 0"/>
<feBlend mode="normal" in2="BackgroundImageFix" result="effect1_dropShadow_336_183"/>
<feBlend mode="normal" in="SourceGraphic" in2="effect1_dropShadow_336_183" result="shape"/>
</filter>
<filter id="filter10_d_336_183" x="550" y="4" width="133" height="137" filterUnits="userSpaceOnUse" color-interpolation-filters="sRGB">
<feFlood flood-opacity="0" result="BackgroundImageFix"/>
<feColorMatrix in="SourceAlpha" type="matrix" values="0 0 0 0 0 0 0 0 0 0 0 0 0 0 0 0 0 0 127 0" result="hardAlpha"/>
<feOffset dy="5"/>
<feGaussianBlur stdDeviation="15"/>
<feColorMatrix type="matrix" values="0 0 0 0 0.168627 0 0 0 0 0.529412 0 0 0 0 0.854902 0 0 0 0.2 0"/>
<feBlend mode="normal" in2="BackgroundImageFix" result="effect1_dropShadow_336_183"/>
<feBlend mode="normal" in="SourceGraphic" in2="effect1_dropShadow_336_183" result="shape"/>
</filter>
<filter id="filter11_d_336_183" x="289" y="0" width="133" height="137" filterUnits="userSpaceOnUse" color-interpolation-filters="sRGB">
<feFlood flood-opacity="0" result="BackgroundImageFix"/>
<feColorMatrix in="SourceAlpha" type="matrix" values="0 0 0 0 0 0 0 0 0 0 0 0 0 0 0 0 0 0 127 0" result="hardAlpha"/>
<feOffset dy="5"/>
<feGaussianBlur stdDeviation="15"/>
<feColorMatrix type="matrix" values="0 0 0 0 0.168627 0 0 0 0 0.529412 0 0 0 0 0.854902 0 0 0 0.2 0"/>
<feBlend mode="normal" in2="BackgroundImageFix" result="effect1_dropShadow_336_183"/>
<feBlend mode="normal" in="SourceGraphic" in2="effect1_dropShadow_336_183" result="shape"/>
</filter>
<filter id="filter12_d_336_183" x="0" y="36" width="245" height="256" filterUnits="userSpaceOnUse" color-interpolation-filters="sRGB">
<feFlood flood-opacity="0" result="BackgroundImageFix"/>
<feColorMatrix in="SourceAlpha" type="matrix" values="0 0 0 0 0 0 0 0 0 0 0 0 0 0 0 0 0 0 127 0" result="hardAlpha"/>
<feOffset dy="5"/>
<feGaussianBlur stdDeviation="15"/>
<feColorMatrix type="matrix" values="0 0 0 0 0.168627 0 0 0 0 0.529412 0 0 0 0 0.854902 0 0 0 0.2 0"/>
<feBlend mode="normal" in2="BackgroundImageFix" result="effect1_dropShadow_336_183"/>
<feBlend mode="normal" in="SourceGraphic" in2="effect1_dropShadow_336_183" result="shape"/>
</filter>
<filter id="filter13_d_336_183" x="250" y="141" width="44" height="37" filterUnits="userSpaceOnUse" color-interpolation-filters="sRGB">
<feFlood flood-opacity="0" result="BackgroundImageFix"/>
<feColorMatrix in="SourceAlpha" type="matrix" values="0 0 0 0 0 0 0 0 0 0 0 0 0 0 0 0 0 0 127 0" result="hardAlpha"/>
<feOffset dy="4"/>
<feGaussianBlur stdDeviation="2"/>
<feComposite in2="hardAlpha" operator="out"/>
<feColorMatrix type="matrix" values="0 0 0 0 0 0 0 0 0 0 0 0 0 0 0 0 0 0 0.25 0"/>
<feBlend mode="normal" in2="BackgroundImageFix" result="effect1_dropShadow_336_183"/>
<feBlend mode="normal" in="SourceGraphic" in2="effect1_dropShadow_336_183" result="shape"/>
</filter>
</defs>
</svg>
