<svg width="1919" height="260" viewBox="0 0 1919 260" fill="none" xmlns="http://www.w3.org/2000/svg">
<mask id="mask0_336_193" style="mask-type:alpha" maskUnits="userSpaceOnUse" x="0" y="0" width="1919" height="260">
<rect width="1919" height="260" fill="#ECF1F9"/>
</mask>
<g mask="url(#mask0_336_193)">
<path d="M1680.15 180.602C1680.27 180.758 1680.39 180.922 1680.5 181.093C1680.77 181.465 1681.09 181.956 1681.52 182.582C1681.99 183.434 1682.43 184.309 1682.82 185.205C1683.29 186.449 1683.65 187.735 1683.88 189.046C1684.5 192.671 1684.34 196.385 1683.41 199.943C1682.17 204.647 1680.02 209.063 1677.08 212.938C1673.45 217.576 1668.98 221.491 1663.9 224.478C1658.13 227.905 1652.13 230.93 1645.95 233.53C1633.02 239.148 1618.88 246.187 1606.71 256.965C1600.82 262.243 1595.72 268.34 1591.57 275.07C1587.79 281.405 1584.85 288.202 1582.82 295.29C1578.81 308.827 1576.51 321.433 1576.46 332.11C1576.38 336.904 1576.78 341.694 1577.66 346.407C1577.98 348.506 1578.54 350.401 1578.96 352.16C1579.38 353.92 1580.01 355.545 1580.47 356.898C1581.55 359.673 1582.45 361.822 1583.17 363.21C1583.51 363.886 1583.77 364.411 1583.95 364.817C1584.05 364.999 1584.13 365.192 1584.19 365.392C1584.07 365.227 1583.96 365.052 1583.87 364.868L1583.02 363.277C1581.94 361.25 1580.98 359.16 1580.14 357.017C1579.67 355.595 1579.06 354.039 1578.55 352.279C1578.05 350.519 1577.52 348.607 1577.17 346.509C1576.23 341.767 1575.78 336.942 1575.83 332.11C1575.83 321.348 1578.05 308.641 1582.04 295.053C1584.06 287.894 1587.01 281.028 1590.8 274.63C1594.99 267.809 1600.15 261.636 1606.12 256.305C1618.47 245.425 1632.65 238.369 1645.59 232.786C1651.78 230.224 1657.79 227.239 1663.56 223.852C1668.56 220.952 1672.98 217.148 1676.59 212.633C1679.5 208.832 1681.66 204.506 1682.94 199.892C1683.88 196.402 1684.08 192.755 1683.55 189.181C1683.34 187.879 1683.01 186.599 1682.56 185.357C1682.12 184.308 1681.72 183.428 1681.36 182.734L1680.43 181.212C1680.31 181.021 1680.22 180.817 1680.15 180.602V180.602Z" fill="#263238"/>
<path d="M1684.88 200.924C1675.1 193.902 1667.77 181.432 1663.19 170.315C1658.6 159.198 1658.27 145.983 1663.88 135.34C1669.5 124.697 1681.5 117.269 1693.48 118.588C1706.29 119.993 1716.74 131.093 1719.75 143.631C1722.77 156.169 1716.76 171.33 1708.28 181.042C1698.72 192.024 1695.98 195.696 1684.88 200.924" fill="#7C2AE8"/>
<path d="M1688.76 202.481C1687.36 200.813 1686.44 198.795 1686.1 196.643L1684.82 197.692C1683.18 199.382 1681.96 201.434 1681.26 203.682C1681.09 204.173 1681.01 204.816 1681.43 205.12C1681.85 205.425 1682.51 205.12 1682.87 204.714C1683.22 204.308 1683.51 203.75 1684.02 203.53C1683.9 204.087 1683.9 204.665 1684.02 205.222C1684.09 205.504 1684.25 205.755 1684.48 205.94C1684.7 206.125 1684.98 206.235 1685.27 206.254C1685.56 206.205 1685.83 206.062 1686.03 205.848C1686.23 205.635 1686.36 205.361 1686.39 205.07C1686.44 204.496 1686.36 203.919 1686.17 203.378C1686.47 204.059 1686.96 204.644 1687.57 205.07C1687.88 205.253 1688.25 205.307 1688.6 205.222C1688.96 205.137 1689.26 204.918 1689.45 204.613C1689.76 203.818 1689.21 203.056 1688.76 202.481Z" fill="#7C2AE8"/>
<path d="M1686.98 198.403C1687.17 198.555 1686.49 199.384 1685.29 199.469C1684.09 199.554 1683.29 198.843 1683.44 198.657C1683.6 198.471 1684.32 198.657 1685.22 198.657C1686.12 198.657 1686.83 198.2 1686.98 198.403Z" fill="#263238"/>
<path d="M1714.76 154.528C1714.74 155.142 1714.64 155.751 1714.46 156.338C1714.09 157.946 1713.63 159.534 1713.09 161.093C1709.55 171.508 1703.45 180.868 1695.36 188.318C1694.15 189.443 1692.88 190.499 1691.55 191.482C1691.1 191.889 1690.59 192.231 1690.04 192.498C1689.94 192.379 1691.97 190.806 1694.93 187.861C1702.68 180.259 1708.68 171.054 1712.5 160.89C1713.97 156.998 1714.61 154.494 1714.76 154.528Z" fill="#F5F5F5"/>
<path d="M1714.75 140.788C1715.27 142.017 1715.52 143.345 1715.48 144.68C1715.71 145.99 1715.66 147.334 1715.32 148.623C1714.79 147.403 1714.54 146.078 1714.6 144.748C1714.36 143.433 1714.41 142.081 1714.75 140.788V140.788Z" fill="#F5F5F5"/>
<path d="M1567.69 117.472C1567.8 117.697 1567.89 117.929 1567.96 118.165L1568.67 120.23C1569.31 122.023 1570.14 124.731 1571.13 128.233C1573.82 138.177 1575.38 148.395 1575.78 158.69C1576.03 165.799 1575.61 172.915 1574.51 179.943C1574.19 181.838 1573.88 183.767 1573.43 185.696L1572.77 188.623L1571.95 191.55C1570.87 195.493 1569.37 199.435 1567.96 203.394C1565.1 211.483 1562.65 220.18 1559.01 228.775C1557.18 233.191 1554.98 237.447 1552.45 241.5C1549.77 245.61 1546.86 249.565 1543.73 253.344C1540.73 257.199 1537.94 261.215 1535.37 265.375C1532.78 269.436 1530.45 273.581 1528.2 277.659C1523.93 285.562 1520.07 293.677 1516.62 301.974C1513.45 309.451 1510.85 317.154 1508.82 325.02C1507.1 331.871 1506.05 338.877 1505.69 345.934C1505.3 351.81 1506.15 357.703 1508.2 363.226C1509.82 367.319 1512.31 371.008 1515.51 374.039C1516.67 375.143 1517.91 376.161 1519.21 377.084C1520.15 377.796 1521.13 378.446 1522.16 379.03L1524.02 380.13C1524.24 380.242 1524.45 380.378 1524.64 380.536C1524.41 380.451 1524.19 380.343 1523.98 380.215L1522.06 379.183C1521.01 378.627 1520.01 377.993 1519.06 377.287C1517.72 376.39 1516.45 375.382 1515.27 374.276C1511.99 371.254 1509.42 367.544 1507.74 363.413C1505.64 357.889 1504.73 351.985 1505.07 346.086C1505.38 338.975 1506.4 331.913 1508.11 325.003C1510.11 317.096 1512.71 309.353 1515.88 301.839C1519.3 293.503 1523.16 285.352 1527.44 277.422C1529.69 273.327 1532.02 269.148 1534.63 265.07C1537.22 260.886 1540.05 256.847 1543.09 252.972C1546.2 249.189 1549.09 245.235 1551.75 241.127C1554.26 237.113 1556.44 232.903 1558.27 228.538C1561.87 219.943 1564.36 211.246 1567.25 203.158C1568.67 199.097 1570.18 195.188 1571.26 191.313L1572.07 188.42L1572.73 185.509C1573.21 183.597 1573.51 181.685 1573.83 179.807C1574.96 172.827 1575.41 165.757 1575.2 158.69C1574.87 148.442 1573.4 138.263 1570.84 128.335C1569.91 124.815 1569.15 122.108 1568.55 120.28C1568.28 119.401 1568.08 118.707 1567.93 118.199C1567.83 117.964 1567.75 117.721 1567.69 117.472Z" fill="#263238"/>
<path d="M1573.56 147.049C1559.06 140.518 1546.32 126.27 1537.45 113.055C1528.59 99.8404 1524.81 82.8352 1529.23 67.5729C1533.65 52.3105 1547.33 39.5524 1563.17 38.131C1580.09 36.6251 1596.59 48.2834 1603.78 63.698C1610.97 79.1127 1607.17 100.365 1598.7 115.171C1589.18 131.905 1586.61 137.37 1573.58 147.049" fill="#00C4CC"/>
<path d="M1579.82 149.587C1577.58 147.788 1575.87 145.414 1574.86 142.717L1573.48 144.409C1571.79 146.101 1570.74 150.738 1570.43 153.09C1570.43 153.766 1570.43 154.629 1571.02 154.917C1571.62 155.205 1572.43 154.646 1572.72 154.003C1572.97 153.319 1573.37 152.696 1573.88 152.176C1573.87 152.94 1574.02 153.697 1574.34 154.393C1574.49 154.745 1574.76 155.036 1575.1 155.218C1575.43 155.399 1575.82 155.46 1576.2 155.391C1576.58 155.272 1576.9 155.026 1577.11 154.695C1577.32 154.365 1577.42 153.971 1577.37 153.58C1577.28 152.805 1577.02 152.059 1576.61 151.398C1577.19 152.154 1577.97 152.738 1578.86 153.09C1579.31 153.254 1579.8 153.234 1580.24 153.034C1580.67 152.835 1581.01 152.471 1581.18 152.024C1581.46 151.093 1580.65 150.247 1579.82 149.587Z" fill="#00C4CC"/>
<path d="M1576.47 144.799C1576.69 144.917 1576 146.084 1574.51 146.491C1573.02 146.897 1571.84 146.271 1571.95 146.051C1572.07 145.831 1573.07 146.051 1574.27 145.628C1575.47 145.205 1576.29 144.629 1576.47 144.799Z" fill="#263238"/>
<g opacity="0.3">
<path opacity="0.3" d="M1550.38 48.368C1534.8 58.5203 1530.3 75.5425 1535.66 93.3599C1537.35 99.0452 1540.41 104.595 1545.96 107.319C1547.43 108.049 1549.03 108.481 1550.67 108.588C1558.94 109.113 1562.94 101.939 1563.61 95.1873C1564.1 90.1111 1563.16 85.1703 1563.02 80.1449C1562.88 75.1194 1563.75 69.7387 1567.17 66.0669C1570.58 62.3952 1576.32 60.6354 1576.62 54.9501C1576.64 53.5878 1576.35 52.2395 1575.76 51.01C1575.17 49.7804 1574.31 48.7027 1573.24 47.8604C1571.6 46.5619 1569.7 45.6275 1567.67 45.1192C1562.44 43.8411 1556.92 44.6482 1552.28 47.3697L1550.38 48.368Z" fill="white"/>
</g>
<path d="M1600.96 80.6525C1601.04 81.4511 1601.04 82.2565 1600.96 83.0552C1600.87 85.2349 1600.68 87.4091 1600.38 89.5696C1599.99 92.8322 1599.4 96.0694 1598.64 99.2651C1597.66 103.114 1596.44 106.9 1595 110.602C1593.52 114.287 1591.83 117.88 1589.92 121.363C1588.33 124.191 1586.58 126.925 1584.68 129.553C1583.41 131.313 1582.06 133.007 1580.62 134.629C1580.11 135.245 1579.54 135.812 1578.93 136.321C1579.33 135.628 1579.79 134.971 1580.31 134.358C1581.26 133.157 1582.58 131.363 1584.14 129.096C1585.69 126.829 1587.42 124.02 1589.21 120.856C1591.11 117.397 1592.8 113.832 1594.29 110.179C1595.73 106.513 1596.95 102.767 1597.96 98.9606C1598.78 95.8499 1599.45 92.6984 1599.94 89.5189C1600.38 86.8116 1600.65 84.595 1600.79 83.0552C1600.77 82.2507 1600.82 81.4461 1600.96 80.6525Z" fill="white"/>
<path d="M1597.39 62.9028C1598.28 64.417 1598.92 66.0697 1599.26 67.7928C1599.86 69.4213 1600.19 71.1352 1600.25 72.869C1599.37 71.3531 1598.75 69.7 1598.42 67.979C1597.8 66.3553 1597.45 64.6401 1597.39 62.9028V62.9028Z" fill="white"/>
</g>
<path d="M1459.32 106.482C1472.33 103.521 1480.48 90.5723 1477.52 77.5603C1474.56 64.5483 1461.61 56.4004 1448.6 59.3614C1435.59 62.3225 1427.44 75.2711 1430.4 88.2831C1433.36 101.295 1446.31 109.443 1459.32 106.482Z" fill="white"/>
<path d="M1453.54 109.455C1448.11 109.479 1442.79 107.844 1438.31 104.768C1438.16 104.632 1438.06 104.443 1438.03 104.238C1438 104.032 1438.05 103.824 1438.17 103.653C1438.29 103.482 1438.46 103.36 1438.66 103.31C1438.86 103.26 1439.08 103.285 1439.26 103.38C1444.56 106.999 1451.05 108.459 1457.39 107.462C1463.73 106.465 1469.45 103.086 1473.39 98.0143C1477.33 92.9427 1479.18 86.5605 1478.57 80.1695C1477.96 73.7784 1474.94 67.8599 1470.12 63.6212C1465.3 59.3824 1459.04 57.1427 1452.62 57.3588C1446.21 57.5749 1440.12 60.2306 1435.59 64.7841C1431.07 69.3377 1428.45 75.4462 1428.27 81.8636C1428.09 88.2811 1430.37 94.5241 1434.64 99.3193C1434.72 99.3965 1434.78 99.4887 1434.83 99.5904C1434.87 99.6921 1434.89 99.8013 1434.89 99.9116C1434.89 100.022 1434.87 100.131 1434.83 100.233C1434.78 100.334 1434.72 100.427 1434.64 100.504C1434.56 100.583 1434.47 100.646 1434.37 100.689C1434.26 100.732 1434.15 100.754 1434.04 100.754C1433.93 100.754 1433.82 100.732 1433.72 100.689C1433.61 100.646 1433.52 100.583 1433.44 100.504C1429.33 95.9171 1426.92 90.0595 1426.61 83.909C1426.3 77.7586 1428.11 71.6877 1431.73 66.7101C1435.36 61.7325 1440.58 58.1495 1446.53 56.5595C1452.48 54.9695 1458.8 55.4688 1464.42 57.9738C1470.05 60.4789 1474.64 64.8382 1477.44 70.3237C1480.24 75.8092 1481.07 82.0889 1479.8 88.1141C1478.53 94.1393 1475.23 99.5453 1470.45 103.429C1465.67 107.313 1459.7 109.44 1453.54 109.455V109.455Z" fill="#183B56"/>
<path d="M1453.54 98.7102C1450.37 98.7138 1447.26 97.7797 1444.61 96.0249C1441.96 94.2701 1439.89 91.7727 1438.65 88.8455C1438.61 88.7423 1438.58 88.6313 1438.58 88.519C1438.58 88.4067 1438.6 88.2953 1438.65 88.1914C1438.69 88.0874 1438.75 87.993 1438.83 87.9135C1438.91 87.8341 1439.01 87.7713 1439.11 87.7288C1439.21 87.6847 1439.32 87.6616 1439.43 87.6608C1439.54 87.6601 1439.65 87.6816 1439.76 87.7243C1439.86 87.7669 1439.95 87.8297 1440.03 87.9089C1440.11 87.9882 1440.17 88.0823 1440.21 88.1856C1441.29 90.7407 1443.08 92.9314 1445.37 94.4968C1447.66 96.0621 1450.35 96.9361 1453.13 97.0145C1455.9 97.093 1458.64 96.3726 1461.01 94.9393C1463.39 93.5059 1465.3 91.42 1466.52 88.9301C1466.62 88.7308 1466.8 88.5798 1467.01 88.5101C1467.22 88.4403 1467.45 88.4575 1467.65 88.5578C1467.75 88.6063 1467.84 88.6745 1467.92 88.7583C1467.99 88.8421 1468.05 88.9398 1468.08 89.0456C1468.12 89.1514 1468.13 89.2632 1468.12 89.3741C1468.11 89.4851 1468.08 89.593 1468.03 89.6915C1466.7 92.4027 1464.64 94.6863 1462.08 96.2812C1459.52 97.8761 1456.56 98.7179 1453.54 98.7102V98.7102Z" fill="#183B56"/>
<path d="M1438.04 81.0113C1437.92 81.0133 1437.79 80.9852 1437.67 80.9294C1437.56 80.8735 1437.46 80.7915 1437.38 80.6898C1437.31 80.605 1437.26 80.5066 1437.22 80.4006C1437.19 80.2946 1437.18 80.183 1437.19 80.0725C1437.2 79.9621 1437.24 79.855 1437.29 79.7575C1437.34 79.6601 1437.41 79.5744 1437.5 79.5054C1437.5 79.5054 1443.49 74.7338 1449.74 78.4055C1449.93 78.5218 1450.07 78.709 1450.13 78.9272C1450.18 79.1454 1450.15 79.3772 1450.04 79.5731C1449.92 79.7635 1449.73 79.9 1449.51 79.9537C1449.3 80.0074 1449.07 79.974 1448.87 79.8607C1443.64 76.7812 1438.62 80.7744 1438.57 80.8252C1438.42 80.9435 1438.23 81.0089 1438.04 81.0113V81.0113Z" fill="#183B56"/>
<path d="M1458.18 81.0113C1458 81.0103 1457.83 80.9552 1457.69 80.8535C1457.55 80.7519 1457.44 80.6087 1457.38 80.4436C1457.33 80.2785 1457.32 80.0997 1457.37 79.9317C1457.42 79.7637 1457.52 79.6148 1457.65 79.5054C1457.65 79.5054 1463.64 74.7338 1469.87 78.4055C1469.98 78.4543 1470.08 78.5251 1470.15 78.6135C1470.23 78.7019 1470.29 78.8058 1470.33 78.9185C1470.36 79.0313 1470.38 79.1503 1470.36 79.268C1470.35 79.3857 1470.31 79.4994 1470.25 79.6017C1470.19 79.7041 1470.11 79.7928 1470.02 79.8621C1469.92 79.9315 1469.81 79.9799 1469.7 80.0043C1469.58 80.0287 1469.46 80.0286 1469.35 80.0038C1469.23 79.9791 1469.12 79.9303 1469.03 79.8607C1463.78 76.7812 1458.77 80.7744 1458.72 80.8252C1458.56 80.9416 1458.37 81.0066 1458.18 81.0113V81.0113Z" fill="#183B56"/>
<path d="M1437.01 74.5138C1436.9 74.5392 1436.78 74.5392 1436.67 74.5138C1436.47 74.4211 1436.31 74.2528 1436.23 74.0444C1436.14 73.836 1436.15 73.6039 1436.23 73.397C1436.23 73.397 1439.35 66.7134 1448.72 67.7794C1448.94 67.809 1449.15 67.9246 1449.28 68.1017C1449.42 68.2787 1449.49 68.5031 1449.46 68.7269C1449.45 68.8378 1449.42 68.945 1449.36 69.0421C1449.31 69.1393 1449.23 69.2243 1449.14 69.2923C1449.06 69.3602 1448.96 69.4096 1448.85 69.4375C1448.74 69.4653 1448.63 69.4711 1448.52 69.4545C1440.39 68.5239 1437.89 73.8539 1437.79 74.0907C1437.71 74.2238 1437.59 74.3331 1437.46 74.4074C1437.32 74.4817 1437.17 74.5184 1437.01 74.5138V74.5138Z" fill="#183B56"/>
<path d="M1471.5 73.2278C1471.37 73.2267 1471.25 73.2006 1471.14 73.1511C1471.03 73.1016 1470.93 73.0298 1470.85 72.9402C1469.72 71.4485 1468.16 70.3413 1466.37 69.7692C1464.59 69.197 1462.68 69.1876 1460.89 69.7422C1460.78 69.7862 1460.67 69.8093 1460.56 69.8101C1460.45 69.8108 1460.34 69.7893 1460.24 69.7466C1460.14 69.704 1460.04 69.6412 1459.97 69.562C1459.89 69.4827 1459.83 69.3886 1459.79 69.2853C1459.74 69.1767 1459.72 69.0605 1459.73 68.9437C1459.73 68.827 1459.76 68.7121 1459.81 68.6062C1459.86 68.5002 1459.93 68.4052 1460.01 68.3271C1460.1 68.249 1460.2 68.1893 1460.31 68.1516C1462.42 67.471 1464.69 67.455 1466.81 68.1057C1468.92 68.7564 1470.79 70.0424 1472.16 71.7896C1472.24 71.8655 1472.3 71.9573 1472.35 72.0591C1472.39 72.161 1472.41 72.2708 1472.41 72.3818C1472.41 72.4928 1472.39 72.6026 1472.35 72.7044C1472.3 72.8063 1472.24 72.8981 1472.16 72.974C1472.07 73.0654 1471.97 73.136 1471.86 73.1802C1471.74 73.2243 1471.62 73.2406 1471.5 73.2278Z" fill="#183B56"/>
<path d="M1339.9 202.857C1353.25 202.857 1364.07 192.039 1364.07 178.694C1364.07 165.349 1353.25 154.531 1339.9 154.531C1326.56 154.531 1315.74 165.349 1315.74 178.694C1315.74 192.039 1326.56 202.857 1339.9 202.857Z" fill="white"/>
<path d="M1339.9 205.598C1332.77 205.598 1325.93 202.763 1320.88 197.718C1315.83 192.672 1313 185.829 1313 178.694C1313 171.559 1315.83 164.716 1320.88 159.67C1325.93 154.625 1332.77 151.79 1339.9 151.79C1345.89 151.772 1351.71 153.768 1356.42 157.459C1356.59 157.598 1356.7 157.801 1356.73 158.023C1356.76 158.245 1356.69 158.468 1356.55 158.643C1356.49 158.733 1356.4 158.808 1356.31 158.864C1356.21 158.92 1356.1 158.957 1355.99 158.971C1355.88 158.985 1355.77 158.977 1355.66 158.947C1355.56 158.917 1355.46 158.865 1355.37 158.795C1350.96 155.337 1345.51 153.465 1339.9 153.482C1334.18 153.482 1328.62 155.432 1324.15 159.01C1319.68 162.588 1316.56 167.582 1315.31 173.169C1314.05 178.756 1314.73 184.604 1317.25 189.75C1319.76 194.897 1323.95 199.035 1329.12 201.484C1334.3 203.933 1340.15 204.547 1345.73 203.224C1351.3 201.902 1356.25 198.722 1359.78 194.208C1363.3 189.694 1365.18 184.115 1365.11 178.389C1365.04 172.663 1363.03 167.131 1359.4 162.704C1359.26 162.531 1359.19 162.309 1359.21 162.087C1359.23 161.866 1359.34 161.662 1359.51 161.52C1359.6 161.446 1359.7 161.39 1359.8 161.356C1359.91 161.321 1360.02 161.309 1360.13 161.321C1360.24 161.332 1360.35 161.366 1360.45 161.42C1360.55 161.475 1360.63 161.549 1360.7 161.638C1363.95 165.575 1366.01 170.355 1366.64 175.418C1367.27 180.482 1366.45 185.621 1364.26 190.235C1362.08 194.849 1358.63 198.746 1354.32 201.473C1350.01 204.199 1345.01 205.642 1339.9 205.632V205.598Z" fill="#183B56"/>
<path d="M1339.9 194.853C1336.73 194.858 1333.62 193.924 1330.98 192.169C1328.33 190.414 1326.26 187.916 1325.03 184.988C1324.99 184.886 1324.96 184.776 1324.96 184.665C1324.96 184.553 1324.98 184.442 1325.02 184.338C1325.06 184.235 1325.12 184.14 1325.2 184.06C1325.28 183.98 1325.37 183.916 1325.47 183.872C1325.68 183.787 1325.91 183.787 1326.12 183.872C1326.33 183.958 1326.5 184.122 1326.59 184.328C1327.67 186.88 1329.46 189.067 1331.74 190.63C1334.03 192.194 1336.72 193.068 1339.49 193.148C1342.26 193.228 1344.99 192.511 1347.37 191.083C1349.74 189.654 1351.66 187.574 1352.88 185.09C1352.98 184.888 1353.16 184.733 1353.37 184.661C1353.58 184.588 1353.81 184.602 1354.02 184.701C1354.22 184.799 1354.37 184.974 1354.44 185.187C1354.52 185.4 1354.5 185.632 1354.4 185.834C1353.08 188.549 1351.02 190.836 1348.45 192.431C1345.89 194.026 1342.92 194.866 1339.9 194.853V194.853Z" fill="#183B56"/>
<path d="M1330.68 180.42C1328.99 180.42 1327.62 178.22 1327.62 175.344C1327.62 172.467 1328.94 170.267 1330.68 170.267C1332.42 170.267 1333.74 172.467 1333.74 175.344C1333.74 178.22 1332.42 180.42 1330.68 180.42ZM1330.68 171.96C1330.14 171.96 1329.31 173.33 1329.31 175.344C1329.31 177.357 1330.14 178.728 1330.68 178.728C1331.22 178.728 1332.05 177.357 1332.05 175.344C1332.05 173.33 1331.22 171.892 1330.68 171.892V171.96Z" fill="#183B56"/>
<path d="M1348.45 180.42C1346.76 180.42 1345.37 178.22 1345.37 175.344C1345.37 172.467 1346.69 170.267 1348.45 170.267C1350.21 170.267 1351.51 172.467 1351.51 175.344C1351.51 178.22 1350.19 180.42 1348.45 180.42ZM1348.45 171.96C1347.89 171.96 1347.06 173.33 1347.06 175.344C1347.06 177.357 1347.89 178.728 1348.45 178.728C1349.01 178.728 1349.82 177.357 1349.82 175.344C1349.82 173.33 1348.99 171.892 1348.45 171.892V171.96Z" fill="#183B56"/>
<path d="M1740 235.832C1739.6 235.533 1739.23 235.199 1738.89 234.834C1737.88 233.801 1737.07 232.591 1736.5 231.264C1735.55 229.14 1735.16 226.811 1735.37 224.495C1735.58 221.42 1736.97 218.544 1739.24 216.458C1740.6 215.205 1742.21 214.239 1743.95 213.617C1745.69 212.995 1747.54 212.73 1749.39 212.837C1751.5 212.922 1753.54 213.642 1755.23 214.901C1756.11 215.557 1756.85 216.393 1757.38 217.355C1757.95 218.384 1758.15 219.58 1757.94 220.739C1757.64 221.894 1756.99 222.928 1756.08 223.7C1755.17 224.472 1754.05 224.945 1752.86 225.054C1750.44 225.2 1748.05 224.493 1746.09 223.057C1744.01 221.597 1742.35 219.612 1741.28 217.303C1740.21 214.994 1739.77 212.444 1740 209.91C1740.35 207.388 1741.36 205.005 1742.94 203.008C1744.51 201.011 1746.6 199.474 1748.97 198.556C1751.23 197.639 1753.71 197.415 1756.09 197.913C1757.26 198.175 1758.35 198.701 1759.27 199.453C1760.18 200.226 1760.82 201.252 1761.14 202.397C1761.47 203.521 1761.36 204.729 1760.85 205.781C1760.32 206.792 1759.45 207.583 1758.39 208.015C1757.42 208.411 1756.37 208.594 1755.31 208.55C1754.26 208.507 1753.23 208.237 1752.29 207.761C1750.53 206.886 1749.08 205.508 1748.11 203.802C1747.26 202.246 1746.83 200.496 1746.87 198.725C1746.99 195.638 1748.1 192.67 1750.04 190.265C1751.47 188.49 1753.19 186.959 1755.11 185.73C1756.71 184.655 1758.41 183.747 1760.19 183.023C1760.08 183.105 1759.97 183.173 1759.85 183.226L1758.87 183.751C1757.6 184.413 1756.38 185.147 1755.2 185.95C1753.33 187.2 1751.68 188.736 1750.29 190.502C1748.44 192.836 1747.39 195.7 1747.3 198.675C1747.26 200.378 1747.68 202.061 1748.51 203.548C1749.43 205.151 1750.81 206.442 1752.47 207.253C1753.34 207.693 1754.29 207.94 1755.27 207.978C1756.24 208.016 1757.21 207.844 1758.11 207.473C1759.03 207.087 1759.8 206.394 1760.27 205.51C1760.7 204.582 1760.78 203.528 1760.48 202.549C1760.19 201.528 1759.6 200.619 1758.78 199.944C1757.93 199.254 1756.93 198.773 1755.86 198.539C1753.59 198.065 1751.23 198.283 1749.09 199.165C1746.82 200.039 1744.84 201.505 1743.33 203.41C1741.83 205.315 1740.87 207.589 1740.54 209.994C1740.33 212.407 1740.75 214.835 1741.77 217.033C1742.79 219.231 1744.37 221.122 1746.35 222.516C1748.19 223.884 1750.45 224.555 1752.74 224.411C1753.81 224.345 1754.83 223.943 1755.66 223.263C1756.49 222.582 1757.08 221.657 1757.35 220.621C1757.54 219.614 1757.37 218.572 1756.87 217.676C1756.37 216.789 1755.7 216.012 1754.89 215.392C1753.3 214.217 1751.39 213.534 1749.41 213.429C1747.63 213.312 1745.85 213.551 1744.16 214.133C1742.48 214.714 1740.92 215.625 1739.6 216.813C1737.39 218.819 1736.03 221.58 1735.77 224.546C1735.55 226.783 1735.9 229.04 1736.77 231.111C1737.31 232.428 1738.07 233.642 1739.02 234.699C1739.68 235.477 1740.09 235.798 1740 235.832Z" fill="#183B56"/>
<path d="M1694.61 66.1863C1694.61 66.1863 1691.42 52.6498 1679.82 54.6633L1682.3 46C1682.3 46 1701.59 49.0796 1699.39 62.9544L1694.61 66.1863Z" fill="#183B56"/>
<path d="M1624.64 201.094C1626.65 201.094 1628.28 199.465 1628.28 197.456C1628.28 195.447 1626.65 193.818 1624.64 193.818C1622.63 193.818 1621 195.447 1621 197.456C1621 199.465 1622.63 201.094 1624.64 201.094Z" fill="#183B56"/>
<path d="M1771.07 115.188C1771.07 115.908 1770.86 116.611 1770.46 117.209C1770.06 117.808 1769.49 118.274 1768.82 118.549C1768.16 118.825 1767.43 118.897 1766.72 118.756C1766.02 118.616 1765.37 118.27 1764.86 117.761C1764.35 117.252 1764 116.604 1763.86 115.898C1763.72 115.192 1763.79 114.461 1764.07 113.796C1764.35 113.131 1764.81 112.563 1765.41 112.164C1766.01 111.764 1766.71 111.55 1767.43 111.55C1767.91 111.55 1768.38 111.645 1768.82 111.827C1769.26 112.01 1769.67 112.278 1770 112.616C1770.34 112.954 1770.61 113.355 1770.79 113.796C1770.97 114.238 1771.07 114.711 1771.07 115.188V115.188Z" fill="#183B56"/>
<path d="M1268.41 255.276C1267.92 255.404 1267.42 255.495 1266.92 255.547C1265.49 255.709 1264.03 255.6 1262.64 255.225C1260.4 254.674 1258.34 253.568 1256.65 252.01C1254.36 249.951 1252.94 247.094 1252.69 244.024C1252.54 242.172 1252.76 240.309 1253.34 238.545C1253.92 236.781 1254.85 235.151 1256.07 233.753C1257.42 232.136 1259.23 230.957 1261.25 230.369C1262.31 230.077 1263.43 230.014 1264.52 230.183C1265.68 230.376 1266.73 230.976 1267.49 231.875C1268.25 232.832 1268.67 234.002 1268.72 235.218C1268.76 236.433 1268.43 237.632 1267.75 238.643C1266.37 240.65 1264.33 242.106 1261.98 242.755C1259.54 243.505 1256.96 243.598 1254.47 243.025C1251.99 242.451 1249.71 241.231 1247.85 239.489C1246.08 237.663 1244.84 235.398 1244.24 232.928C1243.65 230.459 1243.73 227.875 1244.47 225.445C1245.13 223.099 1246.47 221.003 1248.32 219.421C1249.25 218.665 1250.34 218.132 1251.5 217.864C1252.64 217.631 1253.82 217.749 1254.89 218.203C1256 218.618 1256.91 219.441 1257.44 220.504C1257.94 221.562 1258.03 222.767 1257.7 223.888C1257.41 224.906 1256.91 225.85 1256.23 226.657C1255.55 227.463 1254.7 228.111 1253.74 228.558C1251.98 229.413 1250 229.714 1248.07 229.421C1246.3 229.138 1244.63 228.385 1243.25 227.238C1240.9 225.262 1239.26 222.579 1238.56 219.59C1238.04 217.374 1237.88 215.089 1238.09 212.822C1238.23 210.892 1238.57 208.981 1239.1 207.12C1239.12 207.243 1239.12 207.369 1239.1 207.492L1238.92 208.592C1238.66 209.996 1238.49 211.414 1238.41 212.839C1238.23 215.11 1238.42 217.395 1238.97 219.607C1239.69 222.494 1241.3 225.077 1243.59 226.985C1244.91 228.056 1246.5 228.757 1248.19 229.015C1250.02 229.275 1251.89 228.974 1253.55 228.152C1254.43 227.735 1255.21 227.134 1255.83 226.389C1256.46 225.645 1256.91 224.774 1257.17 223.837C1257.44 222.877 1257.36 221.853 1256.95 220.944C1256.49 220.031 1255.71 219.321 1254.75 218.947C1253.77 218.548 1252.7 218.448 1251.66 218.66C1250.59 218.911 1249.6 219.41 1248.76 220.115C1247.01 221.612 1245.74 223.597 1245.13 225.817C1244.43 228.139 1244.36 230.606 1244.94 232.961C1245.52 235.315 1246.73 237.47 1248.43 239.201C1250.2 240.871 1252.39 242.04 1254.77 242.587C1257.15 243.134 1259.63 243.04 1261.96 242.315C1264.17 241.698 1266.1 240.32 1267.39 238.423C1267.98 237.534 1268.28 236.484 1268.25 235.418C1268.22 234.352 1267.86 233.321 1267.22 232.467C1266.54 231.706 1265.61 231.199 1264.6 231.029C1263.59 230.873 1262.56 230.931 1261.57 231.198C1259.67 231.735 1257.96 232.817 1256.67 234.311C1255.47 235.644 1254.56 237.202 1253.98 238.893C1253.4 240.584 1253.16 242.375 1253.28 244.159C1253.5 247.128 1254.84 249.904 1257.02 251.926C1258.66 253.463 1260.66 254.578 1262.82 255.174C1264.19 255.556 1265.62 255.699 1267.04 255.597C1267.88 255.344 1268.39 255.225 1268.41 255.276Z" fill="#183B56"/>
<path d="M1413.47 27C1413.93 27.1848 1414.37 27.4173 1414.79 27.6937C1416.01 28.4694 1417.07 29.4615 1417.94 30.621C1419.33 32.4519 1420.25 34.6049 1420.59 36.8816C1421.09 39.9239 1420.41 43.0414 1418.68 45.5957C1417.65 47.1457 1416.31 48.4719 1414.76 49.4953C1413.2 50.5186 1411.46 51.218 1409.63 51.5518C1407.57 51.9434 1405.45 51.7197 1403.52 50.9088C1402.51 50.4649 1401.6 49.8201 1400.85 49.0137C1400.06 48.1235 1399.61 46.9859 1399.58 45.7988C1399.61 44.5993 1400.01 43.4388 1400.73 42.4778C1401.44 41.5168 1402.44 40.803 1403.59 40.435C1405.93 39.6993 1408.45 39.8192 1410.71 40.7734C1413.07 41.7106 1415.15 43.2558 1416.72 45.2526C1418.3 47.2493 1419.32 49.6267 1419.68 52.144C1419.93 54.6776 1419.5 57.2329 1418.43 59.5427C1417.36 61.8525 1415.68 63.8321 1413.59 65.2744C1411.61 66.6904 1409.25 67.4855 1406.82 67.5587C1405.65 67.5638 1404.49 67.3035 1403.43 66.7972C1402.37 66.2616 1401.49 65.4108 1400.93 64.3607C1400.35 63.3619 1400.16 62.179 1400.41 61.0492C1400.66 59.9194 1401.33 58.9264 1402.28 58.2693C1403.14 57.6542 1404.12 57.2315 1405.16 57.03C1406.2 56.8286 1407.26 56.853 1408.29 57.1017C1410.15 57.5798 1411.82 58.5916 1413.11 60.0121C1414.32 61.3454 1415.15 62.9744 1415.52 64.7329C1416.11 67.7443 1415.71 70.8666 1414.38 73.6332C1413.4 75.6925 1412.09 77.5785 1410.51 79.217C1409.19 80.6347 1407.73 81.9159 1406.16 83.041C1406.16 83.041 1406.16 82.9395 1406.43 82.7703L1407.26 82.0258C1408.33 81.0912 1409.36 80.097 1410.32 79.0478C1411.84 77.3904 1413.1 75.5067 1414.04 73.464C1415.29 70.769 1415.65 67.7457 1415.06 64.8345C1414.69 63.1665 1413.89 61.625 1412.74 60.3674C1411.48 59.0106 1409.84 58.0619 1408.04 57.6432C1407.09 57.4178 1406.1 57.3994 1405.15 57.5892C1404.2 57.779 1403.29 58.1726 1402.5 58.743C1401.66 59.3122 1401.07 60.1828 1400.86 61.1748C1400.64 62.1668 1400.81 63.2044 1401.34 64.073C1401.85 65.0023 1402.62 65.7568 1403.57 66.2389C1404.56 66.7095 1405.64 66.9414 1406.73 66.9157C1409.03 66.8362 1411.25 66.0829 1413.11 64.7499C1415.11 63.3751 1416.71 61.4874 1417.73 59.2844C1418.75 57.0815 1419.16 54.6444 1418.92 52.2286C1418.57 49.8384 1417.61 47.5804 1416.11 45.6802C1414.62 43.78 1412.66 42.304 1410.42 41.3994C1408.28 40.4721 1405.88 40.346 1403.65 41.0441C1402.64 41.3688 1401.75 42.0003 1401.11 42.8517C1400.46 43.7032 1400.1 44.7327 1400.07 45.7988C1400.12 46.8242 1400.52 47.7999 1401.22 48.5568C1401.91 49.286 1402.74 49.8624 1403.67 50.2489C1405.49 51.0295 1407.51 51.2532 1409.46 50.8919C1411.22 50.5884 1412.89 49.9366 1414.4 48.9748C1415.9 48.013 1417.19 46.7606 1418.21 45.2912C1419.9 42.8166 1420.59 39.7934 1420.13 36.8309C1419.83 34.609 1418.97 32.4984 1417.65 30.6887C1416.86 29.5961 1415.9 28.6412 1414.8 27.863C1413.91 27.2538 1413.45 27.0338 1413.47 27Z" fill="#183B56"/>
<path d="M1322.86 80.8414C1322.86 80.8414 1319.68 67.3049 1308.09 69.3184L1310.56 60.6551C1310.56 60.6551 1329.85 63.8023 1327.63 77.5757L1322.86 80.8414Z" fill="#183B56"/>
<path d="M1436.31 231.316C1436.31 232.036 1436.1 232.739 1435.7 233.337C1435.3 233.936 1434.73 234.402 1434.07 234.677C1433.4 234.953 1432.67 235.025 1431.96 234.884C1431.26 234.744 1430.61 234.397 1430.1 233.889C1429.59 233.38 1429.25 232.732 1429.11 232.026C1428.96 231.32 1429.04 230.589 1429.31 229.924C1429.59 229.259 1430.05 228.691 1430.65 228.291C1431.25 227.892 1431.95 227.678 1432.67 227.678C1433.15 227.678 1433.62 227.772 1434.07 227.955C1434.51 228.138 1434.91 228.406 1435.25 228.744C1435.58 229.082 1435.85 229.483 1436.03 229.924C1436.22 230.365 1436.31 230.838 1436.31 231.316V231.316Z" fill="#183B56"/>
<path d="M1314.97 148.862C1314.98 149.586 1314.77 150.294 1314.37 150.897C1313.97 151.501 1313.4 151.972 1312.73 152.251C1312.06 152.53 1311.33 152.605 1310.62 152.466C1309.91 152.327 1309.25 151.98 1308.74 151.469C1308.23 150.959 1307.88 150.308 1307.74 149.598C1307.59 148.889 1307.66 148.153 1307.94 147.484C1308.22 146.816 1308.69 146.244 1309.29 145.841C1309.89 145.439 1310.6 145.224 1311.32 145.224C1312.29 145.224 1313.21 145.607 1313.9 146.289C1314.58 146.971 1314.97 147.896 1314.97 148.862V148.862Z" fill="#183B56"/>
</svg>
