<svg width="116" height="74" viewBox="0 0 116 74" fill="none" xmlns="http://www.w3.org/2000/svg">
<path d="M20.7921 73.3575H0.0829344C-0.0779807 72.3865 -0.0040259 71.3911 0.29864 70.4545C1.67309 65.456 3.09072 60.4759 4.49599 55.4835C4.9151 55.7424 5.31573 56.0321 5.72868 56.2478C7.95985 57.3264 10.2773 58.405 12.7796 57.8626C16.299 57.0983 19.4916 55.6684 21.4085 52.3155C24.0156 47.773 23.5287 42.7128 20.2251 38.91C17.9692 36.309 15.0416 35.1072 11.664 34.8914C13.0012 30.8789 14.947 27.0956 17.4331 23.6739C18.3809 22.4129 19.4941 21.2851 20.7428 20.321C21.9755 19.3164 22.3268 19.2733 23.5842 20.1793C25.0541 21.3476 26.7251 22.2374 28.5149 22.8049C30.025 23.2117 31.5104 23.7849 33.119 23.6739C33.4652 23.6555 33.7935 23.5146 34.0453 23.2763C34.2971 23.0381 34.4559 22.7181 34.4935 22.3735C34.5314 22.0269 34.4416 21.6785 34.2407 21.3936C34.0398 21.1087 33.7417 20.907 33.4025 20.8264C32.3547 20.5922 31.27 20.4751 30.2284 20.2101C27.8277 19.617 25.6608 18.3157 24.0094 16.475C20.5764 12.5921 20.7798 6.39163 26.3145 3.53179C28.9032 2.182 28.5704 2.08954 30.5366 4.0865L30.7523 4.2899C38.5121 11.4087 47.5107 15.8032 58.0933 16.8387C64.6739 17.4599 71.3066 16.4655 77.4157 13.9419C80.6269 12.6599 83.5237 10.817 86.4452 9.01109C91.0308 8.65977 93.225 6.63818 93.4962 2.45936C94.0077 1.7444 94.4885 1.00478 95.0247 0.314469C95.1441 0.155846 95.319 0.0480699 95.5143 0.0126544C95.7097 -0.0227611 95.9112 0.0167895 96.0787 0.123404C98.5206 1.24718 100.486 3.19922 101.626 5.63353C102.385 7.25203 102.499 9.09861 101.946 10.7985C101.242 13.2806 99.6519 15.4184 97.4778 16.8079C96.7382 17.2763 95.9184 17.6153 95.1418 18.0406C94.1618 18.5768 93.829 19.415 94.2604 20.1978C94.4751 20.533 94.8104 20.7729 95.1969 20.8681C95.5834 20.9633 95.9917 20.9065 96.3375 20.7093C96.8692 20.4588 97.3876 20.1811 97.8907 19.8773C98.92 19.2979 99.9555 18.737 100.972 18.1268C101.09 18.038 101.225 17.9755 101.369 17.9436C101.513 17.9118 101.662 17.9114 101.805 17.9424C101.949 17.9734 102.085 18.0351 102.203 18.1233C102.321 18.2115 102.418 18.3242 102.489 18.4535C104.118 20.5507 105.461 22.8556 106.483 25.3073C109.384 32.3923 111.334 39.8306 112.282 47.4279C108.782 49.3755 107.352 52.5066 108.184 56.2231C108.923 59.4836 110.649 61.7271 114.144 62.2756C114.329 63.2125 114.594 64.1247 114.692 65.0862C114.97 67.8597 115.173 70.6333 115.413 73.4068H102.994C102.482 71.7858 102.581 70.1032 102.507 68.4391C102.174 60.1772 101.332 51.9436 99.9863 43.7853C99.5336 40.5722 98.7444 37.4156 97.6319 34.3675C97.3559 33.6376 96.9916 32.9442 96.5471 32.3028C96.3598 32.0702 96.0972 31.9104 95.8047 31.8507C95.5121 31.7911 95.208 31.8354 94.9446 31.9761C94.6591 32.0636 94.4172 32.2558 94.2675 32.5141C94.1177 32.7725 94.0712 33.0778 94.1372 33.3691C94.2362 33.8467 94.3764 34.3148 94.5563 34.7682C95.0186 36.2659 95.5301 37.7513 95.9369 39.2675C97.6504 45.659 98.2358 52.2107 98.8029 58.7871C99.1912 63.194 99.4193 67.6132 99.7644 72.0262C99.8014 72.5255 99.8815 73.0062 99.4439 73.3822H71.6406C71.6083 72.4999 71.725 71.6185 71.9858 70.775C73.1692 66.6085 70.4449 59.9212 66.6297 57.9982C65.3244 57.3216 63.9391 56.8122 62.5064 56.482C58.759 55.6808 55.1841 56.3156 52.2688 58.8611C48.5708 62.0846 47.1286 66.1956 48.3119 71.0524C48.5007 71.8143 48.5897 72.5974 48.5769 73.3822H31.4241C30.9988 72.7658 31.233 72.0509 31.2762 71.3852C31.687 65.0163 32.1164 58.6474 32.5643 52.2785C32.9053 47.2861 33.2423 42.2917 33.5751 37.2952C33.6438 36.5144 33.6664 35.7303 33.6429 34.9469C33.6023 34.6042 33.4412 34.287 33.1882 34.0522C32.9353 33.8173 32.6071 33.68 32.2623 33.6649C31.9157 33.6337 31.5708 33.7395 31.3012 33.9595C31.0316 34.1795 30.8589 34.4963 30.8201 34.8421C30.6228 36.4015 30.4502 37.9608 30.3455 39.5263C29.8586 46.6759 29.4148 53.8317 28.9278 60.9813C28.8231 62.5407 28.5827 64.1 28.404 65.6532C27.5224 65.2453 26.5583 65.047 25.5873 65.0738C22.7583 64.8458 19.4238 68.3405 20.4901 71.6687C20.6342 72.223 20.7352 72.7876 20.7921 73.3575ZM91.7766 22.8912C92.1341 17.9296 87.6224 14.8787 84.0785 14.9342C80.5345 14.9896 76.3865 18.2933 76.2879 22.6631C76.1954 26.7495 79.9366 30.7434 83.986 30.7866C87.4005 30.8174 92.0971 27.8281 91.7643 22.8912H91.7766ZM90.0015 50.0104C90.0502 49.0538 89.9031 48.0974 89.5693 47.1996C89.2355 46.3019 88.7219 45.4817 88.0601 44.7893C87.3983 44.0969 86.6021 43.5469 85.7204 43.1729C84.8386 42.7989 83.8898 42.6088 82.932 42.6142C78.71 42.6142 75.2216 45.8624 75.277 49.8686C75.2803 51.8029 76.0313 53.6611 77.373 55.0545C78.7147 56.4478 80.5431 57.2685 82.4759 57.3449C86.6979 57.5175 90.4391 53.5975 89.9892 50.0227L90.0015 50.0104ZM51.7881 33.6834C48.2318 33.6834 46.0869 35.9947 46.1424 39.6743C46.1917 43.0087 48.6078 45.5788 51.8436 45.511C52.6569 45.5223 53.464 45.3686 54.2163 45.0593C54.9686 44.75 55.6504 44.2915 56.2206 43.7115C56.7908 43.1315 57.2377 42.442 57.5341 41.6845C57.8305 40.9271 57.9705 40.1175 57.9454 39.3045C57.9589 38.5171 57.8045 37.7359 57.4926 37.0128C57.1808 36.2898 56.7185 35.6414 56.1366 35.1108C55.5547 34.5802 54.8666 34.1796 54.1179 33.9356C53.3692 33.6916 52.5771 33.6099 51.7943 33.6957L51.7881 33.6834ZM60.9655 22.8912C60.8176 25.5538 62.6173 27.1686 64.7252 27.2056C66.642 27.2672 68.8362 25.8866 68.713 22.7864C68.7237 22.273 68.6287 21.7628 68.4337 21.2877C68.2388 20.8126 67.9481 20.3827 67.5798 20.0248C67.2115 19.6669 66.7734 19.3886 66.2929 19.2074C65.8124 19.0261 65.2998 18.9457 64.7868 18.9712C64.2711 18.9538 63.7574 19.0446 63.2788 19.2376C62.8003 19.4306 62.3674 19.7217 62.008 20.0921C61.6487 20.4625 61.3708 20.9039 61.1924 21.3881C61.0139 21.8723 60.9386 22.3885 60.9716 22.9035L60.9655 22.8912Z" fill="#AF8C5C"/>
<path d="M48.577 73.3575C48.5898 72.5727 48.5008 71.7896 48.312 71.0278C47.1287 66.171 48.5832 62.0599 52.2689 58.8364C55.1842 56.2909 58.7591 55.6561 62.5065 56.4574C63.9392 56.7876 65.3245 57.297 66.6298 57.9736C70.445 59.8966 73.1693 66.6024 71.9859 70.7504C71.7251 71.5939 71.6084 72.4753 71.6407 73.3575H48.577Z" fill="#BEE4F7"/>
<path d="M28.403 65.6348C28.6311 68.2357 28.0764 70.7874 27.8791 73.3576H20.7912C20.7392 72.7818 20.6424 72.211 20.5015 71.6503C19.4414 68.322 22.7697 64.8273 25.5987 65.0554C26.5656 65.0304 27.5252 65.2287 28.403 65.6348Z" fill="#F4BFD8"/>
<path d="M4.49512 55.4836C6.27019 49.4126 8.33489 43.434 10.4428 37.474C10.8027 36.5837 11.2143 35.7153 11.6755 34.873C15.053 35.0887 17.9807 36.2906 20.2365 38.8916C23.5401 42.6944 24.0271 47.7546 21.4199 52.2971C19.4846 55.6685 16.2919 57.0984 12.7911 57.8442C10.2887 58.3866 7.97124 57.308 5.74007 56.2294C5.31479 56.0321 4.91423 55.7424 4.49512 55.4836Z" fill="#C1C0E1"/>
<path d="M91.7639 22.8912C92.0967 27.822 87.4001 30.8174 83.9733 30.7866C79.9239 30.7435 76.1827 26.7496 76.2751 22.6632C76.3737 18.2933 80.4478 14.9712 84.0657 14.9342C87.6837 14.8972 92.1214 17.9297 91.7639 22.8912Z" fill="#F4BFD8"/>
<path d="M89.9888 50.0228C90.4079 53.5976 86.6976 57.5175 82.4633 57.3573C80.5305 57.2809 78.702 56.4602 77.3603 55.0669C76.0186 53.6735 75.2676 51.8153 75.2643 49.881C75.2089 45.8748 78.6974 42.639 82.9194 42.6266C83.8771 42.6212 84.8259 42.8113 85.7077 43.1853C86.5894 43.5593 87.3856 44.1093 88.0474 44.8017C88.7092 45.4941 89.2228 46.3143 89.5566 47.212C89.8904 48.1098 90.0375 49.0662 89.9888 50.0228Z" fill="#FCE580"/>
<path d="M51.7942 33.6958C52.579 33.6079 53.3734 33.6886 54.1245 33.9324C54.8756 34.1763 55.566 34.5777 56.1495 35.1098C56.7329 35.642 57.196 36.2925 57.5079 37.0181C57.8197 37.7436 57.9731 38.5273 57.9576 39.3168C57.9827 40.1298 57.8427 40.9395 57.5463 41.6969C57.2499 42.4543 56.803 43.1439 56.2328 43.7239C55.6626 44.3039 54.9808 44.7624 54.2285 45.0717C53.4762 45.381 52.6691 45.5346 51.8558 45.5234C48.6385 45.5912 46.2039 43.0211 46.1546 39.6866C46.093 36.0071 48.2379 33.7266 51.7942 33.6958Z" fill="#BADBBA"/>
<path d="M112.269 47.3786C112.886 51.8409 113.502 56.3033 114.118 60.7656C114.155 61.2518 114.155 61.7401 114.118 62.2264C110.642 61.6778 108.898 59.4343 108.158 56.1739C107.326 52.4573 108.769 49.3262 112.269 47.3786Z" fill="#FAC697"/>
<path d="M60.9713 22.9035C60.9436 22.391 61.023 21.8783 61.2043 21.3981C61.3855 20.9179 61.6648 20.4807 62.0242 20.1143C62.3836 19.7479 62.8154 19.4604 63.292 19.2699C63.7687 19.0795 64.2797 18.9904 64.7927 19.0082C65.3056 18.9827 65.8183 19.0631 66.2988 19.2444C66.7793 19.4256 67.2174 19.7039 67.5857 20.0618C67.954 20.4197 68.2447 20.8496 68.4396 21.3247C68.6346 21.7998 68.7296 22.31 68.7188 22.8234C68.8421 25.9051 66.6479 27.3042 64.7311 27.2426C62.6232 27.181 60.8542 25.5662 60.9713 22.9035Z" fill="#BEE4F7"/>
</svg>
