<svg width="95" height="46" viewBox="0 0 95 46" fill="none" xmlns="http://www.w3.org/2000/svg">
<path d="M35.9115 45.301H0.0972004C0.0766352 45.0302 0.0697755 44.756 0.0389277 44.4818C-0.13845 42.8305 0.294338 41.1713 1.25571 39.817C1.86401 38.9065 2.61113 38.097 3.4699 37.4177C4.72303 36.4395 6.11658 35.6561 7.60351 35.0938C12.1073 33.3218 16.6796 33.38 21.2828 34.6482C22.0711 34.8642 22.8457 35.135 23.6306 35.368C23.9954 35.4825 24.3676 35.5718 24.7446 35.6354C24.9366 35.6532 25.1291 35.6057 25.2908 35.5006C25.4525 35.3955 25.5741 35.2389 25.6357 35.0561C25.6847 34.8986 25.6773 34.7289 25.6148 34.5763C25.5522 34.4237 25.4384 34.2976 25.293 34.2198C25.0687 34.0631 24.8243 33.9374 24.5664 33.8462C20.2203 32.2901 15.7782 31.6217 11.199 32.4752C9.96507 32.698 8.74828 33.0099 7.52123 33.2875C6.79802 33.452 6.79118 33.4589 6.44843 32.9448C5.75374 31.895 5.21027 30.7527 4.83405 29.5515C4.22285 27.7163 4.27989 25.7241 4.99514 23.9269C6.09574 20.9699 8.25531 18.5269 11.055 17.0719C12.3255 16.4391 13.6656 15.9571 15.0481 15.6357C16.2991 15.317 17.3857 15.3855 18.4756 16.1533C19.0776 16.5276 19.725 16.8237 20.4019 17.0342C20.5858 17.1001 20.7877 17.0949 20.9679 17.0194C21.148 16.9439 21.2934 16.8036 21.3753 16.6263C21.4225 16.5422 21.4521 16.4495 21.4622 16.3536C21.4723 16.2578 21.4628 16.1609 21.4343 16.0688C21.4058 15.9768 21.3588 15.8915 21.2962 15.8182C21.2336 15.7449 21.1567 15.6852 21.0703 15.6426C20.5596 15.3306 20.0215 15.0633 19.4868 14.7925C18.252 14.173 17.2488 13.1733 16.6248 11.9408C15.8559 10.5091 15.5338 8.8798 15.7 7.26322C15.8662 5.64664 16.513 4.11697 17.5571 2.87159C18.8767 1.29835 20.5561 0.513441 22.6229 0.770506C23.1086 0.849268 23.6066 0.753317 24.0282 0.499718C24.2647 0.362617 24.4841 0.194675 24.7137 0.0575736C24.7599 0.0291539 24.8114 0.0107172 24.8651 0.00347452C24.9188 -0.00376814 24.9734 0.00034222 25.0255 0.0155244C25.0775 0.0307067 25.1257 0.05664 25.1671 0.0916314C25.2084 0.126623 25.242 0.169886 25.2656 0.218658C25.5363 0.629962 25.7831 1.05842 26.0436 1.47658C27.676 4.14553 29.8094 6.47335 32.3263 8.33164C36.9437 11.826 42.5598 13.7481 48.35 13.8157C49.5531 13.8363 50.787 13.9597 51.9558 13.7506C53.3748 13.4935 54.355 14.0933 55.3456 14.8919C55.5581 15.0667 55.7638 15.2347 55.9591 15.4369C56.5209 15.9642 56.9682 16.6015 57.273 17.3091C57.5779 18.0167 57.7338 18.7795 57.7312 19.55C57.7299 21.1436 57.3027 22.708 56.4938 24.0812C56.3211 24.422 56.0623 24.7117 55.743 24.9215C55.4238 25.1314 55.0551 25.254 54.6738 25.2774C51.192 25.6965 47.6804 25.8111 44.1787 25.6201C43.4692 25.5756 42.7734 25.4007 42.0673 25.3288C41.9466 25.3047 41.8222 25.306 41.702 25.3324C41.5818 25.3589 41.4684 25.4099 41.3689 25.4824C41.2694 25.5548 41.1859 25.6471 41.1239 25.7534C41.0618 25.8597 41.0224 25.9777 41.0082 26.1C41.0314 26.3171 41.1285 26.5197 41.2833 26.6738C41.438 26.828 41.641 26.9242 41.8583 26.9466H42.0228C45.8316 27.42 49.6825 27.45 53.4982 27.0357C54.7424 26.8883 54.8041 26.9569 54.5778 28.2353C54.547 28.3964 54.4921 28.5506 54.4682 28.7152C54.3139 29.7948 54.1048 30.8745 54.0363 31.9645C53.954 33.2361 54.6018 34.1718 55.7226 34.7339C56.256 35.0297 56.8694 35.1488 57.4747 35.0743C58.08 34.9998 58.6462 34.7355 59.0919 34.3192C60.031 33.5172 60.4629 32.4786 60.0893 31.2344C59.7808 30.1856 59.4038 29.1539 59.1125 28.1051C58.9479 27.5464 58.6257 27.0185 58.6806 26.3365C59.983 26.0623 61.2684 25.8189 62.54 25.5104C64.7793 25.0179 66.9711 24.3298 69.09 23.4539C69.3046 23.3268 69.555 23.2737 69.8027 23.3028C70.0504 23.3319 70.2817 23.4416 70.461 23.615C74.8174 27.4196 76.8739 32.1838 75.9622 38.0415C75.8423 38.823 75.9142 39.3954 76.4626 39.9746C77.859 41.3911 78.709 43.2561 78.8619 45.2393C78.0976 45.2393 77.3332 45.2907 76.5689 45.2907H37.5807C37.616 44.3638 37.5551 43.4357 37.399 42.5213C36.9715 40.7693 36.1667 39.1316 35.0409 37.7227C34.585 37.1195 34.1223 36.5231 33.6699 35.9507C33.9578 35.3783 34.2183 34.8984 34.4445 34.4015C35.6921 31.6766 36.0452 28.8489 35.2397 25.9423C34.8337 24.3773 34.1156 22.9104 33.1284 21.6299C32.1412 20.3494 30.9054 19.2817 29.4952 18.4909C29.1707 18.3042 28.8256 18.1558 28.4669 18.0487C28.2797 18.0016 28.0818 18.0239 27.9097 18.1115C27.7377 18.1991 27.6032 18.346 27.5312 18.5251C27.4643 18.6766 27.4545 18.8472 27.5037 19.0054C27.5528 19.1635 27.6576 19.2985 27.7985 19.3854C28.0567 19.5857 28.3346 19.7592 28.628 19.903C29.3045 20.2623 29.9313 20.7082 30.4926 21.2295C34.0915 24.5096 35.01 29.4967 32.8198 33.949C32.5319 34.5351 32.1926 35.0972 31.8567 35.6628C31.7457 35.8211 31.695 36.0138 31.7139 36.2062C31.7328 36.3986 31.8199 36.5779 31.9596 36.7116C32.4291 37.2429 32.9295 37.7399 33.3785 38.2986C34.4959 39.6696 35.4693 41.1023 35.6853 42.9154C35.6651 42.9505 35.6522 42.9893 35.6475 43.0296C35.6428 43.0698 35.6463 43.1105 35.6579 43.1493C35.6694 43.1881 35.6887 43.2242 35.7147 43.2553C35.7406 43.2864 35.7726 43.3118 35.8087 43.3302C35.9938 43.9677 35.8909 44.6361 35.9115 45.301Z" fill="#FF00CF"/>
<path d="M80.6447 45.301C80.4981 43.2662 79.7165 41.3289 78.4099 39.7621C78.1351 39.4314 77.9309 39.0479 77.8101 38.6353C77.6892 38.2226 77.6543 37.7895 77.7073 37.3628C77.9431 35.1798 77.7734 32.9719 77.2069 30.8505C76.1786 27.1865 74.0056 24.3108 71.1059 21.9184C70.8126 21.6332 70.4339 21.452 70.0278 21.4025C69.6218 21.3529 69.2106 21.4378 68.8574 21.6442C65.6321 23.1968 62.1429 23.8824 58.6639 24.5713C58.5464 24.5622 58.4309 24.5357 58.3212 24.4924C58.2355 23.9886 58.5817 23.591 58.7462 23.166C59.318 21.6794 59.5135 20.0746 59.3152 18.4943C59.1388 16.9543 58.441 15.5211 57.3375 14.4326C56.9604 14.0419 56.5457 13.6854 56.0898 13.257C56.3808 13.027 56.7229 12.8706 57.0873 12.8011C62.8346 11.1718 67.7726 7.46736 70.9448 2.40541C71.0956 2.17577 71.2327 1.93927 71.3938 1.71991C71.7057 1.29489 71.8291 1.26405 72.3569 1.49027C74.9961 2.61107 76.5111 4.65389 77.0218 7.40963C77.5188 10.09 76.9121 12.5132 74.9276 14.5012C74.7689 14.6506 74.6222 14.8121 74.4888 14.9845C74.3739 15.1396 74.3177 15.3305 74.3302 15.5232C74.3428 15.7158 74.4233 15.8978 74.5574 16.0367C74.6159 16.1149 74.6905 16.1796 74.7761 16.2266C74.8617 16.2736 74.9563 16.3018 75.0537 16.3093C75.151 16.3167 75.2488 16.3033 75.3406 16.2699C75.4323 16.2365 75.5159 16.1839 75.5857 16.1155C75.8115 15.9607 76.0195 15.7814 76.206 15.5809C76.6516 15.0599 77.2103 14.9947 77.8444 15.0873C80.9454 15.5192 83.7688 17.1063 85.7498 19.5308C87.7307 21.9553 88.723 25.0385 88.528 28.1633C88.4383 29.4216 88.103 30.6501 87.5409 31.7794C87.4595 32.011 87.2958 32.2047 87.0809 32.3235C86.866 32.4423 86.615 32.478 86.3755 32.4238C84.9015 32.2613 83.4098 32.4013 81.9917 32.8351C81.6301 32.9418 81.2843 33.0962 80.9635 33.2943C80.8464 33.3693 80.7574 33.4809 80.7103 33.6117C80.6632 33.7425 80.6606 33.8852 80.703 34.0176C80.7289 34.1834 80.8147 34.334 80.9442 34.4407C81.0737 34.5475 81.2379 34.603 81.4056 34.5968C81.892 34.5442 82.3735 34.4525 82.8452 34.3226C84.6568 33.8612 86.5607 33.9098 88.3463 34.4631C90.0514 35.0091 91.537 36.0866 92.5855 37.5378C93.634 38.9891 94.1904 40.7378 94.1732 42.5281C94.1423 43.4604 94.0806 44.3858 94.0361 45.3181L80.6447 45.301Z" fill="#FF00CF"/>
</svg>
