<svg width="79" height="100" viewBox="0 0 79 100" fill="none" xmlns="http://www.w3.org/2000/svg">
<path d="M30.7497 99.8367H1.04871C1.16437 99.2618 0.854779 98.7787 0.681288 98.2719C-0.559229 94.6796 -0.105658 91.322 2.042 88.1992C3.1851 86.5409 4.54034 85.0393 6.07315 83.7327C7.22976 82.7461 8.45437 81.8174 9.61778 80.8547C10.5431 80.0995 11.5092 79.3818 12.3698 78.5585C13.37 77.6319 14.1632 76.5043 14.6972 75.2498C15.2313 73.9952 15.4943 72.642 15.4689 71.2787C15.4856 69.4291 15.3135 67.5825 14.9552 65.7678C13.87 60.5087 12.744 55.2563 11.6146 50.0074C10.4444 44.5645 9.60759 39.1217 9.8049 33.5359C9.92608 28.751 10.8578 24.0212 12.5603 19.5478C14.6014 14.3329 17.663 9.85611 22.0411 6.32165C26.9057 2.396 32.5322 0.484194 38.7098 0.0929888C43.4399 -0.236221 48.1902 0.310424 52.7218 1.70544C56.4638 2.87566 60.0322 4.4779 63.1279 6.9578C64.8135 8.26044 66.2633 9.84252 67.4141 11.6353C68.4552 13.3107 68.901 15.2881 68.6796 17.2482C68.6429 17.93 68.4291 18.5904 68.0592 19.1643C67.6894 19.7382 67.1762 20.2057 66.5705 20.5207C66.0428 20.7981 65.4973 21.0402 64.9376 21.2453C61.876 22.4189 58.6341 22.8849 55.3888 23.1571C52.5755 23.3918 49.7486 23.5347 46.9149 23.5415C41.8565 23.5415 36.8048 23.3646 31.76 22.953C31.4356 22.9213 31.1095 22.9099 30.7837 22.919C30.6185 22.9176 30.4576 22.971 30.3259 23.0706C30.1943 23.1703 30.0993 23.3107 30.0557 23.47C29.9601 23.7803 29.8896 24.0977 29.8448 24.4191C29.7087 25.3887 29.6067 26.3616 29.457 27.3277C29.0897 29.9091 28.4523 32.4449 27.5554 34.8932C27.2599 35.71 26.8707 36.4897 26.3954 37.2167C26.3601 37.2902 26.3096 37.3555 26.2472 37.408C26.1848 37.4606 26.1119 37.4992 26.0334 37.5214C25.9549 37.5437 25.8725 37.5489 25.7918 37.5368C25.7111 37.5247 25.6339 37.4956 25.5653 37.4514C24.7574 37.002 23.8724 36.7078 22.9562 36.5839C19.8946 36.2438 17.3977 37.3289 15.5131 39.734C12.5774 43.4759 12.727 49.2113 16.0234 52.7934C18.9693 55.9945 23.3984 56.3143 26.6982 53.5724C26.9499 53.3649 27.1812 53.137 27.4329 52.9261C27.6847 52.7152 27.8344 52.358 28.2222 52.5077C28.5351 52.6267 28.4466 52.9703 28.4875 53.2221C28.9198 56.0122 29.6123 58.7558 30.5558 61.417C31.6852 64.533 33.0833 67.5402 34.4474 70.5541C35.6346 73.1735 36.8287 75.7963 37.771 78.5143C39.5535 83.617 39.3494 88.6414 37.009 93.5502C36.2752 95.1348 35.1994 96.537 33.8589 97.6562C33.0965 98.2688 32.2542 98.7747 31.3552 99.1598C31.015 99.2992 30.7429 99.4353 30.7497 99.8367Z" fill="#E2C7A0"/>
<path d="M61.4301 99.8367C61.4811 97.1153 60.93 94.4449 60.4096 91.7915C59.7681 88.5801 60.1243 85.2493 61.4301 82.2461C62.2397 80.2935 63.0323 78.3374 63.8726 76.4018C65.0462 73.6804 64.8591 71.027 63.6753 68.3702C63.216 67.3327 62.8418 66.2577 62.4438 65.1929C62.3374 64.971 62.3174 64.7174 62.3879 64.4815C62.4583 64.2456 62.6141 64.0445 62.8248 63.9173C64.4405 62.7189 65.8621 61.279 67.0396 59.648C67.3458 59.233 67.5159 59.2194 67.9921 59.5018C68.653 59.8747 69.2626 60.3321 69.8053 60.8625C70.5725 61.6436 71.0435 62.6677 71.1373 63.7585C71.231 64.8494 70.9417 65.9389 70.319 66.8394C69.7046 67.7396 68.8726 68.4698 67.9003 68.9621C67.5608 69.1278 67.2324 69.3153 66.9172 69.5234C66.784 69.6205 66.6905 69.7627 66.6542 69.9235C66.618 70.0843 66.6412 70.2528 66.7199 70.3977C66.7763 70.5534 66.8876 70.6832 67.0329 70.7628C67.1782 70.8423 67.3475 70.8661 67.5091 70.8297C67.7726 70.7834 68.0267 70.6937 68.2609 70.5644C68.9412 70.2038 69.5842 69.8194 70.2441 69.452C70.8122 69.139 70.8939 69.1492 71.3361 69.6357C72.1205 70.537 72.7598 71.555 73.2309 72.6531C74.344 75.1819 75.202 77.8154 75.7924 80.5146C76.6018 83.9439 77.1702 87.4256 77.4933 90.9342C77.7722 93.904 78.1125 96.867 78.422 99.8333H71.5708C71.2646 99.0577 71.3156 98.2345 71.2918 97.4283C71.1558 92.1521 70.3428 86.9474 69.5468 81.746C69.3188 80.2458 68.744 78.8205 68.2167 77.3985C68.1748 77.2975 68.1127 77.2061 68.0342 77.1299C67.9557 77.0537 67.8625 76.9943 67.7602 76.9555C67.658 76.9166 67.5489 76.899 67.4396 76.9039C67.3303 76.9087 67.2231 76.9358 67.1246 76.9835C67.0347 77.0158 66.952 77.0656 66.8815 77.1301C66.8109 77.1946 66.7538 77.2724 66.7136 77.3592C66.6734 77.4459 66.6509 77.5398 66.6473 77.6353C66.6437 77.7308 66.6591 77.8261 66.6926 77.9156C66.8797 78.5348 67.1383 79.1335 67.3254 79.756C68.5398 83.7259 68.9174 87.8352 69.2746 91.9412C69.4821 94.3224 69.6148 96.7037 69.7883 99.0849C69.8087 99.3571 69.8529 99.6258 69.6114 99.8299L61.4301 99.8367Z" fill="#F4BFD8"/>
<path d="M34.3418 99.8367C34.3111 99.8116 34.2859 99.7804 34.2678 99.7452C34.2497 99.7099 34.2391 99.6713 34.2365 99.6317C34.234 99.5922 34.2396 99.5525 34.253 99.5152C34.2664 99.4779 34.2873 99.4438 34.3145 99.4149C34.6547 99.0747 34.9949 98.7108 35.3555 98.3944C37.7708 96.2717 39.0974 93.5434 39.8969 90.475C41.0569 85.9575 40.6555 81.5419 39.094 77.2081C38.0735 74.3472 36.74 71.6155 35.5188 68.8363C34.7772 67.1524 34.005 65.4787 33.2464 63.7982C33.158 63.6077 33.0116 63.4274 33.1307 63.1587C33.4131 63.0464 33.5491 63.339 33.743 63.4479C33.972 63.5938 34.1923 63.7528 34.403 63.9241C37.0824 65.8758 40.122 67.2772 43.3463 68.0471C44.3971 68.3195 45.4711 68.4938 46.5542 68.5675C47.5237 68.6084 47.823 68.8703 47.9931 69.7888C48.2745 71.0671 48.2111 72.3972 47.8094 73.643C47.1563 75.5412 46.4011 77.385 45.588 79.2287C44.959 80.5501 44.4501 81.9255 44.0675 83.3381C43.657 84.8599 43.5256 86.4435 43.6796 88.0121C44.0198 90.9785 44.36 93.9448 44.7002 96.9112C44.8299 97.8807 44.863 98.8607 44.7988 99.8367H34.3418Z" fill="#F4BFD8"/>
</svg>
