<svg width="125" height="79" viewBox="0 0 125 79" fill="none" xmlns="http://www.w3.org/2000/svg">
<path d="M107.735 78.9934H34.0659C33.9538 78.7035 33.8819 78.3998 33.8522 78.0906C34.1927 72.382 34.5198 66.68 34.9137 60.9781C35.4145 53.6764 35.9753 46.4079 36.4894 39.1261C36.5638 38.5011 36.53 37.8679 36.3893 37.2542C36.306 36.9424 36.1155 36.6694 35.8508 36.4826C35.5861 36.2959 35.2641 36.2072 34.9405 36.232C34.6187 36.2002 34.2959 36.2828 34.0295 36.4651C33.7631 36.6474 33.5702 36.9175 33.485 37.2277C33.3672 37.7425 33.2957 38.2668 33.2714 38.7942C32.9175 43.4408 32.5436 48.0873 32.2231 52.7338C31.9027 57.3803 31.7625 62.0269 31.3151 66.6734C30.9212 70.7823 31.028 74.931 30.2202 79H0.129118C-0.101126 77.9602 -0.0222382 76.8762 0.356138 75.8802C2.25227 68.5055 4.21516 61.144 6.56529 53.8955C8.68461 47.1312 11.2038 40.4972 14.1097 34.0282C15.5762 30.7396 17.3795 27.6099 19.491 24.6887C20.4006 23.3727 21.579 22.2621 22.9494 21.4295C23.2905 21.1727 23.7067 21.0336 24.1345 21.0336C24.5624 21.0336 24.9785 21.1727 25.3196 21.4295C25.9138 21.8809 26.508 22.3322 27.1356 22.7571C29.7565 24.4055 32.7694 25.3353 35.8685 25.452C36.2446 25.4625 36.6108 25.3317 36.8942 25.0856C37.1776 24.8396 37.3573 24.4964 37.3974 24.1245C37.4438 23.7546 37.3536 23.3805 37.1437 23.0717C36.9337 22.7628 36.6182 22.5402 36.2557 22.4451C35.114 22.1796 33.9457 22.0335 32.8174 21.7415C29.5634 20.9805 26.7395 18.9808 24.9524 16.1722C23.8063 14.4256 23.3458 12.321 23.6585 10.2588C23.9711 8.1966 25.0351 6.32054 26.6482 4.98738C27.6569 4.20822 28.7551 3.5509 29.9197 3.02921C30.2799 2.80541 30.7093 2.71844 31.1288 2.7843C31.5483 2.85016 31.9298 3.0644 32.2031 3.38764C33.8388 4.90772 35.4479 6.47428 37.2105 7.84169C44.6363 13.6044 53.5591 17.1455 62.9351 18.0508C68.0262 18.6307 73.1817 18.2501 78.1309 16.929C87.3514 14.456 95.5825 9.22048 101.706 1.93394C103.789 -0.482259 103.281 -0.608364 106.226 1.40956C107.468 2.24242 108.524 3.32012 109.33 4.57583C110.094 5.66837 110.581 6.92819 110.749 8.24805C110.918 9.5679 110.763 10.9087 110.298 12.1563C109.327 14.8798 107.387 17.1559 104.844 18.5553C104.103 18.9668 103.308 19.2854 102.587 19.7302C102.383 19.8574 102.216 20.0355 102.103 20.2469C101.99 20.4583 101.935 20.6954 101.943 20.9346C101.951 21.1739 102.022 21.4068 102.149 21.6101C102.276 21.8134 102.455 21.98 102.667 22.0933C102.977 22.3039 103.343 22.4166 103.719 22.4166C104.094 22.4166 104.46 22.3039 104.77 22.0933C106.159 21.3034 107.541 20.5068 108.936 19.7302C110.125 19.0664 110.532 19.0664 111.306 20.2214C113.199 22.9135 114.782 25.808 116.027 28.8506C118.731 35.8695 120.654 43.1615 121.762 50.5964C123.304 60.009 124.019 69.5211 125 79H111.574C111.216 77.4524 111.043 75.8683 111.059 74.2805C110.789 66.5515 110.121 58.8414 109.056 51.1805C108.386 46.145 107.189 41.1929 105.485 36.4046C105.318 35.9038 105.115 35.4157 104.877 34.9442C104.667 34.6265 104.347 34.3967 103.977 34.2987C103.608 34.2007 103.215 34.2415 102.874 34.4132C102.569 34.5178 102.312 34.7287 102.151 35.0069C101.991 35.2852 101.937 35.6119 101.999 35.9267C102.067 36.3394 102.183 36.7428 102.347 37.1281C104.717 43.3213 105.732 49.8065 106.352 56.3382C107.067 63.4009 107.521 70.4902 108.088 77.5795C108.168 78.084 108.235 78.615 107.735 78.9934Z" fill="#D98636"/>
</svg>
