<svg width="80" height="28" viewBox="0 0 80 28" fill="none" xmlns="http://www.w3.org/2000/svg">
<path d="M64.1323 21.2721C63.1611 21.5301 62.1899 21.0648 61.2643 20.0734C58.5076 17.1346 56.3781 13.872 55.4575 9.90135C55.1083 8.56639 55.0789 7.16791 55.3715 5.81942C56.0797 2.90085 57.9714 1.07484 60.8697 0.290822C63.6467 -0.462846 65.9633 0.245308 67.8146 2.45067C68.0726 2.75922 68.2901 3.10823 68.5531 3.41172C68.6799 3.56949 68.8557 3.68049 69.0526 3.72721C69.2496 3.77393 69.4565 3.7537 69.6406 3.66969C70.1465 3.46737 70.6927 3.25492 71.2238 3.07788C72.3243 2.64966 73.525 2.54835 74.6816 2.78613C75.8382 3.02392 76.9016 3.59068 77.7438 4.41829C78.63 5.19526 79.2869 6.19971 79.6435 7.32303C80.0001 8.44634 80.0429 9.64576 79.7671 10.7916C79.2449 13.3533 77.7902 15.6298 75.6851 17.1801C72.4125 19.694 68.5936 20.8928 64.1323 21.2721ZM57.6679 7.96914C57.7081 8.4224 57.7723 8.8732 57.8601 9.31967C58.634 12.7137 60.4803 15.5109 62.7514 18.0754C62.9719 18.3102 63.2408 18.4943 63.5395 18.6149C63.8382 18.7354 64.1596 18.7895 64.4813 18.7734C65.5278 18.7271 66.5652 18.5573 67.5718 18.2676C69.3831 17.8759 71.1188 17.1926 72.711 16.2443C73.8148 15.5756 74.8122 14.7453 75.67 13.781C76.6297 12.6805 77.2406 11.3195 77.4251 9.87101C77.931 6.46685 74.1475 4.30701 71.7246 5.4451C70.9467 5.86276 70.2011 6.33786 69.4939 6.86645C68.5126 7.52907 67.9057 7.37227 67.3038 6.40615C66.9244 5.78906 66.6209 5.12644 66.2264 4.5144C65.0731 2.72887 63.7782 2.20282 61.674 2.62265C59.2916 3.06271 57.6932 5.08598 57.6679 7.94891V7.96914Z" fill="#1B1C1E"/>
<path d="M57.668 7.94892C57.668 5.08094 59.2916 3.08295 61.7145 2.59736C63.7985 2.17754 65.0934 2.7036 66.2669 4.48913C66.6614 5.10117 66.9649 5.76379 67.3443 6.38089C67.9462 7.36723 68.5532 7.5038 69.5345 6.84118C70.2416 6.31259 70.9872 5.83749 71.7651 5.41983C74.188 4.26151 77.9664 6.43147 77.4657 9.84574C77.2812 11.2942 76.6702 12.6552 75.7105 13.7557C74.8527 14.72 73.8553 15.5503 72.7514 16.219C71.1593 17.1673 69.4236 17.8506 67.6124 18.2423C66.6057 18.532 65.5683 18.7018 64.5218 18.7481C64.2001 18.7642 63.8787 18.7101 63.58 18.5896C63.2813 18.469 63.0124 18.285 62.7919 18.0501C60.5208 15.4856 58.6746 12.6884 57.9007 9.2944C57.7994 8.85033 57.7217 8.40121 57.668 7.94892Z" fill="#F0A3C7"/>
<path d="M27.541 12.5417C27.3776 14.1743 26.9771 15.7743 26.3524 17.2914C25.017 20.8321 22.8117 23.7658 20.1359 26.3961C19.9065 26.6778 19.6136 26.9012 19.2813 27.048C18.949 27.1948 18.5866 27.2609 18.2239 27.2408C15.2598 26.9171 12.3058 26.5124 9.52889 25.3541C7.11935 24.3958 4.93526 22.9472 3.11513 21.1002C1.50618 19.4943 0.454836 17.4147 0.115633 15.1669C-0.114183 13.8917 -0.000126204 12.5782 0.446094 11.3616C0.892314 10.1451 1.65459 9.06935 2.65448 8.24513C3.65436 7.4209 4.85577 6.87794 6.13512 6.67207C7.41447 6.46621 8.72556 6.60488 9.93354 7.07384C10.4526 7.27851 10.9593 7.51328 11.451 7.77693C11.531 7.83645 11.622 7.87939 11.7188 7.90325C11.8156 7.9271 11.9162 7.93137 12.0147 7.91583C12.1132 7.90028 12.2075 7.86521 12.2923 7.8127C12.377 7.76018 12.4504 7.69127 12.5082 7.61C13.014 6.99796 13.5198 6.35558 14.0711 5.76883C16.1804 3.51795 18.7904 3.10317 21.6028 3.99341C25.4065 5.18208 27.5512 8.14617 27.541 12.5417ZM25.098 12.4557C25.098 11.9499 25.098 11.8032 25.098 11.6414C24.8754 8.50024 23.2366 6.98786 20.4495 6.16843C18.0115 5.45523 16.1804 6.45675 14.6882 9.0263C14.3645 9.5827 14.1116 10.1846 13.7727 10.7258C13.2972 11.4896 12.7206 11.6009 11.9265 11.1103C11.1323 10.6196 10.3433 9.98735 9.48338 9.54729C8.70374 9.10407 7.80825 8.90698 6.91456 8.9819C6.02087 9.05683 5.17074 9.40026 4.47578 9.96711C3.70799 10.5035 3.11843 11.2575 2.78306 12.132C2.44769 13.0065 2.38188 13.9613 2.59412 14.8735C3.09994 17.6555 4.71351 19.694 7.00487 21.262C10.1561 23.4219 13.7069 24.3475 17.4348 24.7522C17.7185 24.7975 18.0092 24.7655 18.2762 24.6595C18.5432 24.5536 18.7768 24.3777 18.9523 24.1502C20.6872 22.0309 22.493 19.957 23.7019 17.4633C24.4749 15.8956 24.9484 14.1973 25.098 12.4557Z" fill="#1B1C1E"/>
<path d="M25.098 12.4558C24.9437 14.1983 24.465 15.8967 23.6868 17.4634C22.4779 19.9571 20.6519 22.0157 18.9372 24.1503C18.7617 24.3777 18.5281 24.5536 18.2611 24.6596C17.994 24.7655 17.7034 24.7975 17.4197 24.7522C13.6918 24.3476 10.141 23.4219 6.98973 21.2621C4.69837 19.694 3.1 17.6556 2.57901 14.8736C2.36677 13.9614 2.43259 13.0065 2.76795 12.132C3.10332 11.2575 3.69286 10.5035 4.46064 9.96715C5.1556 9.4003 6.00576 9.05687 6.89946 8.98195C7.79315 8.90702 8.6886 9.10411 9.46825 9.54733C10.3281 9.98739 11.0919 10.5994 11.9114 11.1103C12.7308 11.6212 13.2821 11.4897 13.7576 10.7259C14.0965 10.1847 14.3494 9.58274 14.6731 9.02634C16.1905 6.45679 17.9963 5.45527 20.4344 6.16848C23.2214 6.9879 24.8603 8.50028 25.0828 11.6414C25.1081 11.8033 25.098 11.9651 25.098 12.4558Z" fill="#F0A3C7"/>
</svg>
