<svg width="31" height="102" viewBox="0 0 31 102" fill="none" xmlns="http://www.w3.org/2000/svg">
<path d="M11.7018 0.635505C14.3527 0.127973 17.0527 -0.0766586 19.7498 0.0255543C20.341 -0.0386542 20.9368 0.0941623 21.4448 0.403389C21.398 0.649295 21.3124 0.886185 21.1911 1.10511C18.4922 4.43554 18.3519 8.19239 19.4044 12.1058C20.2936 15.0753 21.3754 17.9837 22.6431 20.8124C24.3218 24.8553 24.1437 28.6553 21.6175 32.3258C20.7653 33.6208 20.0249 34.9859 19.4044 36.4065C18.372 38.4995 17.8305 40.8003 17.8212 43.134C17.8118 45.4677 18.3348 47.7729 19.3504 49.874C19.7121 50.6567 20.1385 51.4123 20.4624 52.2058C21.8172 55.5093 22.1357 58.8991 20.851 62.2727C19.5663 65.6463 18.1521 68.9767 16.6893 72.2748C15.2679 75.6004 14.4702 79.1592 14.3359 82.7734C14.2064 85.1161 14.6814 87.3885 15.124 89.6664C15.8743 93.5528 16.6515 97.4284 16.3708 101.423H8.60349C8.70316 99.1848 8.56199 96.9426 8.18245 94.7349C7.5833 91.615 7.17844 88.4519 6.73582 85.2996C6.45785 83.2506 6.45785 81.1735 6.73582 79.1245C7.17304 75.7455 8.41992 72.6472 9.76936 69.5543C11.0945 66.6545 12.2709 63.6891 13.2941 60.6695C14.0658 58.4533 14.0658 56.0414 13.2941 53.8251C12.6032 51.8766 11.8691 49.9442 11.135 48.0225C9.7009 44.4677 9.6816 40.4988 11.0811 36.9301C11.8709 34.8313 12.9151 32.8373 14.1902 30.9926C16.155 28.1426 16.4572 25.109 15.4262 21.8811C14.6975 19.5817 13.9472 17.293 13.2077 14.999C12.5168 12.8669 11.8043 10.7455 11.135 8.60801C10.3955 6.4715 10.3955 4.14844 11.135 2.01193C11.2024 1.67994 11.2206 1.33984 11.189 1.00255C11.4535 1.08891 11.5993 0.894598 11.7018 0.635505Z" fill="#FCE580"/>
<path d="M11.1412 0.997161C11.1728 1.33445 11.1546 1.67455 11.0872 2.00654C10.3477 4.14305 10.3477 6.46611 11.0872 8.60262C11.7566 10.7617 12.469 12.8615 13.16 14.9936C13.8995 17.2876 14.6497 19.5763 15.3784 21.8757C16.4094 25.1144 16.1072 28.1372 14.1424 30.9872C12.8673 32.8319 11.8231 34.826 11.0333 36.9247C9.63382 40.4934 9.65312 44.4623 11.0872 48.0172C11.8429 49.9388 12.577 51.8712 13.2463 53.8198C14.018 56.036 14.018 58.4479 13.2463 60.6642C12.2231 63.6837 11.0467 66.6491 9.72158 69.5489C8.37213 72.631 7.12525 75.7401 6.68803 79.1191C6.41007 81.1681 6.41007 83.2452 6.68803 85.2942C7.13065 88.4465 7.53551 91.6096 8.13466 94.7295C8.5142 96.9373 8.6553 99.1794 8.55564 101.417H1.82463C2.24026 97.7792 1.75986 94.2005 1.07974 90.6218C0.75587 88.9323 0.383405 87.259 0.183688 85.5425C-0.45259 79.9391 0.57233 74.2722 3.13092 69.2466C4.45595 66.4482 5.58846 63.5627 6.52067 60.6102C7.56574 57.4729 7.44695 54.0644 6.18601 51.0075C5.55627 49.4098 4.90674 47.8175 4.23742 46.2305C3.64011 44.7944 3.33261 43.2544 3.33261 41.6991C3.33261 40.1437 3.64011 38.6037 4.23742 37.1676C4.94016 35.2223 5.87731 33.3698 7.02809 31.6511C7.97777 30.3153 8.67981 28.8198 9.10082 27.2357C9.80793 24.4343 9.34915 21.7516 8.2588 19.1391C7.11987 16.4402 5.89453 13.7845 4.70162 11.1126C4.22526 10.0998 3.91369 9.01739 3.77862 7.90632C3.46015 4.91056 4.44253 3.12389 7.20079 1.96877C8.46927 1.50996 9.69999 0.819034 11.1412 0.997161Z" fill="#F0A3C7"/>
<path d="M16.3447 101.423C16.6254 97.4283 15.8481 93.5527 15.0978 89.6663C14.6552 87.3885 14.1802 85.116 14.3098 82.7734C14.444 79.1591 15.2417 75.6004 16.6632 72.2747C18.126 68.9767 19.5402 65.6463 20.8248 62.2726C22.1095 58.899 21.7911 55.5092 20.4362 52.2058C20.1124 51.4123 19.686 50.6566 19.3243 49.874C18.3087 47.7728 17.7856 45.4677 17.795 43.134C17.8043 40.8003 18.3458 38.4994 19.3783 36.4065C19.9988 34.9859 20.7391 33.6207 21.5914 32.3258C24.1175 28.6553 24.2903 24.8553 22.6169 20.8123C21.3493 17.9836 20.2674 15.0753 19.3783 12.1057C18.2987 8.19235 18.466 4.4355 21.1649 1.10507C21.2863 0.886145 21.3719 0.649255 21.4187 0.403348C23.0002 0.354768 24.4414 0.98091 25.9312 1.36415C26.5573 1.52608 26.6437 1.9795 26.5303 2.56786C26.2173 4.18719 25.8448 5.76874 25.6882 7.38807C25.3644 10.8049 26.1957 14.0435 27.4048 17.2066C28.1767 19.2146 28.9269 21.228 29.6988 23.2305C30.2471 24.5473 30.4496 25.9825 30.2871 27.3995C30.1246 28.8166 29.6025 30.1687 28.7704 31.3272C28.0174 32.4785 27.3238 33.6676 26.6923 34.8897C25.5548 37.0149 24.7812 39.3156 24.4036 41.6963C24.0611 43.8281 24.2464 46.0113 24.9434 48.0549C25.3482 49.2748 25.8394 50.4731 26.2928 51.6768C26.6544 52.643 26.9945 53.6146 27.3724 54.57C28.4053 57.0603 28.4228 59.856 27.421 62.359C26.4887 65.0388 25.4075 67.6644 24.1823 70.2236C22.9376 72.6777 22.0298 75.2886 21.4834 77.9856C20.6676 82.3103 20.7503 86.7567 21.7263 91.0482C22.1527 93.0615 22.5737 95.0857 22.849 97.1315C23.0433 98.5565 23.2323 100.03 22.5522 101.417L16.3447 101.423Z" fill="#95CBAB"/>
</svg>
