<svg width="75" height="67" viewBox="0 0 75 67" fill="none" xmlns="http://www.w3.org/2000/svg">
<path d="M64.408 0.621893C63.9574 4.52221 63.4347 8.22931 63.1222 11.9606C62.329 21.2344 62.6895 30.4297 65.4236 39.4198C67.2263 45.3064 69.9905 50.6256 74.3109 55.0572C74.5242 55.26 74.7249 55.4757 74.9118 55.7033C74.9616 55.782 74.9914 55.8718 74.9984 55.9648C75.0054 56.0579 74.9895 56.1512 74.952 56.2365C74.9146 56.3219 74.8568 56.3967 74.7838 56.4543C74.7107 56.5118 74.6247 56.5504 74.5333 56.5666L60.6765 58.9817C55.7731 59.839 50.8698 60.6783 45.9665 61.5416C41.0631 62.405 36.1718 63.3046 31.2745 64.1801C26.1909 65.0857 21.0592 65.931 16.0177 66.9091C15.4689 67.0476 14.8924 67.0275 14.3545 66.8513C13.8166 66.675 13.3391 66.3498 12.9771 65.9129C7.9759 60.6767 4.33897 54.2807 2.38922 47.2928C0.183351 39.3911 -0.503911 31.1395 0.364192 22.9793C0.824028 17.994 1.66983 13.0523 2.89396 8.19914C3.03817 7.64368 3.23048 7.10029 3.36869 6.53879C3.43188 6.15843 3.62354 5.81154 3.91135 5.55644C4.19916 5.30134 4.56558 5.1536 4.94906 5.13805C9.15536 4.57655 13.2955 3.97882 17.4718 3.39317C21.0772 2.886 24.6826 2.36073 28.288 1.86564C30.0907 1.6181 31.8934 1.36453 33.6961 1.21359C41.4417 0.579636 49.1812 -0.175076 56.9689 0.0362411C59.4206 0.126806 61.8963 0.422651 64.408 0.621893ZM31.7672 33.5934C31.679 31.9342 31.9517 30.2756 32.5664 28.7331C32.7885 28.0378 33.2064 27.4219 33.7694 26.9601C34.3325 26.4983 35.0166 26.2103 35.7391 26.1309C37.1933 25.9558 38.305 26.7347 39.1282 27.906C39.7694 28.7506 40.2093 29.7317 40.4142 30.7739C40.7747 32.9534 41.1473 35.133 41.5559 37.3066C41.7378 38.3445 41.9805 39.3706 42.283 40.3797C42.3856 40.6052 42.5582 40.7912 42.7749 40.9098C42.9915 41.0284 43.2406 41.0734 43.4848 41.0378C43.7264 41.0471 43.9652 40.9829 44.1699 40.8537C44.3747 40.7244 44.5359 40.5361 44.6325 40.3133C44.8245 39.8774 44.9011 39.3991 44.8548 38.9247C44.4883 36.256 44.1577 33.5753 43.6169 30.9429C43.2367 28.9449 42.3604 27.0758 41.0691 25.509C37.7762 21.5785 31.0582 23.0577 29.9044 27.6162C29.8083 27.9905 29.6641 28.3467 29.5499 28.715C28.258 32.9414 28.9911 37.1073 29.7362 41.2793C29.7966 41.5623 29.8978 41.8348 30.0366 42.0884C30.1385 42.3075 30.3035 42.4908 30.5103 42.6146C30.7171 42.7384 30.9561 42.797 31.1964 42.7827C31.4855 42.7886 31.7683 42.6982 32.0009 42.5257C32.2335 42.3531 32.4027 42.1081 32.4822 41.8288C32.6136 41.2696 32.6033 40.6863 32.4522 40.1322C32.2179 38.0311 31.6951 35.9602 31.7672 33.5934ZM53.8082 10.9342C53.2122 10.8883 52.613 10.9629 52.0462 11.1537C51.4795 11.3445 50.9565 11.6476 50.5084 12.045C50.0602 12.4424 49.6958 12.9261 49.4369 13.4675C49.178 14.0088 49.0298 14.5968 49.001 15.1968C48.9646 15.8 49.0477 16.4044 49.2459 16.975C49.444 17.5456 49.7531 18.0709 50.1552 18.5203C50.5572 18.9698 51.0442 19.3344 51.5877 19.5931C52.1313 19.8517 52.7207 19.9992 53.3215 20.0269C53.9235 20.0694 54.5278 19.9906 55.0991 19.7953C55.6704 19.5999 56.1971 19.2918 56.6482 18.8891C57.0994 18.4864 57.4659 17.9972 57.7263 17.4503C57.9868 16.9033 58.1358 16.3096 58.1648 15.7039C58.297 12.8843 55.9775 10.8315 53.8082 10.9342ZM20.236 20.5401C20.2452 19.9375 20.1326 19.3393 19.9052 18.7817C19.6777 18.224 19.34 17.7186 18.9126 17.2958C18.4851 16.8731 17.9767 16.5419 17.4182 16.3222C16.8596 16.1025 16.2626 15.999 15.6631 16.0179C14.4513 16.0017 13.2827 16.4696 12.414 17.3187C11.5453 18.1677 11.0476 19.3285 11.0302 20.5461C11.0491 21.7637 11.5484 22.9239 12.4182 23.7718C13.288 24.6197 14.4573 25.086 15.6691 25.0683C16.269 25.0881 16.8668 24.9849 17.4258 24.7651C17.9848 24.5454 18.4934 24.2135 18.9206 23.7899C19.3479 23.3662 19.6849 22.8596 19.911 22.3009C20.1372 21.7422 20.2477 21.1431 20.236 20.5401Z" fill="#BEE4F7"/>
<path d="M31.9379 33.5885C31.8659 36.0103 32.3878 38.1294 32.6038 40.2856C32.7546 40.8526 32.765 41.4495 32.6338 42.0217C32.5545 42.3075 32.3854 42.5582 32.1532 42.7348C31.921 42.9114 31.6386 43.0039 31.3499 42.9978C31.11 43.0124 30.8714 42.9525 30.665 42.8259C30.4585 42.6992 30.2937 42.5116 30.192 42.2874C30.0534 42.0279 29.9523 41.749 29.892 41.4595C29.1481 37.1903 28.4162 32.9089 29.7061 28.6026C29.8201 28.2258 29.964 27.8613 30.06 27.4782C31.2119 22.8137 37.9194 21.3 41.2072 25.322C42.4964 26.9252 43.3714 28.8379 43.751 30.8824C44.2909 33.5761 44.6209 36.3192 44.9869 39.05C45.0331 39.5354 44.9566 40.0249 44.7649 40.471C44.6661 40.6913 44.5064 40.8768 44.3058 41.0042C44.1052 41.1317 43.8726 41.1955 43.637 41.1876C43.3932 41.224 43.1445 41.178 42.9282 41.0566C42.7119 40.9352 42.5396 40.7449 42.4371 40.5142C42.1352 39.4816 41.8928 38.4316 41.7112 37.3695C41.3032 35.1454 40.9312 32.915 40.5712 30.6847C40.3667 29.6183 39.9275 28.6144 39.2873 27.75C38.4654 26.5515 37.3555 25.7545 35.9036 25.9337C35.1822 26.0149 34.4991 26.3096 33.9369 26.7822C33.3748 27.2547 32.9575 27.8849 32.7358 28.5965C32.1195 30.1806 31.8472 31.8844 31.9379 33.5885Z" fill="#1B1C1E"/>
<path d="M53.7505 11.0153C55.8772 10.9201 58.1512 12.9373 57.9921 15.7282C57.9637 16.3252 57.8176 16.9103 57.5623 17.4494C57.307 17.9885 56.9476 18.4707 56.5053 18.8676C56.063 19.2645 55.5467 19.5681 54.9866 19.7607C54.4265 19.9532 53.834 20.0309 53.2439 19.989C52.6548 19.9617 52.0771 19.8163 51.5442 19.5614C51.0113 19.3065 50.5339 18.9471 50.1397 18.5041C49.7456 18.0611 49.4426 17.5434 49.2483 16.981C49.0541 16.4187 48.9724 15.8229 49.0082 15.2284C49.0347 14.6334 49.1798 14.0499 49.4348 13.5128C49.6898 12.9758 50.0493 12.4962 50.4921 12.1029C50.9349 11.7095 51.4517 11.4104 52.0116 11.2236C52.5714 11.0367 53.1629 10.9658 53.7505 11.0153Z" fill="#1B1C1E"/>
<path d="M19.9992 20.4969C20.0107 21.0963 19.9026 21.6917 19.6815 22.2471C19.4605 22.8024 19.131 23.3059 18.7134 23.727C18.2957 24.1481 17.7985 24.4779 17.2521 24.6963C16.7056 24.9148 16.1213 25.0173 15.5348 24.9976C14.3502 25.0153 13.2072 24.5518 12.3569 23.709C11.5066 22.8662 11.0186 21.7131 11 20.5029C11.017 19.2927 11.5036 18.139 12.3528 17.2951C13.202 16.4512 14.3443 15.9861 15.5289 16.0022C16.115 15.9834 16.6986 16.0863 17.2446 16.3047C17.7906 16.523 18.2876 16.8522 18.7055 17.2724C19.1233 17.6925 19.4534 18.1949 19.6758 18.7492C19.8981 19.3034 20.0082 19.898 19.9992 20.4969Z" fill="#1B1C1E"/>
</svg>
