<svg width="73" height="54" viewBox="0 0 73 54" fill="none" xmlns="http://www.w3.org/2000/svg">
<path d="M48.8451 19.2997C43.8898 19.2732 38.9556 18.9181 34.0267 18.4517C30.8738 18.1444 27.6894 17.8052 24.5313 17.3388C23.7846 17.2328 23.0285 17.2115 22.277 17.2752C22.0889 17.2965 21.9099 17.3686 21.7591 17.484C21.6083 17.5994 21.4911 17.7538 21.4201 17.9307C21.349 18.1077 21.3267 18.3008 21.3554 18.4895C21.3842 18.6782 21.463 18.8556 21.5834 19.0029C22.0406 19.4958 22.5976 19.888 23.0968 20.3332C23.943 21.0254 24.75 21.765 25.514 22.5485C26.4703 23.6084 26.5018 24.4935 25.8397 25.5428C25.5656 26.0732 25.1043 26.4807 24.5469 26.6847C23.9894 26.8888 23.3764 26.8747 22.8288 26.6452C22.115 26.409 21.4134 26.1366 20.7269 25.829C20.2645 25.6329 19.8283 25.3785 19.3817 25.1453C19.1344 24.981 18.8449 24.8934 18.5488 24.8934C18.2527 24.8934 17.9631 24.981 17.7159 25.1453C17.1589 25.5428 17.1904 26.1682 17.3323 26.7618C17.532 27.5833 17.7947 28.3835 18.0049 29.205C19.1762 33.5326 19.7613 38.0002 19.7442 42.4862C19.7225 44.6016 19.4131 46.704 18.8247 48.7346C18.3621 50.2754 17.6424 51.7253 16.6965 53.0221C15.9608 54.0503 15.5825 54.1668 14.3318 53.833C14.0901 53.7694 13.8642 53.6475 13.6277 53.568C11.3198 52.7424 8.81958 52.6335 6.44971 53.2553C5.39876 53.5415 5.14126 53.3878 4.75241 52.3331C2.6505 46.5352 0.916457 40.6154 0.243848 34.457C-0.0714371 31.6058 -0.192321 28.7227 0.580128 25.8873C1.86754 21.1175 4.93107 17.7946 8.98774 15.2613C9.94936 14.6571 11.0581 14.6412 12.1406 14.4716C13.3071 14.2914 13.5856 14.053 13.6802 12.8817C14.0533 8.18612 16.6544 5.11755 20.6796 3.10365C23.3151 1.80073 26.1416 0.934605 29.0504 0.538563C34.3816 -0.144092 39.7749 -0.177901 45.1142 0.437866C51.6949 1.09091 58.1536 2.66412 64.3046 5.11226C65.9552 5.74125 67.5395 6.53485 69.0338 7.48125C70.179 8.19258 71.2117 9.07333 72.0974 10.094C73.3533 11.5992 73.2902 12.8923 71.9607 14.3762C71.0515 15.382 69.9238 16.1619 68.666 16.6551C67.4994 17.1192 66.3018 17.5 65.0823 17.7946C60.831 18.786 56.4822 19.2892 52.1188 19.2944C51.0258 19.3209 49.9328 19.2997 48.8451 19.2997Z" fill="#A2A0CF"/>
</svg>
