<svg width="96" height="96" viewBox="0 0 96 96" fill="none" xmlns="http://www.w3.org/2000/svg">
<g filter="url(#filter0_d_336_192)">
<circle cx="48" cy="43" r="18" fill="white"/>
</g>
<path d="M48 31C49.0262 31 50.0132 31.3944 50.7568 32.1017C51.5004 32.809 51.9437 33.775 51.995 34.8L52 35H57C57.2549 35.0003 57.5 35.0979 57.6854 35.2728C57.8707 35.4478 57.9822 35.687 57.9972 35.9414C58.0121 36.1958 57.9293 36.4464 57.7657 36.6418C57.6021 36.8373 57.3701 36.9629 57.117 36.993L57 37H56.151L54.971 51.553C54.8949 52.4921 54.4681 53.3681 53.7754 54.0068C53.0828 54.6455 52.1752 55.0001 51.233 55H44.767C43.8248 55.0001 42.9172 54.6455 42.2246 54.0068C41.5319 53.3681 41.1051 52.4921 41.029 51.553L39.848 37H39C38.7551 37 38.5187 36.91 38.3356 36.7473C38.1526 36.5845 38.0357 36.3603 38.007 36.117L38 36C38 35.7551 38.09 35.5187 38.2527 35.3356C38.4155 35.1526 38.6397 35.0357 38.883 35.007L39 35H44C44 33.9391 44.4214 32.9217 45.1716 32.1716C45.9217 31.4214 46.9391 31 48 31ZM45.75 40.25C45.5688 40.25 45.3937 40.3156 45.2571 40.4348C45.1205 40.5539 45.0316 40.7184 45.007 40.898L45 41V49L45.007 49.102C45.0317 49.2815 45.1206 49.446 45.2571 49.5651C45.3937 49.6842 45.5688 49.7498 45.75 49.7498C45.9312 49.7498 46.1063 49.6842 46.2429 49.5651C46.3794 49.446 46.4683 49.2815 46.493 49.102L46.5 49V41L46.493 40.898C46.4684 40.7184 46.3795 40.5539 46.2429 40.4348C46.1063 40.3156 45.9312 40.25 45.75 40.25ZM50.25 40.25C50.0688 40.25 49.8937 40.3156 49.7571 40.4348C49.6205 40.5539 49.5316 40.7184 49.507 40.898L49.5 41V49L49.507 49.102C49.5317 49.2815 49.6206 49.446 49.7571 49.5651C49.8937 49.6842 50.0688 49.7498 50.25 49.7498C50.4312 49.7498 50.6063 49.6842 50.7429 49.5651C50.8794 49.446 50.9683 49.2815 50.993 49.102L51 49V41L50.993 40.898C50.9684 40.7184 50.8795 40.5539 50.7429 40.4348C50.6063 40.3156 50.4312 40.25 50.25 40.25ZM48 33C47.4954 32.9998 47.0094 33.1904 46.6395 33.5335C46.2695 33.8766 46.0428 34.3468 46.005 34.85L46 35H50L49.995 34.85C49.9572 34.3468 49.7305 33.8766 49.3605 33.5335C48.9906 33.1904 48.5046 32.9998 48 33Z" fill="#FF3939"/>
<defs>
<filter id="filter0_d_336_192" x="0" y="0" width="96" height="96" filterUnits="userSpaceOnUse" color-interpolation-filters="sRGB">
<feFlood flood-opacity="0" result="BackgroundImageFix"/>
<feColorMatrix in="SourceAlpha" type="matrix" values="0 0 0 0 0 0 0 0 0 0 0 0 0 0 0 0 0 0 127 0" result="hardAlpha"/>
<feOffset dy="5"/>
<feGaussianBlur stdDeviation="15"/>
<feColorMatrix type="matrix" values="0 0 0 0 0.168627 0 0 0 0 0.529412 0 0 0 0 0.854902 0 0 0 0.2 0"/>
<feBlend mode="normal" in2="BackgroundImageFix" result="effect1_dropShadow_336_192"/>
<feBlend mode="normal" in="SourceGraphic" in2="effect1_dropShadow_336_192" result="shape"/>
</filter>
</defs>
</svg>
