<svg width="17" height="17" viewBox="0 0 17 17" fill="none" xmlns="http://www.w3.org/2000/svg">
<path d="M15.8427 9.78097C15.6192 9.71128 15.3773 9.7328 15.1696 9.84086C14.962 9.94892 14.8054 10.1347 14.7341 10.3578C14.3151 11.6397 13.4983 12.7544 12.4025 13.5397C11.3067 14.325 9.9891 14.7399 8.64137 14.7241C6.97438 14.7431 5.36791 14.0998 4.17423 12.9352C2.98055 11.7707 2.29709 10.18 2.27372 8.5119C2.29709 6.84384 2.98055 5.25313 4.17423 4.08858C5.36791 2.92404 6.97438 2.28071 8.64137 2.29967C10.1469 2.29603 11.6061 2.82044 12.7653 3.78173L10.8408 3.46225C10.7254 3.44326 10.6075 3.44727 10.4937 3.47405C10.3799 3.50084 10.2725 3.54987 10.1778 3.61832C10.083 3.68677 10.0027 3.7733 9.94142 3.87293C9.88017 3.97256 9.83921 4.08332 9.82089 4.19884C9.80191 4.31426 9.80592 4.43229 9.83269 4.54615C9.85946 4.66001 9.90845 4.76745 9.97686 4.8623C10.0453 4.95714 10.1317 5.03752 10.2313 5.09881C10.3309 5.1601 10.4415 5.20109 10.557 5.21942L14.3173 5.84064H14.468C14.5709 5.84052 14.6729 5.8225 14.7696 5.78739C14.802 5.77505 14.8321 5.75702 14.8582 5.73415C14.9218 5.71048 14.9816 5.67759 15.0356 5.63653L15.1154 5.5389C15.1154 5.49453 15.1953 5.45903 15.2307 5.40579C15.2662 5.35254 15.2307 5.31704 15.2751 5.28154C15.2996 5.22986 15.3203 5.17647 15.3372 5.1218L16.0023 1.57195C16.0244 1.45541 16.0234 1.33565 15.9993 1.2195C15.9751 1.10336 15.9284 0.993104 15.8617 0.895038C15.795 0.796973 15.7096 0.713015 15.6105 0.647958C15.5114 0.582901 15.4004 0.53802 15.2839 0.515877C15.1675 0.493733 15.0478 0.494762 14.9317 0.518903C14.8157 0.543045 14.7055 0.589826 14.6075 0.656577C14.4096 0.791386 14.2733 0.999351 14.2286 1.23472L13.9891 2.52154C12.5045 1.23405 10.6059 0.525134 8.64137 0.524751C6.50398 0.505819 4.44638 1.33615 2.92007 2.83355C1.39375 4.33095 0.523405 6.3731 0.5 8.5119C0.523405 10.6507 1.39375 12.6928 2.92007 14.1902C4.44638 15.6876 6.50398 16.518 8.64137 16.499C10.3735 16.5257 12.0685 15.9951 13.4766 14.9854C14.8848 13.9756 15.9318 12.5402 16.4635 10.8903C16.4971 10.7767 16.5077 10.6575 16.4945 10.5397C16.4814 10.4219 16.4448 10.308 16.3869 10.2046C16.3291 10.1012 16.2511 10.0104 16.1576 9.93767C16.0641 9.86492 15.9571 9.81164 15.8427 9.78097Z" fill="white"/>
</svg>
