<svg width="14" height="15" viewBox="0 0 14 15" fill="none" xmlns="http://www.w3.org/2000/svg">
<path d="M4.6927 6.10009C4.82381 6.23041 5.00118 6.30355 5.18606 6.30355C5.37093 6.30355 5.5483 6.23041 5.67941 6.10009C5.80975 5.96901 5.88291 5.79168 5.88291 5.60684C5.88291 5.422 5.80975 5.24467 5.67941 5.11358L1.29168 0.705762C1.15991 0.574015 0.981186 0.5 0.794828 0.5C0.608471 0.5 0.429747 0.574015 0.297973 0.705762C0.166198 0.83751 0.092168 1.0162 0.092168 1.20252C0.092168 1.38884 0.166198 1.56752 0.297973 1.69927L4.6927 6.10009ZM13.3002 8.89871C13.1146 8.89871 12.9366 8.97242 12.8054 9.10363C12.6741 9.23485 12.6004 9.41281 12.6004 9.59836V12.1101L9.40933 8.89871C9.2757 8.76511 9.09446 8.69005 8.90548 8.69005C8.71649 8.69005 8.53525 8.76511 8.40162 8.89871C8.26799 9.03231 8.19292 9.21352 8.19292 9.40246C8.19292 9.5914 8.26799 9.77261 8.40162 9.90621L11.6137 13.0966H9.10142C8.91582 13.0966 8.73783 13.1703 8.60659 13.3016C8.47535 13.4328 8.40162 13.6107 8.40162 13.7963C8.40162 13.9818 8.47535 14.1598 8.60659 14.291C8.73783 14.4222 8.91582 14.4959 9.10142 14.4959H13.3002C13.3917 14.4948 13.482 14.4758 13.5661 14.44C13.7371 14.369 13.873 14.2331 13.944 14.0622C13.9799 13.978 13.9989 13.8877 14 13.7963V9.59836C14 9.41281 13.9263 9.23485 13.795 9.10363C13.6638 8.97242 13.4858 8.89871 13.3002 8.89871ZM13.944 0.936648C13.873 0.765688 13.7371 0.629832 13.5661 0.558835C13.482 0.522984 13.3917 0.503968 13.3002 0.502863H9.10142C8.91582 0.502863 8.73783 0.576576 8.60659 0.707787C8.47535 0.838997 8.40162 1.01696 8.40162 1.20252C8.40162 1.38808 8.47535 1.56604 8.60659 1.69725C8.73783 1.82846 8.91582 1.90217 9.10142 1.90217H11.6137L0.206999 13.2995C0.141408 13.3646 0.089347 13.442 0.0538192 13.5272C0.0182915 13.6125 0 13.7039 0 13.7963C0 13.8887 0.0182915 13.9801 0.0538192 14.0654C0.089347 14.1506 0.141408 14.228 0.206999 14.293C0.272054 14.3586 0.349452 14.4107 0.434729 14.4462C0.520006 14.4817 0.611473 14.5 0.703855 14.5C0.796236 14.5 0.887704 14.4817 0.97298 14.4462C1.05826 14.4107 1.13566 14.3586 1.20071 14.293L12.6004 2.88868V5.40044C12.6004 5.586 12.6741 5.76396 12.8054 5.89517C12.9366 6.02638 13.1146 6.10009 13.3002 6.10009C13.4858 6.10009 13.6638 6.02638 13.795 5.89517C13.9263 5.76396 14 5.586 14 5.40044V1.20252C13.9989 1.11109 13.9799 1.02076 13.944 0.936648Z" fill="white"/>
</svg>
