<svg width="278" height="278" viewBox="0 0 278 278" fill="none" xmlns="http://www.w3.org/2000/svg">
<rect width="278" height="278" rx="16" fill="#9ED7F4"/>
<path d="M113.042 277.291H29.2041C29.156 276.658 29.1399 276.016 29.0677 275.374C28.6525 271.508 29.6656 267.624 31.9161 264.454C33.34 262.323 35.089 260.427 37.0993 258.837C40.0328 256.548 43.295 254.714 46.7757 253.397C57.3187 249.249 68.0221 249.386 78.7977 252.354C80.6432 252.86 82.4565 253.494 84.2938 254.039C85.1477 254.307 86.019 254.516 86.9015 254.665C87.3511 254.707 87.8016 254.596 88.1802 254.35C88.5588 254.103 88.8433 253.737 88.9877 253.309C89.1024 252.94 89.085 252.543 88.9385 252.186C88.7921 251.829 88.5258 251.533 88.1853 251.351C87.6603 250.984 87.0881 250.69 86.4843 250.477C76.3104 246.834 65.9119 245.269 55.1924 247.267C52.3039 247.789 49.4555 248.519 46.5831 249.169C44.8901 249.554 44.8741 249.57 44.0718 248.367C42.4456 245.909 41.1734 243.235 40.2927 240.423C38.8619 236.127 38.9954 231.464 40.6698 227.257C43.2462 220.334 48.3015 214.616 54.8554 211.209C57.8295 209.728 60.9666 208.6 64.2029 207.848C67.1315 207.101 69.6749 207.262 72.2264 209.059C73.6357 209.936 75.151 210.628 76.7357 211.121C77.1661 211.276 77.6388 211.263 78.0606 211.087C78.4823 210.91 78.8226 210.582 79.0144 210.166C79.1248 209.97 79.194 209.752 79.2177 209.528C79.2415 209.304 79.2193 209.077 79.1524 208.861C79.0856 208.646 78.9756 208.446 78.8291 208.275C78.6826 208.103 78.5026 207.963 78.3003 207.864C77.1048 207.133 75.8451 206.508 74.5934 205.874C71.703 204.423 69.3545 202.083 67.8937 199.198C66.094 195.847 65.34 192.033 65.729 188.248C66.118 184.464 67.6322 180.883 70.0761 177.968C73.1652 174.285 77.0967 172.448 81.9349 173.049C83.0719 173.234 84.2375 173.009 85.2246 172.415C85.7782 172.095 86.2917 171.701 86.8293 171.38C86.9373 171.314 87.058 171.271 87.1837 171.254C87.3094 171.237 87.4373 171.246 87.559 171.282C87.6807 171.318 87.7937 171.378 87.8905 171.46C87.9873 171.542 88.0659 171.643 88.1211 171.758C88.755 172.72 89.3327 173.723 89.9425 174.702C93.7637 180.95 98.7579 186.399 104.65 190.749C115.459 198.929 128.605 203.429 142.16 203.587C144.976 203.635 147.865 203.924 150.601 203.435C153.922 202.833 156.217 204.237 158.536 206.106C159.033 206.516 159.515 206.909 159.972 207.382C161.287 208.617 162.334 210.108 163.048 211.765C163.761 213.421 164.127 215.207 164.12 217.01C164.117 220.741 163.117 224.403 161.224 227.618C160.82 228.415 160.214 229.094 159.466 229.585C158.719 230.076 157.856 230.363 156.963 230.418C148.813 231.399 140.592 231.667 132.395 231.22C130.734 231.116 129.105 230.707 127.453 230.538C127.17 230.482 126.879 230.485 126.597 230.547C126.316 230.609 126.05 230.728 125.818 230.898C125.585 231.067 125.389 231.283 125.244 231.532C125.099 231.781 125.007 232.057 124.973 232.343C125.028 232.852 125.255 233.326 125.617 233.687C125.979 234.048 126.455 234.273 126.963 234.325H127.348C136.264 235.434 145.279 235.504 154.211 234.534C157.124 234.189 157.268 234.349 156.739 237.342C156.666 237.719 156.538 238.08 156.482 238.465C156.121 240.993 155.631 243.52 155.471 246.072C155.278 249.049 156.795 251.239 159.418 252.555C160.667 253.247 162.103 253.526 163.52 253.352C164.937 253.177 166.262 252.558 167.306 251.584C169.504 249.706 170.515 247.275 169.641 244.363C168.918 241.908 168.036 239.493 167.354 237.037C166.969 235.729 166.214 234.494 166.343 232.897C169.392 232.255 172.401 231.686 175.377 230.963C180.619 229.811 185.75 228.2 190.71 226.149C191.213 225.852 191.799 225.728 192.379 225.796C192.959 225.864 193.5 226.12 193.92 226.526C204.118 235.433 208.932 246.585 206.798 260.298C206.517 262.127 206.685 263.467 207.969 264.823C211.238 268.139 213.228 272.505 213.586 277.147C211.796 277.147 210.007 277.267 208.218 277.267H116.95C117.032 275.097 116.89 272.925 116.525 270.784C115.524 266.683 113.64 262.85 111.004 259.551C109.937 258.139 108.854 256.743 107.795 255.403C108.469 254.063 109.079 252.94 109.608 251.777C112.529 245.398 113.355 238.778 111.47 231.974C110.519 228.311 108.838 224.877 106.527 221.879C104.216 218.882 101.323 216.382 98.0222 214.531C97.2626 214.094 96.4548 213.747 95.6151 213.496C95.1769 213.386 94.7136 213.438 94.3109 213.643C93.9082 213.848 93.5933 214.192 93.4247 214.611C93.2681 214.966 93.2453 215.365 93.3603 215.736C93.4754 216.106 93.7205 216.422 94.0505 216.625C94.6548 217.094 95.3054 217.5 95.9922 217.837C97.5759 218.678 99.0432 219.722 100.357 220.942C108.782 228.621 110.932 240.295 105.805 250.717C105.131 252.089 104.337 253.405 103.55 254.729C103.291 255.1 103.172 255.551 103.216 256.001C103.26 256.452 103.464 256.871 103.791 257.184C104.89 258.428 106.062 259.592 107.113 260.899C109.729 264.109 112.007 267.463 112.513 271.707C112.465 271.789 112.435 271.88 112.424 271.974C112.413 272.068 112.422 272.164 112.449 272.255C112.476 272.345 112.521 272.43 112.582 272.503C112.642 272.575 112.717 272.635 112.802 272.678C113.235 274.17 112.994 275.735 113.042 277.291Z" fill="#F4BFD8"/>
<path d="M213.602 277.147C213.244 272.505 211.254 268.139 207.985 264.823C206.702 263.467 206.533 262.127 206.814 260.298C208.916 246.585 204.15 235.425 193.864 226.398C193.444 225.992 192.903 225.735 192.323 225.667C191.743 225.599 191.157 225.723 190.654 226.021C185.694 228.071 180.563 229.682 175.321 230.835C172.345 231.557 169.336 232.127 166.287 232.769C166.159 234.373 166.913 235.601 167.298 236.909C168.012 239.364 168.903 241.779 169.585 244.234C170.435 247.147 169.448 249.578 167.25 251.456C166.206 252.43 164.881 253.049 163.464 253.223C162.047 253.398 160.611 253.119 159.363 252.426C156.739 251.111 155.222 248.92 155.415 245.943C155.575 243.392 156.065 240.865 156.426 238.337C156.482 237.952 156.61 237.591 156.683 237.214C157.212 234.221 157.068 234.061 154.155 234.406C145.223 235.375 136.208 235.305 127.292 234.197H126.907C126.399 234.145 125.924 233.919 125.561 233.559C125.199 233.198 124.972 232.723 124.917 232.215C124.951 231.929 125.043 231.653 125.188 231.404C125.333 231.155 125.529 230.939 125.762 230.769C125.995 230.6 126.26 230.48 126.542 230.418C126.823 230.356 127.114 230.354 127.397 230.41C129.05 230.578 130.678 230.987 132.339 231.092C140.536 231.539 148.757 231.27 156.907 230.289C157.8 230.235 158.663 229.948 159.41 229.456C160.158 228.965 160.764 228.287 161.168 227.489C163.061 224.275 164.061 220.613 164.064 216.882C164.071 215.078 163.706 213.293 162.992 211.636C162.278 209.98 161.231 208.488 159.916 207.254C159.459 206.813 158.977 206.387 158.48 205.978C156.177 204.084 153.866 202.704 150.545 203.306C147.809 203.796 144.928 203.507 142.104 203.459C128.549 203.3 115.403 198.801 104.594 190.621C98.702 186.271 93.7078 180.822 89.8866 174.574C89.2768 173.595 88.6991 172.592 88.0652 171.629C88.01 171.515 87.9314 171.414 87.8346 171.332C87.7378 171.25 87.6248 171.189 87.5031 171.154C87.3814 171.118 87.2535 171.109 87.1278 171.125C87.0021 171.142 86.8814 171.186 86.7734 171.252C86.2198 171.573 85.7063 171.966 85.1687 172.287C84.1816 172.881 83.0161 173.105 81.8791 172.921C77.0649 172.319 73.1093 174.157 70.0202 177.839C67.5763 180.755 66.0621 184.336 65.6731 188.12C65.2841 191.904 66.0381 195.718 67.8378 199.07C69.2986 201.955 71.647 204.295 74.5375 205.745C75.7892 206.379 77.0489 207.005 78.2444 207.735C78.4467 207.835 78.6267 207.975 78.7732 208.146C78.9197 208.318 79.0297 208.518 79.0965 208.733C79.1634 208.949 79.1855 209.175 79.1618 209.4C79.1381 209.624 79.0689 209.841 78.9585 210.038C78.7667 210.453 78.4264 210.781 78.0047 210.958C77.5829 211.135 77.1102 211.147 76.6798 210.993C75.0951 210.5 73.5798 209.807 72.1705 208.931C69.6351 207.133 67.0916 206.973 64.147 207.719C60.9107 208.472 57.7736 209.6 54.7995 211.081C48.2457 214.487 43.1903 220.206 40.6138 227.128C38.9395 231.335 38.806 235.999 40.2368 240.295C41.1175 243.107 42.3897 245.781 44.0159 248.238C44.8182 249.466 44.8182 249.45 46.5273 249.04C49.3997 248.391 52.248 247.66 55.1365 247.139C65.8801 245.181 76.2786 246.746 86.4284 250.348C87.0322 250.562 87.6044 250.856 88.1294 251.223C88.4699 251.405 88.7362 251.7 88.8826 252.058C89.0291 252.415 89.0465 252.812 88.9318 253.181C88.7874 253.609 88.5029 253.975 88.1244 254.221C87.7458 254.467 87.2952 254.578 86.8457 254.537C85.9631 254.388 85.0919 254.179 84.238 253.911C82.4006 253.365 80.5872 252.731 78.7418 252.226C67.9662 249.265 57.2628 249.121 46.7198 253.269C43.2509 254.63 40.0075 256.507 37.0996 258.837C35.0892 260.427 33.3403 262.323 31.9163 264.454C29.6631 267.614 28.6416 271.489 29.0439 275.35C29.1161 275.992 29.1322 276.634 29.1803 277.267C27.9076 277.697 26.5265 277.68 25.2648 277.219C24.0051 268.955 27.3349 262.472 33.2322 257.056C34.8962 255.657 36.6373 254.352 38.4475 253.149C39.2499 252.555 40.1245 252.033 40.9108 251.544C40.6941 250.076 39.8195 249.081 39.2338 247.949C37.7345 245.123 36.638 242.101 35.9763 238.971C35.2706 235.637 35.2628 232.192 35.9532 228.855C36.6436 225.517 38.0174 222.359 39.988 219.578C45.1019 211.93 52.8881 206.467 61.8202 204.261C62.9274 203.972 64.0427 203.715 65.1259 203.459C65.3104 202.199 64.484 201.469 64.0748 200.594C61.1542 194.175 60.753 187.7 63.5131 181.225C66.8188 173.459 72.5958 169.03 81.2933 168.949C82.1857 169.041 83.0863 168.891 83.901 168.516C85.281 167.714 85.602 167.208 85.0404 165.764C83.2514 161.366 81.7531 156.855 80.5552 152.26C76.0138 133.726 79.809 117.005 91.4431 101.985C92.0692 101.181 92.7853 100.451 93.5774 99.8103C93.9618 99.5571 94.4309 99.4665 94.882 99.5582C95.333 99.6499 95.7294 99.9165 95.9845 100.3C96.4168 101.078 96.7561 101.905 96.9954 102.763C97.517 104.608 97.9583 106.478 98.4317 108.339C98.9974 110.329 100.194 112.08 101.842 113.33C102.271 113.72 102.833 113.931 103.413 113.92C103.993 113.91 104.547 113.679 104.963 113.274C106.026 112.333 106.72 111.045 106.921 109.639C107.434 107.393 107.98 105.154 108.421 102.899C109.26 98.878 110.915 95.0714 113.283 91.7145C114.366 90.1098 115.442 88.5051 116.437 86.9004C117.406 85.3875 118.041 83.6855 118.301 81.9077C118.561 80.13 118.44 78.3172 117.945 76.5901C116.966 73.0116 116.043 69.4171 116.18 65.638C116.425 58.5657 118.483 51.6751 122.157 45.6272C124.316 41.9829 126.97 38.656 130.044 35.7422C130.499 35.2899 130.981 34.8665 131.489 34.4744C131.845 34.1923 132.281 34.0276 132.735 34.0032C133.189 33.9787 133.639 34.0958 134.024 34.338C134.827 34.7954 134.778 35.6057 134.778 36.376C134.778 38.7831 134.73 41.2463 134.778 43.6855C134.706 45.7348 134.819 47.7864 135.115 49.8155C135.683 53.1239 137.348 56.145 139.841 58.3927C141.823 60.222 143.853 62.0273 145.779 63.8647C149.508 67.3965 152.669 71.4832 155.15 75.9803C157.372 79.6288 158.14 83.9796 157.301 88.1681C157.012 89.5481 156.744 90.9282 156.498 92.3083C156.177 94.0815 155.912 95.8868 156.683 97.6038C158.047 100.637 160.486 102.522 164.329 102.241C166.065 102.103 167.752 101.603 169.283 100.774C170.814 99.9448 172.155 98.8049 173.219 97.4273C176.83 93.0545 179.101 88.144 178.739 82.2948C178.687 81.5281 178.687 80.7588 178.739 79.9921C178.738 79.7358 178.789 79.482 178.889 79.2459C178.988 79.0099 179.135 78.7965 179.319 78.6187C179.504 78.4409 179.722 78.3024 179.962 78.2117C180.202 78.1209 180.457 78.0796 180.713 78.0905C181.162 78.0707 181.601 78.2276 181.935 78.5276C182.27 78.8276 182.474 79.2468 182.503 79.6952C182.727 81.2197 182.92 82.7442 183.024 84.2767C183.644 92.2234 186.07 99.9238 190.117 106.791C191.505 109.238 193.045 111.605 194.586 113.956C198.477 119.893 201.647 126.184 203.035 133.212C205.378 144.184 204.543 155.596 200.628 166.109C200.307 166.951 199.938 167.762 199.617 168.596C198.895 170.45 198.887 170.49 200.78 171.421C209.069 175.48 212.96 182.429 213.802 191.311C213.977 194.526 213.429 197.739 212.198 200.715L211.684 202.095C212.286 203.017 213.289 202.969 214.091 203.258C215.174 203.643 216.322 203.836 217.405 204.197C230.018 208.361 237.352 217.195 239.943 230.017C240.83 234.569 240.498 239.274 238.98 243.657C238.611 244.748 238.266 245.847 237.841 246.914C237.707 247.205 237.693 247.537 237.803 247.837C237.913 248.138 238.137 248.383 238.427 248.519C239.069 248.928 239.807 249.185 240.481 249.554C248.689 254.039 253.134 260.899 253.495 270.287C253.575 272.582 253.391 274.892 253.327 277.195C252.015 277.648 250.594 277.673 249.267 277.267C249.371 275.085 249.515 272.919 249.588 270.736C249.628 266.545 248.325 262.452 245.871 259.054C243.416 255.657 239.939 253.135 235.947 251.857C231.767 250.562 227.31 250.448 223.07 251.528C221.965 251.832 220.838 252.047 219.7 252.17C219.307 252.184 218.923 252.054 218.62 251.804C218.316 251.554 218.116 251.202 218.055 250.814C217.956 250.504 217.962 250.17 218.072 249.864C218.182 249.557 218.391 249.296 218.665 249.121C219.416 248.657 220.225 248.295 221.072 248.046C224.391 247.03 227.883 246.702 231.334 247.083C231.894 247.21 232.482 247.126 232.985 246.848C233.488 246.57 233.871 246.117 234.062 245.574C235.314 242.939 236.044 240.086 236.212 237.174C236.658 229.862 234.327 222.651 229.685 216.984C225.044 211.316 218.435 207.609 211.179 206.604C209.694 206.387 208.387 206.54 207.343 207.759C206.907 208.229 206.42 208.648 205.891 209.011C205.728 209.171 205.532 209.294 205.318 209.372C205.103 209.45 204.874 209.482 204.646 209.464C204.418 209.447 204.196 209.381 203.996 209.271C203.796 209.161 203.621 209.009 203.484 208.826C203.17 208.501 202.982 208.075 202.952 207.624C202.923 207.173 203.055 206.726 203.324 206.363C203.636 205.96 203.979 205.582 204.351 205.232C208.996 200.578 210.417 194.906 209.253 188.631C208.058 182.212 204.511 177.398 198.333 174.774C197.097 174.245 196.809 174.317 196.078 175.312C195.701 175.826 195.38 176.379 195.027 176.917C187.601 188.766 176.042 197.438 162.588 201.252C161.735 201.415 160.934 201.781 160.253 202.319C161.32 203.322 162.291 204.157 163.174 205.071C165.738 207.624 167.354 210.976 167.755 214.571C168.219 218.271 167.762 222.028 166.423 225.507C166.038 226.502 165.228 227.433 165.428 228.613C165.685 228.714 165.956 228.776 166.231 228.797C174.375 227.192 182.543 225.588 190.093 221.945C190.92 221.462 191.882 221.263 192.833 221.379C193.783 221.495 194.67 221.919 195.356 222.587C202.144 228.203 207.223 234.919 209.638 243.496C210.964 248.462 211.362 253.631 210.81 258.741C210.686 259.74 210.767 260.754 211.05 261.72C211.333 262.686 211.811 263.583 212.454 264.357C215.533 268.007 217.388 272.531 217.758 277.291C216.4 277.742 214.925 277.691 213.602 277.147ZM93.6577 106.189C93.4009 106.293 93.2404 106.309 93.1682 106.398C92.8301 106.774 92.5115 107.168 92.2134 107.577C86.1493 116.088 82.7937 126.23 82.5851 136.679C82.5501 143.854 83.7637 150.981 86.1717 157.74C91.3709 173.202 100.694 185.213 115.337 192.868C121.776 196.36 128.82 198.598 136.094 199.463C142.348 200.141 148.664 199.962 154.869 198.933C169.039 196.526 180.713 189.995 189.25 178.441C200.243 163.557 203.003 147.053 197.715 129.305C196.207 124.242 193.535 119.677 190.606 115.32C187.485 110.793 184.844 105.952 182.727 100.877C181.925 98.7913 181.227 96.649 180.32 94.1617C179.125 95.8627 178.154 97.323 177.111 98.7271C174.142 102.643 170.403 105.266 165.42 106.117C159.002 107.2 152.374 102.434 152.278 95.4696C152.262 93.4149 152.532 91.3681 153.08 89.3877C154.388 84.4773 153.217 80.0402 150.561 75.8519C147.739 71.4084 144.269 67.4114 140.266 63.9931C139.095 62.9902 137.859 62.0434 136.768 60.9763C133.796 58.2915 131.862 54.6479 131.304 50.682C130.999 48.3873 130.871 46.0925 130.71 43.7978C130.662 43.2041 130.911 42.4097 130.165 42.1048C129.419 41.8 129.05 42.5783 128.705 43.0276C126.104 46.3694 123.994 50.0654 122.438 54.0038C120.32 59.6203 119.357 65.3571 120.705 71.3266C121.122 73.1961 121.572 75.0656 121.949 76.9431C122.835 80.8592 122.21 84.9656 120.2 88.4409C119.428 89.769 118.59 91.0571 117.688 92.3002C114.455 96.6264 112.314 101.669 111.446 106.999C111.116 109.02 110.617 111.008 109.953 112.945C109.015 115.713 106.848 117.262 104.112 118.016C103.496 118.206 102.843 118.243 102.209 118.123C101.576 118.003 100.981 117.729 100.478 117.326C97.5651 115.087 95.1901 112.512 94.4439 108.732C94.2278 107.871 93.9654 107.022 93.6577 106.189ZM162.002 233.306C161.449 234.197 161.136 234.494 161.072 234.831C160.694 236.965 160.366 239.107 160.029 241.25C159.796 242.758 159.467 244.266 159.379 245.791C159.333 246.498 159.516 247.201 159.9 247.796C160.285 248.391 160.85 248.847 161.513 249.097C162.047 249.337 162.642 249.406 163.217 249.294C163.792 249.182 164.318 248.894 164.722 248.471C165.251 248.099 165.642 247.564 165.837 246.948C166.031 246.331 166.017 245.668 165.797 245.061C164.546 241.314 163.358 237.559 162.002 233.306Z" fill="#1B1C1E"/>
<path d="M217.758 277.291C217.415 272.528 215.585 267.993 212.527 264.325C211.883 263.551 211.405 262.654 211.123 261.688C210.84 260.722 210.758 259.708 210.882 258.709C211.434 253.599 211.037 248.43 209.71 243.464C207.303 234.887 202.216 228.155 195.429 222.555C194.742 221.887 193.856 221.463 192.905 221.347C191.954 221.231 190.992 221.43 190.165 221.913C182.615 225.547 174.447 227.152 166.303 228.765C166.028 228.744 165.757 228.682 165.501 228.58C165.3 227.401 166.11 226.47 166.496 225.475C167.834 221.995 168.292 218.239 167.828 214.539C167.415 210.934 165.781 207.579 163.198 205.031C162.315 204.117 161.344 203.282 160.277 202.279C160.958 201.741 161.759 201.375 162.612 201.212C176.066 197.398 187.626 188.726 195.051 176.877C195.405 176.339 195.725 175.785 196.103 175.272C196.833 174.277 197.122 174.205 198.357 174.734C204.535 177.358 208.082 182.14 209.277 188.591C210.441 194.865 209.02 200.538 204.375 205.192C204.003 205.541 203.66 205.92 203.348 206.323C203.079 206.686 202.947 207.133 202.977 207.584C203.006 208.035 203.194 208.461 203.508 208.786C203.645 208.969 203.82 209.121 204.02 209.231C204.221 209.341 204.442 209.407 204.67 209.424C204.898 209.442 205.127 209.41 205.342 209.332C205.556 209.254 205.752 209.131 205.915 208.971C206.444 208.608 206.931 208.189 207.368 207.719C208.411 206.5 209.719 206.347 211.203 206.564C218.462 207.575 225.071 211.29 229.709 216.966C234.346 222.641 236.669 229.859 236.212 237.174C236.002 240.119 235.217 242.995 233.902 245.639C233.711 246.181 233.328 246.634 232.825 246.912C232.322 247.19 231.734 247.274 231.174 247.147C227.723 246.767 224.231 247.094 220.911 248.11C220.065 248.36 219.255 248.721 218.504 249.185C218.23 249.36 218.022 249.622 217.912 249.928C217.801 250.234 217.795 250.568 217.895 250.878C217.955 251.266 218.156 251.619 218.459 251.868C218.762 252.118 219.147 252.248 219.539 252.234C220.678 252.111 221.805 251.896 222.909 251.592C227.15 250.512 231.607 250.626 235.787 251.921C239.779 253.199 243.256 255.721 245.711 259.119C248.165 262.516 249.467 266.609 249.427 270.8C249.355 272.983 249.211 275.149 249.106 277.332L217.758 277.291Z" fill="#F4BFD8"/>
<path d="M112.497 271.675C111.992 267.431 109.713 264.061 107.097 260.867C106.046 259.584 104.875 258.396 103.776 257.152C103.449 256.839 103.245 256.42 103.201 255.969C103.156 255.519 103.275 255.068 103.535 254.697C104.337 253.381 105.14 252.065 105.789 250.685C110.917 240.255 108.766 228.588 100.341 220.91C99.0276 219.69 97.5603 218.646 95.9766 217.805C95.2898 217.468 94.6392 217.062 94.0349 216.593C93.705 216.39 93.4598 216.074 93.3447 215.704C93.2297 215.333 93.2526 214.934 93.4091 214.579C93.5778 214.16 93.8926 213.816 94.2953 213.611C94.698 213.406 95.1613 213.354 95.5995 213.464C96.4393 213.715 97.247 214.062 98.0066 214.499C101.308 216.35 104.201 218.85 106.512 221.847C108.823 224.845 110.504 228.279 111.454 231.942C113.34 238.746 112.513 245.366 109.593 251.744C109.063 252.908 108.453 254.031 107.779 255.371C108.814 256.711 109.898 258.107 110.989 259.519C113.624 262.817 115.508 266.651 116.509 270.752C116.874 272.893 117.017 275.065 116.934 277.235C115.663 277.641 114.298 277.641 113.027 277.235C112.979 275.695 113.219 274.13 112.77 272.606C112.81 272.485 112.906 272.333 112.866 272.245C112.759 272.045 112.636 271.854 112.497 271.675Z" fill="#1B1C1E"/>
<path d="M213.361 105.764C215.36 105.795 217.293 106.49 218.854 107.739C220.415 108.988 221.517 110.72 221.987 112.664C222.123 113.089 222.119 113.547 221.974 113.969C221.83 114.391 221.553 114.755 221.184 115.007C220.797 115.239 220.339 115.322 219.895 115.239C219.452 115.156 219.054 114.914 218.777 114.558C218.248 113.683 217.903 112.696 217.325 111.854C216.844 111.088 216.154 110.476 215.337 110.091C214.519 109.705 213.608 109.562 212.711 109.679C211.874 109.751 211.085 110.103 210.472 110.678C209.86 111.253 209.458 112.018 209.333 112.849C209.252 113.606 209.129 114.359 208.964 115.103C208.853 115.475 208.625 115.801 208.314 116.033C208.004 116.266 207.627 116.392 207.239 116.395C206.789 116.379 206.358 116.206 206.023 115.905C205.687 115.605 205.467 115.196 205.402 114.75C205.109 113.36 205.233 111.914 205.759 110.594C206.284 109.274 207.187 108.138 208.355 107.328C209.807 106.272 211.566 105.722 213.361 105.764Z" fill="#1B1C1E"/>
<path d="M93.6578 106.189C93.9558 107.007 94.2102 107.84 94.4201 108.684C95.1663 112.447 97.5412 115.039 100.454 117.278C100.957 117.681 101.552 117.954 102.185 118.075C102.819 118.195 103.472 118.158 104.088 117.968C106.824 117.213 108.991 115.665 109.93 112.897C110.593 110.96 111.092 108.972 111.422 106.951C112.29 101.621 114.431 96.5782 117.664 92.2521C118.566 91.009 119.404 89.7209 120.176 88.3928C122.186 84.9174 122.811 80.8111 121.925 76.895C121.548 75.0175 121.122 73.148 120.681 71.2785C119.333 65.309 120.296 59.5561 122.414 53.9557C123.977 50.0248 126.092 46.3369 128.697 43.0035C129.042 42.5542 129.371 41.7678 130.157 42.0808C130.943 42.3937 130.654 43.18 130.703 43.7738C130.863 46.0685 130.991 48.3632 131.296 50.6579C131.849 54.6098 133.768 58.2433 136.72 60.9281C137.836 61.9953 139.047 62.942 140.219 63.945C144.221 67.3632 147.691 71.3603 150.513 75.8038C153.169 79.9921 154.34 84.4291 153.032 89.3396C152.484 91.3199 152.214 93.3668 152.23 95.4214C152.326 102.386 158.954 107.152 165.372 106.069C170.355 105.218 174.094 102.594 177.063 98.679C178.122 97.2749 179.093 95.8146 180.272 94.1136C181.155 96.6009 181.829 98.7432 182.679 100.829C184.796 105.904 187.437 110.745 190.558 115.272C193.487 119.653 196.175 124.194 197.667 129.257C202.955 147.005 200.195 163.509 189.202 178.393C180.665 189.947 168.991 196.518 154.821 198.885C148.616 199.914 142.3 200.092 136.046 199.415C128.785 198.556 121.753 196.329 115.321 192.852C100.727 185.237 91.4032 173.226 86.1718 157.74C83.7502 150.975 82.5256 143.84 82.5532 136.654C82.7617 126.206 86.1173 116.064 92.1815 107.553C92.4796 107.144 92.7982 106.75 93.1363 106.374C93.2406 106.309 93.393 106.293 93.6578 106.189ZM183.995 141.902C184.87 138.692 185.849 135.547 186.587 132.33C187.289 129.462 187.289 126.468 186.587 123.6C185.375 118.786 180.85 115.946 175.554 117.847C174.104 118.331 172.702 118.949 171.366 119.693C168.55 121.354 165.854 121.458 163.134 119.54C162.706 119.263 162.252 119.03 161.778 118.842C159.71 117.957 157.422 117.721 155.217 118.166C153.012 118.61 150.994 119.713 149.43 121.329C147.507 123.239 146.363 125.796 146.22 128.503C145.707 138.243 147.656 147.27 154.155 154.908C152.893 155.523 151.701 156.274 150.601 157.147C147.921 159.04 145.121 160.172 141.623 159.048C138.869 158.05 136.244 156.731 133.8 155.117C128.641 152.036 123.642 148.698 118.555 145.488C117.137 144.61 115.651 143.848 114.11 143.21C112.285 142.527 110.283 142.482 108.429 143.081C106.575 143.679 104.977 144.887 103.896 146.507C101.698 150.029 100.95 154.265 101.81 158.326C103.158 165.178 106.624 170.899 111.374 175.978C114.158 178.803 117.317 181.232 120.761 183.199C127.397 187.211 134.714 188.671 142.232 189.562C146.349 190.043 150.352 188.76 154.444 188.703C154.695 188.655 154.942 188.588 155.182 188.503C160.334 187.425 165.263 185.471 169.753 182.726C173.959 180.25 177.58 176.894 180.368 172.889C184.878 166.318 187.172 158.912 188.392 151.145C188.706 148.712 188.316 146.239 187.269 144.02C187.06 143.338 186.618 142.751 186.019 142.363C185.42 141.976 184.703 141.812 183.995 141.902ZM130.013 111.886C127.763 111.827 125.565 112.564 123.804 113.965C122.043 115.366 120.832 117.343 120.384 119.548C120.16 120.148 120.16 120.81 120.384 121.41C120.512 121.773 120.748 122.088 121.061 122.312C121.374 122.536 121.748 122.658 122.133 122.661C122.455 122.677 122.773 122.596 123.048 122.429C123.323 122.262 123.541 122.016 123.674 121.723C124.051 120.92 124.292 120.054 124.637 119.235C125.001 118.274 125.633 117.438 126.457 116.825C127.282 116.212 128.265 115.849 129.29 115.777C130.433 115.593 131.604 115.746 132.661 116.216C133.718 116.686 134.616 117.454 135.244 118.425C135.669 119.051 135.894 119.813 136.295 120.455C136.543 120.83 136.908 121.112 137.333 121.258C137.759 121.403 138.221 121.403 138.646 121.257C139.046 121.056 139.363 120.722 139.544 120.312C139.724 119.901 139.755 119.441 139.633 119.011C139.394 117.752 138.842 116.574 138.028 115.585C137.084 114.374 135.864 113.406 134.469 112.762C133.075 112.119 131.547 111.818 130.013 111.886Z" fill="#FCE580"/>
<path d="M162.002 233.306C163.358 237.559 164.546 241.33 165.765 245.061C165.985 245.668 165.999 246.331 165.805 246.948C165.61 247.564 165.219 248.099 164.69 248.471C164.286 248.894 163.76 249.182 163.185 249.294C162.61 249.406 162.015 249.337 161.481 249.097C160.818 248.847 160.253 248.391 159.868 247.796C159.484 247.201 159.301 246.498 159.347 245.791C159.435 244.266 159.764 242.758 159.997 241.25C160.334 239.107 160.663 236.965 161.04 234.831C161.136 234.494 161.449 234.197 162.002 233.306Z" fill="#FCFBFA"/>
<path d="M183.995 141.902C184.703 141.812 185.42 141.976 186.019 142.363C186.618 142.751 187.06 143.338 187.269 144.02C188.325 146.228 188.729 148.692 188.432 151.121C187.18 158.888 184.886 166.294 180.408 172.865C177.62 176.87 173.999 180.226 169.793 182.702C165.303 185.447 160.374 187.401 155.222 188.479C154.982 188.564 154.735 188.631 154.484 188.679C150.392 188.679 146.388 190.019 142.272 189.538C134.754 188.647 127.437 187.203 120.801 183.175C117.357 181.208 114.198 178.779 111.414 175.954C106.68 170.907 103.198 165.186 101.85 158.302C100.99 154.241 101.738 150.005 103.936 146.483C105.015 144.885 106.598 143.693 108.433 143.098C110.268 142.504 112.25 142.54 114.062 143.202C115.602 143.84 117.089 144.602 118.507 145.48C123.602 148.69 128.6 152.012 133.751 155.109C136.195 156.723 138.821 158.042 141.574 159.04C145.073 160.164 147.873 159.04 150.553 157.139C151.653 156.266 152.845 155.515 154.107 154.9C154.669 155.197 155.255 155.462 155.792 155.799C160.606 158.84 165.701 158.872 170.828 156.689C175.325 154.716 179.034 151.296 181.363 146.973C182.278 145.32 183.112 143.595 183.995 141.902Z" fill="#FAC697"/>
<path d="M183.995 141.902C183.112 143.595 182.278 145.32 181.331 146.981C179.001 151.304 175.293 154.724 170.796 156.697C165.669 158.88 160.606 158.848 155.76 155.807C155.222 155.47 154.637 155.205 154.075 154.908C147.576 147.27 145.626 138.243 146.14 128.503C146.282 125.796 147.426 123.239 149.349 121.329C150.913 119.713 152.931 118.61 155.136 118.166C157.341 117.721 159.629 117.957 161.697 118.842C162.171 119.03 162.625 119.263 163.053 119.54C165.773 121.458 168.469 121.354 171.285 119.693C172.621 118.949 174.023 118.331 175.474 117.847C180.769 115.946 185.295 118.826 186.506 123.6C187.208 126.468 187.208 129.462 186.506 132.33C185.848 135.547 184.861 138.709 183.995 141.902ZM179.831 140.995C181.166 138.055 182.165 134.973 182.807 131.808C183.285 129.679 183.348 127.478 182.992 125.325C182.382 121.715 179.606 120.198 176.172 121.498C175.217 121.864 174.298 122.318 173.428 122.854C169.352 125.333 165.3 125.694 161.24 122.854C161.136 122.782 161.015 122.734 160.903 122.669C159.981 122.148 158.955 121.835 157.899 121.754C156.842 121.674 155.781 121.826 154.79 122.201C153.799 122.577 152.903 123.165 152.165 123.926C151.427 124.686 150.866 125.599 150.52 126.601C149.381 129.81 149.766 133.156 150.28 136.446C150.313 136.535 150.365 136.616 150.433 136.682C150.502 136.748 150.584 136.798 150.674 136.828C150.764 136.858 150.86 136.867 150.954 136.855C151.048 136.843 151.139 136.81 151.219 136.759C151.555 136.581 151.882 136.385 152.197 136.173C160.093 129.923 173.211 133.076 178.178 139.663C178.345 139.989 178.578 140.275 178.863 140.504C179.148 140.734 179.477 140.901 179.831 140.995ZM163.125 136.59C162.487 136.554 161.847 136.554 161.208 136.59C157.984 136.829 154.983 138.328 152.855 140.763C152.197 141.565 151.572 142.439 151.973 143.539C152.847 145.946 153.69 148.353 155.399 150.335C156.404 151.579 157.677 152.581 159.124 153.266C160.57 153.951 162.151 154.301 163.751 154.29C168.293 154.29 171.855 152.292 174.888 149.147C177.423 146.515 177.496 144.943 175.281 142.127C174.244 140.825 172.967 139.736 171.518 138.917C168.952 137.468 166.071 136.669 163.125 136.59Z" fill="#1B1C1E"/>
<path d="M130.012 111.886C131.544 111.812 133.072 112.106 134.468 112.743C135.863 113.379 137.087 114.34 138.036 115.544C138.85 116.534 139.402 117.712 139.641 118.971C139.763 119.401 139.731 119.861 139.551 120.271C139.371 120.681 139.054 121.016 138.654 121.217C138.228 121.363 137.767 121.363 137.341 121.218C136.916 121.072 136.55 120.79 136.303 120.415C135.902 119.773 135.677 119.011 135.252 118.385C134.623 117.413 133.726 116.646 132.669 116.176C131.611 115.705 130.44 115.553 129.298 115.737C128.276 115.818 127.299 116.19 126.482 116.809C125.664 117.427 125.041 118.266 124.685 119.227C124.34 120.03 124.099 120.912 123.722 121.715C123.589 122.007 123.371 122.254 123.096 122.421C122.821 122.588 122.503 122.669 122.181 122.653C121.796 122.65 121.422 122.528 121.109 122.304C120.796 122.08 120.559 121.765 120.432 121.402C120.208 120.802 120.208 120.14 120.432 119.54C120.881 117.345 122.085 115.376 123.836 113.978C125.586 112.579 127.772 111.839 130.012 111.886Z" fill="#1B1C1E"/>
<path d="M179.831 140.995C179.477 140.9 179.147 140.732 178.862 140.501C178.577 140.27 178.344 139.982 178.178 139.655C173.211 133.068 160.093 129.915 152.198 136.165C151.882 136.377 151.555 136.573 151.219 136.751C151.139 136.802 151.049 136.835 150.954 136.847C150.86 136.859 150.764 136.85 150.674 136.82C150.584 136.79 150.502 136.74 150.434 136.674C150.365 136.608 150.313 136.527 150.28 136.438C149.766 133.148 149.381 129.818 150.521 126.593C150.866 125.591 151.427 124.678 152.165 123.918C152.903 123.157 153.799 122.569 154.79 122.193C155.781 121.818 156.842 121.666 157.899 121.746C158.955 121.827 159.981 122.14 160.903 122.661C161.015 122.726 161.136 122.774 161.24 122.846C165.3 125.694 169.352 125.333 173.428 122.846C174.298 122.31 175.217 121.856 176.172 121.49C179.606 120.19 182.382 121.707 182.992 125.317C183.348 127.47 183.285 129.671 182.807 131.8C182.166 134.968 181.167 138.053 179.831 140.995Z" fill="#C1C0E1"/>
<path d="M163.126 136.59C166.07 136.667 168.952 137.463 171.518 138.909C172.967 139.728 174.244 140.817 175.281 142.119C177.496 144.935 177.424 146.507 174.888 149.139C171.855 152.284 168.293 154.306 163.752 154.282C162.152 154.293 160.57 153.943 159.124 153.258C157.678 152.573 156.405 151.571 155.399 150.327C153.69 148.345 152.848 145.922 151.973 143.531C151.572 142.431 152.198 141.541 152.856 140.755C154.983 138.32 157.984 136.821 161.208 136.582C161.847 136.549 162.487 136.552 163.126 136.59Z" fill="#F0A3C7"/>
</svg>
