<svg width="278" height="279" viewBox="0 0 278 279" fill="none" xmlns="http://www.w3.org/2000/svg">
<rect width="278" height="278" rx="16" fill="#EDAAAA"/>
<path d="M137.38 276.97C137.352 277.396 137.315 277.808 137.27 278.21H137.81C137.893 277.634 137.953 277.026 137.981 276.387C138.101 273.747 137.649 271.113 136.657 268.663C137.319 271.38 137.563 274.181 137.38 276.97Z" fill="#050404"/>
<path d="M80.1572 278.21H80.7321C80.8523 277.802 80.9632 277.377 81.0594 276.932C81.6183 274.339 81.616 271.657 81.0526 269.066C81.249 271.855 81.0192 274.657 80.371 277.377C80.3037 277.663 80.2324 277.94 80.1572 278.21Z" fill="#050404"/>
<path d="M127.797 176.739C128.299 178.938 129.565 180.886 131.371 182.237" stroke="#231F20" stroke-width="0.5" stroke-miterlimit="10"/>
<path d="M130.382 176.563C130.775 178.373 131.761 180.001 133.182 181.189" stroke="#231F20" stroke-width="0.5" stroke-miterlimit="10"/>
<path d="M134.032 177.695C135.058 178.772 136.238 179.691 137.533 180.423" stroke="#231F20" stroke-width="0.5" stroke-miterlimit="10"/>
<path d="M165.732 179.97L167.145 183.572" stroke="#231F20" stroke-width="0.5" stroke-miterlimit="10"/>
<path d="M178.434 178.268C178.554 179.529 178.429 180.802 178.068 182.017" stroke="#231F20" stroke-width="0.5" stroke-miterlimit="10"/>
<path d="M180.911 178.284C181.001 178.89 180.945 179.509 180.748 180.089C180.551 180.669 180.218 181.194 179.777 181.619" stroke="#231F20" stroke-width="0.5" stroke-miterlimit="10"/>
<path d="M185.712 172.681C186.001 173.605 186.173 174.563 186.223 175.531C186.272 176.493 186.009 177.706 185.068 177.917" stroke="#231F20" stroke-width="0.5" stroke-miterlimit="10"/>
<path d="M189.141 170.385C189.273 172.08 188.876 173.774 188.004 175.234" stroke="#231F20" stroke-width="0.5" stroke-miterlimit="10"/>
<path d="M50.7789 278.114H188.585C188.062 268.76 186.121 259.507 182.855 250.882L184.907 254.302C186.126 251.098 185.012 247.438 183.899 244.185C183.406 242.739 182.891 241.26 181.979 240.098C179.731 237.233 175.858 237.12 172.459 237.241C146.059 238.178 119.589 240.018 93.2706 237.519C88.6442 237.079 83.9776 236.508 79.3758 237.198C76.3989 237.645 73.499 238.67 70.8105 240.165C68.122 241.659 65.6282 243.625 63.4506 245.952C61.2274 248.331 59.3697 251.027 57.938 253.951C57.2115 255.43 56.6439 257.001 55.9489 258.502C55.4263 259.633 54.9167 260.75 54.5119 261.941C53.0835 266.14 51.8314 270.425 50.4985 274.662C50.3321 275.19 50.166 275.718 50 276.246L52.2985 274.615C51.7919 275.783 51.2854 276.95 50.7789 278.114Z" fill="#FAEE3C" stroke="#231F20" stroke-width="0.5" stroke-miterlimit="10"/>
<path d="M169.785 278.113H170.295C170.576 274.889 170.666 271.651 170.562 268.416C170.292 259.826 168.778 253.343 167.932 250.217C169.109 256.698 169.765 263.263 169.894 269.849C169.955 272.854 169.903 275.62 169.785 278.113Z" fill="#050404"/>
<path d="M108.969 188.297C108.631 199.565 107.883 211.967 100.855 220.016C98.4688 222.749 95.5104 224.761 92.4854 226.524C85.9999 230.303 79.0472 233.065 71.8881 234.707C68.8102 235.411 65.6348 235.934 62.8502 237.567C60.0656 239.2 57.6864 242.25 57.6519 245.781L59.3582 244.012C59.1431 249.481 56.8724 254.812 53.2158 258.431C54.122 257.286 55.2734 256.36 56.5852 255.719C55.525 258.213 54.4647 260.707 53.4044 263.201C56.6851 261.117 59.1881 257.541 60.2165 253.465C62.2515 255.266 63.9939 257.373 65.381 259.709C64.0173 254.66 66.3355 248.687 70.5571 246.374C71.7895 248.244 71.7969 251.017 70.5756 252.896C72.9788 248.456 76.6335 244.885 80.8835 242.837C81.0517 245.911 80.2149 249.041 78.5672 251.502L87.6482 242.087C88.5861 246.941 88.8192 251.905 88.3402 256.826C90.7551 251.909 94.6779 247.952 99.2859 245.776C98.4719 249.411 99.3925 253.316 101.073 256.554C102.753 259.792 105.14 262.48 107.502 265.128C105.861 261.968 105.09 258.247 105.32 254.597C108.07 253.364 110.542 251.361 112.449 248.816C113.396 251.672 113.293 254.948 112.167 257.72L118.361 248.769C118.985 254.069 121.185 259.116 124.528 262.919C123.396 258.519 123.769 253.652 125.555 249.535C126.661 253.709 126.661 258.1 125.555 262.274C128.205 257.611 129.608 252.069 129.543 246.538C130.701 252.876 133.487 258.829 137.472 263.497C136.61 259.114 135.747 254.73 134.884 250.346C136.408 259.876 147.958 263.184 151.22 272.146C152.934 266.91 153.814 261.436 153.828 255.925C154.371 258.905 154.303 261.965 153.629 264.918C156.756 260.546 157.46 254.157 155.376 249.061C157.163 251.739 158.007 255.194 157.681 258.523C159.2 253.832 159.037 248.485 157.246 243.919C158.993 247.469 159.859 251.559 159.72 255.616C161.966 251.839 162.595 246.903 161.384 242.57C163.837 245.377 165.858 248.534 167.38 251.937C169.28 248.376 170.596 244.534 171.277 240.557C172.48 243.488 173.682 246.418 174.885 249.349L177.825 242.337C178.421 245.361 178.732 248.435 178.753 251.518C180.647 248.169 181.57 244.138 181.347 240.18C182.597 241.958 183.291 244.219 183.282 246.483C184.556 243.496 184.144 239.697 182.274 237.137C180.533 234.756 177.837 233.587 175.267 232.516L159.569 225.968C157.214 224.986 154.829 223.985 152.778 222.356C147.206 217.929 145.13 209.77 144.369 202.152C144.205 200.505 144.071 198.803 143.379 197.339C142.632 195.761 141.32 194.636 140.047 193.563L130.535 185.538L120.957 177.459L116.204 173.447C114.862 172.315 113.399 170.756 111.63 170.666C110.672 170.618 109.602 170.856 109.169 171.93C108.753 172.961 108.913 174.256 109.002 175.343C109.31 179.132 109.135 182.873 109.021 186.672C109.003 187.214 108.986 187.755 108.969 188.297Z" fill="#F4C83E" stroke="#231F20" stroke-width="0.5" stroke-miterlimit="10"/>
<path d="M97.657 89.308L97.7802 89.5581C95.7042 84.4368 91.339 80.0846 86.1887 78.0825C81.0385 76.0805 74.6798 76.9462 70.7608 80.8419C68.604 82.9832 67.31 85.8159 66.0567 88.5833C63.8995 93.3486 61.7428 98.114 59.5865 102.879C58.9087 104.373 58.2197 105.945 58.335 107.58C58.4742 109.552 59.7522 111.244 60.3611 113.126C60.8583 114.672 60.8928 116.324 61.2046 117.918C61.848 121.206 63.6424 124.136 65.4041 126.986C66.8928 129.394 68.4796 131.899 70.9321 133.313C72.9606 134.484 75.362 134.775 77.6894 135.039C80.0809 135.307 82.5205 135.567 84.8768 135.079C86.784 134.683 88.5926 133.805 90.5355 133.669C92.8308 133.507 95.21 134.39 97.3951 133.669C98.495 133.306 99.4286 132.568 100.304 131.811C101.06 131.16 101.816 130.456 102.222 129.546C102.561 128.783 102.63 127.931 102.685 127.098C103.344 116.972 102.593 106.804 100.453 96.8842C100.226 95.8293 99.9788 94.7676 99.508 93.7964C98.6558 92.0415 97.0525 90.4689 97.1985 88.5229C96.9348 88.7836 97.9219 89.0442 97.657 89.308Z" fill="#FAEE3C"/>
<path d="M97.657 89.308L97.7802 89.5581C95.7042 84.4368 91.339 80.0846 86.1887 78.0825C81.0385 76.0805 74.6798 76.9462 70.7608 80.8419C68.604 82.9832 67.31 85.8159 66.0567 88.5833C63.8995 93.3486 61.7428 98.114 59.5865 102.879C58.9087 104.373 58.2197 105.945 58.335 107.58C58.4742 109.552 59.7522 111.244 60.3611 113.126C60.8583 114.672 60.8928 116.324 61.2046 117.918C61.848 121.206 63.6424 124.136 65.4041 126.986C66.8928 129.394 68.4796 131.899 70.9321 133.313C72.9606 134.484 75.362 134.775 77.6894 135.039C80.0809 135.307 82.5205 135.567 84.8768 135.079C86.784 134.683 88.5926 133.805 90.5355 133.669C92.8308 133.507 95.21 134.39 97.3951 133.669C98.495 133.306 99.4286 132.568 100.304 131.811C101.06 131.16 101.816 130.456 102.222 129.546C102.561 128.783 102.63 127.931 102.685 127.098C103.344 116.972 102.593 106.804 100.453 96.8842C100.226 95.8293 99.9788 94.7676 99.508 93.7964C98.6558 92.0415 97.0525 90.4689 97.1985 88.5229C96.9348 88.7836 97.9219 89.0442 97.657 89.308Z" stroke="#231F20" stroke-width="0.5" stroke-miterlimit="10"/>
<path d="M97.3196 98.6699C96.1666 97.0271 95.7458 94.998 95.0273 93.1241C93.9526 90.3191 92.1311 87.7631 89.6724 86.0414C87.2138 84.3197 84.1007 83.4694 81.1349 83.9599C77.055 84.6377 73.693 87.7354 71.723 91.3716C69.7529 95.0078 68.9741 99.1561 68.3474 103.243C68.1009 104.85 67.8729 106.471 67.9394 108.095C68.0048 109.685 68.3505 111.248 68.6949 112.801C69.2027 115.091 69.7141 117.395 70.6052 119.565C72.8266 124.988 77.6829 129.468 83.4648 130.436C86.4669 130.939 89.5375 130.513 92.5514 130.087C93.2951 129.982 94.0494 129.874 94.7383 129.575C95.999 129.027 96.9042 127.905 98.0233 127.11C99.8836 125.784 102.493 125.199 103.461 123.128C104.041 121.887 103.844 120.44 103.634 119.087C103.634 118.286 103.374 117.406 103.252 116.614C103.121 115.77 102.99 114.925 102.859 114.08L102.085 109.073C101.849 107.553 101.609 106.032 101.392 104.508C101.274 103.677 101.099 102.939 100.582 102.259C99.6008 100.968 98.2537 100.002 97.3196 98.6699Z" fill="#E2C7A0"/>
<path d="M97.3196 98.6699C96.1666 97.0271 95.7458 94.998 95.0273 93.1241C93.9526 90.3191 92.1311 87.7631 89.6724 86.0414C87.2138 84.3197 84.1007 83.4694 81.1349 83.9599C77.055 84.6377 73.693 87.7354 71.723 91.3716C69.7529 95.0078 68.9741 99.1561 68.3474 103.243C68.1009 104.85 67.8729 106.471 67.9394 108.095C68.0048 109.685 68.3505 111.248 68.6949 112.801C69.2027 115.091 69.7141 117.395 70.6052 119.565C72.8266 124.988 77.6829 129.468 83.4648 130.436C86.4669 130.939 89.5375 130.513 92.5514 130.087C93.2951 129.982 94.0494 129.874 94.7383 129.575C95.999 129.027 96.9042 127.905 98.0233 127.11C99.8836 125.784 102.493 125.199 103.461 123.128C104.041 121.887 103.844 120.44 103.634 119.087C103.634 118.286 103.374 117.406 103.252 116.614C103.121 115.77 102.99 114.925 102.859 114.08L102.085 109.073C101.849 107.553 101.609 106.032 101.392 104.508C101.274 103.677 101.099 102.939 100.582 102.259C99.6008 100.968 98.2537 100.002 97.3196 98.6699Z" stroke="#231F20" stroke-width="0.5" stroke-miterlimit="10"/>
<path d="M70.877 86.2269C71.1635 85.8381 75.7364 79.8529 83.2664 80.4216C89.5283 80.8943 93.0259 85.5361 93.5287 86.2269C92.7769 85.4104 89.0711 81.5554 83.0162 81.2356C75.9896 80.8659 71.4956 85.5552 70.877 86.2269Z" fill="black"/>
<path d="M68.8702 119.787C68.7167 119.636 66.3252 117.213 65.1588 112.45C64.1888 108.489 64.8106 105.95 64.9067 105.584C64.8211 106.116 64.4446 108.727 65.4194 112.548C66.5508 116.979 68.5843 119.449 68.8702 119.787Z" fill="black"/>
<path d="M90.5876 97.7499C90.3023 97.4375 86.1114 93.0002 80.2008 94.0219C75.4886 94.8371 71.6971 98.7734 70.877 103.82C72.0724 99.2633 75.7585 95.8939 80.1379 95.3097C85.364 94.6122 89.0366 98.2182 89.4611 98.6502C84.9012 101.044 81.9434 105.623 81.7647 110.64C81.5324 117.2 86.1626 121.3 86.7708 121.818C86.1262 121.14 82.3199 117.007 82.7654 110.89C83.3286 103.171 90.1451 99.4223 90.5869 99.1894L95.9689 97.5651L95.4679 96.5643L90.5876 97.7499Z" fill="black"/>
<path d="M100.473 113.833C99.5555 116.554 98.0638 119.046 96.099 121.141C94.1342 123.235 91.7421 124.883 89.085 125.972C91.9177 125.17 94.5056 123.675 96.6145 121.621C98.7234 119.567 100.287 117.019 101.163 114.208L100.473 113.833Z" fill="black"/>
<path d="M194.232 76.2992L194.028 76.4489C197.878 73.183 202.865 71.4428 207.233 71.8982C211.601 72.3536 215.376 75.5862 216.074 80.2681C216.459 82.8414 215.943 85.6291 215.429 88.3404L212.772 102.365C212.495 103.829 212.189 105.363 211.321 106.625C210.273 108.148 208.61 108.989 207.298 110.253C206.221 111.291 205.398 112.599 204.42 113.75C202.403 116.123 199.799 117.751 197.258 119.327C195.109 120.659 192.849 122.029 190.546 122.181C188.641 122.305 186.916 121.581 185.254 120.861C183.546 120.121 181.811 119.354 180.493 118.021C179.426 116.944 178.658 115.518 177.443 114.632C176.006 113.585 174.01 113.342 172.917 111.893C172.367 111.164 172.11 110.201 171.897 109.243C171.712 108.42 171.556 107.556 171.73 106.665C171.874 105.919 172.242 105.21 172.61 104.521C177.07 96.1708 182.474 88.3596 188.716 81.2411C189.377 80.4881 190.054 79.737 190.836 79.1491C192.248 78.0849 194.067 77.4669 194.913 75.8524C194.961 76.1704 194.184 75.9849 194.232 76.2992Z" fill="#FAEE3C" stroke="#231F20" stroke-width="0.5" stroke-miterlimit="10"/>
<path d="M189.919 83.926C191.475 83.0726 192.735 81.6171 194.118 80.4044C196.186 78.5897 198.623 77.2735 201.081 76.8766C203.538 76.4798 206.003 77.0461 207.72 78.6223C210.085 80.7926 210.801 84.6156 210.339 88.3116C209.877 92.0076 208.383 95.637 206.816 99.1568C206.2 100.541 205.566 101.93 204.735 103.201C203.922 104.447 202.937 105.559 201.958 106.664C200.514 108.293 199.061 109.93 197.422 111.313C193.329 114.764 187.956 116.408 183.673 114.873C181.449 114.076 179.629 112.509 177.848 110.965C177.408 110.584 176.962 110.196 176.653 109.682C176.087 108.74 176.033 107.481 175.681 106.395C175.097 104.591 173.659 103.08 174.023 101.038C174.241 99.8137 175.071 98.7347 175.866 97.7352C176.253 97.0956 176.852 96.4948 177.316 95.91L178.802 94.0392L181.738 90.342C182.63 89.2186 183.525 88.0984 184.407 86.9658C184.887 86.3496 185.36 85.8276 186.03 85.4906C187.301 84.8534 188.657 84.618 189.919 83.926Z" fill="#E2C7A0" stroke="#231F20" stroke-width="0.5" stroke-miterlimit="10"/>
<path d="M213.391 84.5304C213.391 84.1053 213.273 77.4903 208.03 74.9373C203.671 72.8151 199.114 75.1314 198.448 75.4833C199.34 75.1302 203.651 73.5268 207.8 75.6897C212.615 78.2002 213.307 83.7491 213.391 84.5304Z" fill="black"/>
<path d="M198.458 112.183C198.632 112.122 201.384 111.141 204.461 107.795C207.02 105.014 207.839 102.735 207.953 102.404C207.752 102.864 206.736 105.102 204.242 107.769C201.349 110.863 198.81 112.027 198.458 112.183Z" fill="black"/>
<path d="M194.805 85.8811C195.144 85.745 200.058 83.8686 203.462 87.0476C206.177 89.5815 206.773 94.2461 204.868 98.6095C206.285 94.4865 205.484 90.3191 202.88 88.1026C199.771 85.4572 195.601 86.8757 195.111 87.0507C196.96 90.788 196.695 95.632 194.381 99.7168C191.358 105.058 186.318 106.487 185.665 106.66C186.418 106.376 190.931 104.589 193.6 99.5172C196.968 93.1166 194.286 87.3952 194.107 87.0322L191.345 83.5815L192.16 82.9807L194.805 85.8811Z" fill="black"/>
<path d="M180.493 94.7971C180.058 96.353 179.446 99.2128 179.859 102.554C180.251 105.719 181.388 107.892 182.126 109.057C181.325 108.097 179.878 106.053 179.308 102.811C178.692 99.2991 179.431 96.2409 179.857 94.823L180.493 94.7971Z" fill="black"/>
<path d="M105.177 181.208C105.794 180.083 105.649 178.587 104.827 177.602C108.061 181.606 110.637 186.099 112.46 190.912L110.269 181.683C112.361 182.768 113.964 184.605 114.756 186.825C114.648 185.58 114.332 184.362 113.82 183.222C115.329 185.876 117.236 188.284 119.474 190.36C120.859 191.644 122.423 192.875 123.11 194.634C121.407 191.7 119.879 188.669 118.532 185.556C121.34 187.058 122.779 190.203 124.901 192.577C128.407 196.502 133.724 198.237 138.874 199.321C135.209 196.504 133.035 192.203 129.944 188.767C126.832 185.308 122.814 182.756 119.724 179.277C117.524 176.801 115.841 173.912 114.228 171.02C112.978 168.784 111.755 166.534 110.56 164.269C109.588 162.427 108.573 160.503 106.871 159.303C105.169 158.104 102.557 157.914 101.165 159.466C100.173 160.575 100.105 162.152 100.235 163.56C100.398 165.332 100.752 167.098 101.027 168.859C101.212 170.052 101.394 171.268 101.87 172.386C102.345 173.505 103 174.537 103.537 175.622C104.407 177.373 104.962 179.264 105.177 181.208Z" fill="#D78A36" stroke="#231F20" stroke-width="0.5" stroke-miterlimit="10"/>
<path d="M129.999 120.814C132.545 121.77 135.346 121.694 138.062 121.579C141.778 121.42 145.552 121.197 149.06 119.96C146.119 123.775 140.975 124.902 136.535 126.77C136.304 126.867 136.067 126.972 135.89 127.151C135.548 127.497 135.509 128.027 135.397 128.499C135.216 129.282 134.803 129.988 134.395 130.68L124.743 147.071C122.8 150.37 120.785 153.752 117.758 156.097C118.095 146.903 124.115 138.99 126.868 130.212C127.12 129.407 127.348 128.564 127.23 127.728C127.039 126.373 125.998 125.325 125.243 124.185C123.929 122.203 123.456 119.706 123.863 117.371C123.951 116.863 124.037 116.101 124.332 115.667C124.606 115.263 125.081 115.595 125.224 115.939C125.436 116.446 125.562 116.952 125.841 117.435C126.121 117.912 126.456 118.354 126.839 118.753C127.726 119.667 128.805 120.372 129.999 120.814Z" fill="black"/>
<path d="M94.4292 172.342C95.4209 168.61 96.4126 164.879 97.4042 161.148C97.6957 167.023 100.023 172.778 103.896 177.204C103.235 174.667 102.653 172.111 102.15 169.536C105.335 174.749 107.913 180.309 109.834 186.108C111.169 182.254 110.851 177.859 108.976 174.237C111.031 176.477 112.609 179.11 113.617 181.978C113.562 180.099 113.506 178.219 113.451 176.34L116.488 181.655C116.25 180.299 116.012 178.942 115.773 177.583C116.672 178.883 117.472 180.248 118.167 181.667C118.755 182.865 119.273 184.114 120.083 185.174C120.789 186.098 121.693 186.844 122.597 187.577C128.498 192.339 134.754 196.644 141.31 200.456C142.562 196.373 144.597 192.573 147.301 189.268C141.18 186.714 135.15 183.952 129.211 180.98C126.224 179.485 123.223 177.91 120.782 175.631C116.68 171.8 114.55 166.381 111.854 161.458C111.329 160.501 110.771 159.548 109.996 158.779C109.141 157.931 108.062 157.353 107.066 156.675C104.462 154.898 102.402 152.432 101.117 149.554C100.738 148.7 100.368 147.686 99.4439 147.293C98.3779 146.836 97.7407 147.575 97.2872 148.454C96.4085 150.161 95.9383 152.165 95.629 154.054C95.4219 155.32 95.3825 156.601 95.2734 157.875C95.0972 159.983 94.7071 162.065 94.5167 164.171C94.2697 166.888 94.2405 169.62 94.4292 172.342Z" fill="#050404"/>
<path d="M142.132 192.48C154.356 193.946 166.657 194.685 178.968 194.693C182.115 194.693 185.414 194.612 188.158 193.069C190.902 191.527 192.814 188.035 191.535 185.16C193.378 184.435 193.243 181.196 191.346 180.628C195.03 175.505 194.275 168.406 192.181 162.454C190.088 156.501 186.817 150.898 185.826 144.666C185.294 141.318 185.431 137.835 184.337 134.626C183.492 132.145 181.949 129.955 181.039 127.498C180.128 125.041 179.976 122.014 181.703 120.046C182.524 119.11 183.707 118.485 184.31 117.396C185.296 115.614 184.32 113.346 182.928 111.86C181.536 110.374 179.733 109.266 178.587 107.583C178.044 106.785 177.719 105.584 178.439 104.942C178.791 104.629 179.286 104.557 179.737 104.424C183.209 103.398 183.996 98.9152 184.149 95.2975C184.374 89.9291 184.6 84.5605 184.826 79.1917C184.995 75.1666 184.92 70.5445 181.861 67.9237C179.245 65.6832 175.418 65.7861 171.984 66.0419C162.025 66.7813 152.09 67.7878 142.181 69.0613C137.674 69.6393 133.118 70.2875 128.921 72.0277C123.298 74.3588 118.648 78.5089 114.223 82.6881C111.127 85.6113 107.944 88.8249 106.972 92.9701C106.105 96.671 107.145 100.518 108.102 104.197C110.803 114.577 112.897 125.233 112.544 135.954C112.362 141.478 111.531 146.973 111.517 152.501C111.51 156.928 112.027 161.341 113.058 165.647C113.906 169.193 115.08 172.727 116.467 176.101C117.368 178.291 118.678 180.141 120.205 181.939C122.785 184.978 125.443 187.732 129.118 189.421C132.746 191.085 136.73 191.786 140.662 192.296C141.152 192.36 141.642 192.421 142.132 192.48Z" fill="#E2C7A0" stroke="#231F20" stroke-width="0.5" stroke-miterlimit="10"/>
<path d="M162.547 84.7023C162.768 82.5096 162.856 80.3055 162.811 78.1021C162.798 77.4859 162.822 76.8321 162.732 76.222C161.664 76.3237 162.235 77.9474 162.304 78.6C162.443 79.9031 162.525 81.2104 162.551 82.5221C162.568 83.2376 162.62 83.9899 162.547 84.7023Z" fill="black"/>
<path d="M164.155 86.7335C163.285 89.9328 162.06 93.0631 161.724 96.3617C161.564 97.9488 161.615 99.5499 161.874 101.124C162.029 102.065 162.391 103.144 163.3 103.435C161.66 100.612 161.787 97.0876 162.523 93.9061C163.259 90.7246 164.549 87.6824 165.111 84.4652C165.542 81.9764 165.533 79.4271 165.254 76.9216C165.231 76.7146 165.24 76.4028 165.123 76.2228C165 76.4385 165.03 76.7971 165.018 77.0424C164.99 77.6247 164.985 78.2089 164.991 78.7918C165.007 80.4303 165.083 82.0183 164.829 83.6494C164.662 84.6891 164.437 85.7188 164.155 86.7335Z" fill="black"/>
<path d="M180.313 129.045C180.78 127.774 180.266 126.363 179.652 125.156C179.039 123.949 178.297 122.725 178.297 121.372C178.297 121.115 178.316 120.834 178.166 120.626C178.026 120.433 177.778 120.356 177.545 120.301C174.446 119.569 171.228 120.394 168.117 119.783C167.242 119.611 166.501 119.261 165.7 118.902C165.432 119.169 164.689 119.985 164.829 120.411C164.948 120.771 165.59 120.828 165.894 120.897C167.166 121.187 168.408 121.685 169.61 122.188C172.135 123.246 174.535 124.581 176.766 126.169C177.39 126.613 177.999 127.077 178.595 127.56C178.773 127.704 180.369 128.894 180.313 129.045Z" fill="#B5915E" stroke="#231F20" stroke-width="0.5" stroke-miterlimit="10"/>
<path d="M140.507 122.313C141.225 121.971 141.937 121.591 142.716 121.428C143.678 121.227 144.673 121.372 145.656 121.359C146.638 121.346 147.698 121.131 148.346 120.392C146.409 122.907 143.913 124.937 141.054 126.319C138.134 127.726 134.758 128.517 132.567 130.906C132.776 129.848 132.93 128.78 133.03 127.706C133.101 126.923 133.03 126.036 133.297 125.283C133.489 124.74 133.921 124.458 134.457 124.302C135.406 124.026 136.381 123.864 137.326 123.562C138.414 123.22 139.477 122.803 140.507 122.313Z" fill="#B18D5C" stroke="#231F20" stroke-width="0.5" stroke-miterlimit="10"/>
<path d="M144.735 126.659C144.521 128.722 144.307 130.784 144.093 132.846" stroke="#231F20" stroke-width="0.5" stroke-miterlimit="10"/>
<path d="M147.741 128.532C147.917 130.811 148.722 132.996 150.066 134.846" stroke="#231F20" stroke-width="0.5" stroke-miterlimit="10"/>
<path d="M172.369 126.994C173.009 128.341 173.648 129.687 174.287 131.034C174.44 131.355 174.804 131.73 175.073 131.499" stroke="#231F20" stroke-width="0.5" stroke-miterlimit="10"/>
<path d="M133.816 112.822C132.665 113.211 131.436 113.875 131.127 115.049C130.93 115.796 131.163 116.602 131.567 117.261C132.722 119.148 135.108 119.956 137.321 119.937C139.533 119.917 141.676 119.227 143.844 118.787C145.927 118.364 148.049 118.169 150.174 118.206C150.47 118.211 150.898 118.315 150.809 117.898C150.74 117.576 150.409 117.26 150.193 117.03C149.63 116.429 149.017 115.876 148.361 115.378C147.058 114.388 145.612 113.602 144.072 113.046C142.525 112.484 140.902 112.158 139.258 112.08C137.617 112 135.974 112.189 134.395 112.64C134.201 112.696 134.008 112.757 133.816 112.822Z" fill="#B18D5C"/>
<path d="M171.299 118.878C172.425 118.984 173.558 119.09 174.688 119.011C176.25 118.9 177.766 118.439 179.125 117.661C179.445 117.476 179.768 117.263 179.949 116.942C180.355 116.22 179.887 115.319 179.337 114.698C177.538 112.664 174.684 111.623 171.998 112.015C171.422 112.099 170.849 112.246 170.334 112.521C168.984 113.244 168.239 114.714 167.578 116.095C167.324 116.627 167.066 117.182 166.992 117.773C166.925 118.304 167.043 118.471 167.556 118.527C168.801 118.665 170.052 118.763 171.299 118.878Z" fill="#B5915E"/>
<path d="M136.632 119.59C138.111 120.271 139.83 120.008 141.433 119.731L145.756 118.985C147.227 118.731 148.769 118.482 150.185 118.956C151.714 119.467 152.873 120.771 153.574 122.221C154.274 123.672 154.571 125.281 154.863 126.866C154.726 123.671 153.472 120.625 151.32 118.259C149.168 115.892 146.254 114.356 143.086 113.917C142.211 113.79 141.325 113.765 140.444 113.84C138.827 113.99 137.392 114.566 135.994 115.362C135.595 115.59 135.089 115.74 134.895 116.193C134.659 116.744 134.829 117.472 135.068 117.989C135.383 118.676 135.944 119.272 136.632 119.59Z" fill="black"/>
<path d="M165.239 118.535C166.04 117.467 167.272 116.762 167.965 115.623C168.269 115.124 168.472 114.541 168.923 114.17C169.24 113.91 169.643 113.785 170.033 113.667C171.344 113.27 172.682 112.866 174.053 112.909C175.423 112.951 176.852 113.506 177.596 114.656C177.789 114.956 177.934 115.296 177.955 115.652C178.006 116.526 177.286 117.294 176.466 117.603C175.647 117.912 174.741 117.87 173.868 117.849C171.65 117.788 169.349 117.896 167.34 118.845C166.406 119.284 165.581 119.924 164.924 120.72C164.54 121.189 164.307 121.969 163.858 122.345C163.789 121.785 164.108 121.015 164.282 120.483C164.51 119.792 164.802 119.118 165.239 118.535Z" fill="black"/>
<path d="M151.248 103.181C148.968 104.467 147.046 106.315 145.364 108.323C147.43 106.368 149.539 104.38 152.098 103.139C154.657 101.899 157.783 101.493 160.325 102.77C155.498 103.936 150.584 105.358 146.653 108.387C148.981 106.605 151.611 105.258 154.417 104.409C156.532 103.771 158.799 103.423 160.949 103.928C162.142 104.207 163.259 104.736 164.393 105.2C168.453 106.86 172.799 107.706 177.185 107.69C177.253 107.274 176.674 107.101 176.253 107.093C174.145 107.058 172.011 106.902 170.017 106.219C167.848 105.476 165.94 104.144 163.916 103.067C162.243 102.176 160.466 101.548 158.575 101.325C157.158 101.158 155.579 101.542 154.225 101.927C153.187 102.226 152.188 102.648 151.248 103.181Z" fill="black"/>
<path d="M132.519 109.055C134.971 108.48 137.515 108.467 140.033 108.391C144.189 108.268 148.334 107.964 152.469 107.48C156.782 106.978 161.08 106.281 165.418 106.163C169.757 106.045 174.189 106.533 178.152 108.304L166.233 106.931C165.018 106.792 163.796 106.651 162.574 106.724C161.306 106.8 160.063 107.105 158.822 107.376C150.923 109.101 142.805 109.511 134.738 110.057C132.321 110.221 129.788 110.432 127.586 111.529C127.109 111.767 126.544 112.049 126.169 112.434C126.841 112.188 127.368 111.539 127.927 111.118C128.793 110.477 129.746 109.963 130.757 109.592C131.332 109.376 131.921 109.196 132.519 109.055Z" fill="black"/>
<path d="M159.963 120.095C161.298 118.649 161.972 116.687 162.168 114.728C162.257 113.837 162.255 112.941 162.252 112.042L162.245 109.701C162.245 109.042 162.242 108.381 162.163 107.729C162.108 107.264 162.044 106.509 161.547 106.28C160.423 105.764 161.301 107.759 161.353 108.102C161.556 109.388 161.487 110.764 161.451 112.061C161.422 113.349 161.308 114.634 161.111 115.907C160.889 117.343 160.504 118.748 159.963 120.095Z" fill="black"/>
<path d="M162.87 107.789C163.854 111.383 163.861 115.175 162.89 118.772C162.076 121.77 160.576 124.75 161.07 127.819C161.236 128.845 161.625 129.824 161.836 130.838C162.098 132.086 162.098 133.372 162.178 134.645C162.393 138.052 163.186 141.399 164.523 144.541C166.471 149.113 169.553 153.21 170.86 158.005C170.065 155.816 169.27 153.626 168.475 151.437C168.167 150.581 167.851 149.719 167.373 148.944C166.957 148.266 166.424 147.67 166.022 146.986C165.484 146.069 165.201 145.027 164.935 143.997C163.717 139.276 162.755 134.494 162.051 129.669C161.909 128.695 161.777 127.714 161.815 126.73C161.864 125.444 162.201 124.188 162.534 122.945C163.977 117.567 165.391 111.803 163.6 106.531C163.442 106.064 162.832 105.545 162.578 105.966C163.287 108.047 163.68 110.222 163.744 112.419C163.776 113.493 163.737 114.611 164.187 115.585" fill="black"/>
<path d="M164.22 147.314C164.379 147.815 164.54 148.324 164.82 148.771C165.022 149.094 165.282 149.378 165.498 149.691C166.299 150.847 166.596 152.464 167.839 153.127C167.454 152.335 166.835 151.686 166.303 150.983C164.913 149.146 164.117 146.926 163.582 144.685C163.467 144.201 163.358 143.716 163.203 143.243C163.09 142.897 162.889 142.148 162.557 141.966C162.512 142.307 162.82 142.894 162.927 143.24C163.07 143.691 163.214 144.143 163.358 144.595L164.22 147.314Z" fill="black"/>
<path d="M166.596 155.747C167.649 157.329 168.45 159.062 169.245 160.787C172.306 167.405 175.423 174.259 175.603 181.549C175.618 182.122 175.99 182.938 176.486 182.651C176.751 182.497 176.76 182.126 176.733 181.821C176.33 176.854 175.563 171.922 174.438 167.066C173.956 164.985 173.277 162.729 171.487 161.563C172.411 162.62 172.909 163.978 173.346 165.315C174.665 169.353 175.617 173.502 176.192 177.711C175.035 175.993 174.64 173.89 174.116 171.889C173.066 167.873 171.408 164.042 169.198 160.528L169.928 160.947" fill="black"/>
<path d="M128.514 91.403C126.436 93.5602 124.503 95.8525 122.727 98.2651C122.599 98.4401 122.466 98.628 122.45 98.8443C122.43 99.1081 122.586 99.3496 122.744 99.5616C124.788 102.304 128.105 103.759 131.346 104.858C132.855 105.369 134.418 105.835 136.008 105.756C136.801 105.717 137.587 105.542 138.381 105.563C139.038 105.581 139.689 105.732 140.346 105.716C141.422 105.689 142.436 105.219 143.498 105.042C144.184 104.928 144.887 104.937 145.569 104.802C146.288 104.659 146.966 104.361 147.636 104.062L150.575 102.763C151.706 102.262 152.864 101.744 153.74 100.872C154.617 100 155.162 98.6835 154.784 97.5065C154.632 97.0339 154.345 96.6186 154.106 96.1823C153.618 95.2827 153.337 94.2856 153.097 93.2905C152.387 90.3464 152.005 87.3329 151.958 84.3049C151.953 84.0541 151.951 83.7978 151.863 83.5624C151.728 83.2013 151.409 82.9406 151.078 82.7428C149.667 81.9042 147.912 81.9418 146.285 82.1538C142.818 82.609 139.472 83.7373 136.437 85.4751C133.279 87.2861 130.529 89.7165 127.828 92.156" fill="#B18D5C"/>
<path d="M122.45 98.8449H125.251L145.364 98.124L152.032 97.0111L154.336 96.7942C153.929 97.2699 153.329 97.9693 152.595 98.8123C150.63 101.07 150.32 101.358 150.03 101.597C148.856 102.559 147.75 102.912 146.181 103.412C144.297 104.008 142.336 104.332 140.36 104.374C134.139 103.471 128.096 101.606 122.448 98.8449H122.45Z" fill="#D1D3D4"/>
<path d="M132.086 87.3325C136.382 84.0832 141.557 81.8587 146.937 81.6116C150.415 81.4514 154.255 82.319 156.333 85.1129C154.906 84.8107 153.532 84.2991 152.255 83.5945C152.117 88.135 152.973 92.6509 154.763 96.8257C153.67 96.6575 153.127 95.4294 152.822 94.3658C151.911 91.1898 151.368 87.9194 151.205 84.6193C151.184 84.1842 151.158 83.7178 150.892 83.3727C150.532 82.905 149.868 82.8249 149.278 82.8039C144.807 82.6563 140.381 83.7489 136.492 85.9608C131.609 88.7497 127.88 93.1285 123.962 97.1616C123.531 97.6083 123.085 98.0514 122.581 98.4199C122.435 98.5271 122.221 98.7717 122.099 98.5653C121.993 98.3866 122.228 98.1087 122.315 97.9805C122.981 96.9995 123.675 96.039 124.397 95.0991C125.824 93.2346 127.396 91.4851 129.097 89.8669C130.047 88.9684 131.045 88.1223 132.086 87.3325Z" fill="black"/>
<path d="M155.135 96.6949C152.986 96.5889 150.863 97.2052 149.104 98.4456C148.339 98.9885 147.641 99.6527 146.771 100.006C146.044 100.302 145.246 100.36 144.463 100.414C142.42 100.557 140.31 100.691 138.376 100.014C137.678 99.768 137.016 99.4229 136.31 99.1998C134.647 98.6748 132.849 98.8726 131.105 98.9743C128.761 99.1111 126.409 99.0648 124.072 98.8356C123.592 98.7888 123.016 98.7999 122.562 98.6372C124.63 98.5183 126.735 98.6298 128.809 98.5898C130.945 98.5487 133.083 98.4801 135.221 98.384C137.347 98.2886 139.472 98.1654 141.596 98.0142C143.729 97.8647 145.86 97.6874 147.989 97.4824C150.107 97.277 152.223 97.0468 154.336 96.7917C154.603 96.7609 154.869 96.7286 155.135 96.6949Z" fill="black"/>
<path d="M147.508 102.734C146.56 103.118 145.55 103.329 144.539 103.484C140.427 104.116 136.13 103.839 132.255 102.325C131.196 101.911 130.172 101.407 129.102 101.023C127.047 100.284 124.736 99.9387 123.148 98.4413C122.823 98.4689 122.507 98.5638 122.221 98.7198C121.935 98.8758 121.684 99.0897 121.484 99.3477C122.224 99.7353 122.755 100.411 123.329 101.011C124.586 102.328 126.115 103.356 127.809 104.023C128.658 104.357 129.541 104.597 130.421 104.836C132.683 105.452 135.003 106.068 137.337 105.858C137.593 105.835 137.937 105.615 137.776 105.414C135.692 105.279 133.6 105.075 131.58 104.544C129.758 104.064 128.014 103.322 126.404 102.342C125.425 101.746 124.475 101.038 123.874 100.062C124.72 99.8604 125.488 100.534 126.227 100.993C126.815 101.358 127.467 101.605 128.114 101.85C131.155 102.994 134.24 104.123 137.468 104.499C140.787 104.885 144.15 104.466 147.273 103.278C148.477 102.819 149.654 102.236 150.609 101.373C151.253 100.791 151.78 100.096 152.308 99.4013L153.097 98.3618L153.492 97.8417C153.546 97.7715 153.866 97.4449 153.848 97.366C153.804 97.1744 153.36 97.6907 153.331 97.7277C153.106 98.0112 152.877 98.2921 152.645 98.5707C151.727 99.6688 150.735 100.719 149.571 101.563C148.934 102.036 148.241 102.429 147.508 102.734Z" fill="black"/>
<path d="M164.365 89.8662C164.354 89.9081 164.344 89.9494 164.333 89.9895C163.588 90.4208 163.113 91.1208 162.792 91.9219C162.472 92.723 162.349 93.5857 162.259 94.4434C162.096 95.9819 162.037 97.5297 162.084 99.0761C162.099 99.5924 162.128 100.117 162.304 100.604C162.411 100.902 162.574 101.186 162.612 101.501C162.644 101.758 162.593 102.02 162.617 102.278C162.679 102.907 163.243 103.449 163.874 103.481C163.892 102.454 163.91 101.428 163.929 100.404C164.631 101.736 166.012 102.544 167.323 103.284C167.939 103.63 168.562 103.98 169.241 104.175C170.447 104.518 171.733 104.345 172.974 104.17C173.488 104.096 174.008 104.022 174.493 103.836C175.094 103.604 175.616 103.21 176.128 102.82L178.002 101.397C178.961 100.669 179.955 99.8975 180.467 98.8092C180.692 98.3298 180.811 97.7617 180.615 97.273C180.389 96.7037 179.814 96.3728 179.357 95.9617C178.58 95.2587 178.134 94.2715 177.709 93.3121C176.736 91.1196 175.742 88.794 176.019 86.4105C176.073 85.9441 176.166 85.4302 175.907 85.0382C175.701 84.7258 175.313 84.5779 174.94 84.5453C174.397 84.4966 173.858 84.65 173.337 84.8183C169.913 85.9314 166.756 87.7393 164.062 90.1287C164.2 89.8108 164.338 89.4924 164.475 89.1736" fill="#B18D5C"/>
<path d="M171.7 85.2207C173.487 84.5552 175.421 84.0992 177.303 84.4196C179.185 84.74 181.003 85.9675 181.578 87.7878C180.927 87.0099 180.124 86.3738 179.217 85.9189C178.311 85.464 177.321 85.1999 176.308 85.143C175.734 88.2857 177.005 91.4524 178.433 94.3091C179.021 95.4848 179.967 96.8275 181.268 96.6593L178.953 97.013C178.543 94.7602 177.147 92.8228 176.345 90.6784C175.808 89.2401 175.542 87.7151 175.559 86.1801C175.559 85.9188 175.565 85.6317 175.398 85.4308C175.248 85.2502 175 85.1892 174.767 85.159C173.428 84.9865 172.1 85.4992 170.881 86.0833C168.47 87.2336 166.216 88.687 164.174 90.4085C163.599 90.8922 163.047 91.3994 162.505 91.9194C163.268 91.0537 163.901 90.0456 164.75 89.2587C165.964 88.1335 167.448 87.2344 168.908 86.4685C169.811 85.9942 170.744 85.5775 171.7 85.2207Z" fill="black"/>
<path d="M164.174 97.8454C163.939 98.2768 165.024 99.3859 165.949 100.026C166.184 100.188 166.447 100.334 166.983 100.61C167.861 101.062 168.75 101.518 169.711 101.745C170.07 101.826 170.433 101.885 170.799 101.922C172.428 102.102 174.107 102.05 175.66 101.526C177.409 100.928 178.911 99.7658 179.927 98.2213C180.051 98.029 180.375 97.1885 180.076 96.9057C179.908 96.7467 179.623 96.8441 178.956 97.0111C178.956 97.0111 177.775 97.3124 176.56 97.5293C175.9 97.6476 175.916 97.6014 174.863 97.7678C174.031 97.8996 173.592 97.997 173.28 98.0525C172.015 98.2761 171.483 98.0525 167.585 97.7739C167.585 97.7739 167.313 97.7542 166.145 97.7216C164.413 97.6729 164.243 97.7191 164.174 97.8454Z" fill="#D1D3D4"/>
<path d="M161.811 97.374C164.688 97.7028 167.584 97.8323 170.478 97.7616C173.38 97.6906 176.273 97.4188 179.136 96.9482C179.398 96.9121 179.531 96.9036 179.535 96.923C179.548 96.9846 178.234 97.3338 175.591 97.9705C174.385 99.5196 172.543 100.335 170.766 100.055C169.312 99.8265 168.374 98.9398 168.02 98.5651L161.505 98.376C161.756 97.8171 163.382 98.3402 161.505 98.376C161.606 98.0408 161.708 97.7068 161.811 97.374Z" fill="black"/>
<path d="M178.141 99.7008C177.75 100.025 177.326 100.307 176.874 100.539C174.89 101.594 172.616 101.976 170.396 101.628C168.176 101.279 166.129 100.219 164.562 98.6077C164.562 98.8825 164.712 99.1339 164.871 99.3564C165.866 100.724 167.445 101.583 169.087 101.991C170.728 102.399 172.443 102.396 174.132 102.312C174.472 102.296 174.816 102.275 175.142 102.174C175.529 102.05 175.871 101.822 176.216 101.61C177.572 100.784 179.174 100.112 179.881 98.6939C178.479 100.817 176.426 102.412 174.411 103.966C176.039 103.197 177.564 102.228 178.95 101.081C179.576 100.563 180.183 99.9954 180.564 99.2781C180.925 98.5885 181.059 97.8018 180.945 97.0314C180.923 96.8823 180.935 96.7812 180.776 96.7424C180.641 96.7119 180.502 96.707 180.366 96.7283C180.026 96.7769 179.826 96.9328 179.725 97.2582C179.602 97.663 179.467 98.0303 179.245 98.3969C178.949 98.8881 178.576 99.3284 178.141 99.7008Z" fill="black"/>
<path d="M179.859 128.969C180.528 131.156 181.011 133.529 182.583 135.193C182.756 134.91 182.865 134.592 182.903 134.262C182.94 133.932 182.905 133.598 182.799 133.283C183.639 136.081 184.583 138.845 185.63 141.576C187.075 136.183 184.432 130.578 184.352 124.996C184.318 122.619 184.703 120.036 183.416 118.037C182.823 119.007 181.538 119.226 180.418 119.422C179.298 119.618 177.944 119.795 176.905 120.285C175.878 120.769 176.566 121.707 176.986 122.424C178.196 124.486 179.16 126.683 179.859 128.969Z" fill="#FAEE3C" stroke="#231F20" stroke-width="0.5" stroke-miterlimit="10"/>
<path d="M99.4801 99.0957C99.8289 103.94 100.901 108.709 101.261 113.553C102.678 132.662 92.9933 151.287 94.3206 170.403C94.9598 162.539 96.9757 154.848 100.276 147.682C99.2287 150.754 98.1676 153.951 98.5343 157.176C98.9976 161.255 101.644 164.688 103.619 168.288C106.376 173.324 107.904 178.94 108.079 184.679C108.098 175.451 108.119 166.222 108.14 156.994C106.619 166.023 117.145 174.327 114.482 183.087C114.066 161.495 125.372 141.628 136.331 123.019C133.758 124.515 130.578 122.739 128.15 121.017C127.274 120.396 126.363 119.732 125.896 118.764C124.713 116.303 126.937 113.632 128.967 111.806C122.588 112.068 115.3 109.009 113.74 102.818C112.988 99.8346 113.705 96.6753 114.759 93.7846C117.017 87.5881 120.904 81.9128 126.211 77.9962C131.518 74.0796 138.28 72.019 144.824 72.8422C149.501 73.4307 153.918 75.4229 158.599 75.9812C165.446 76.7977 172.402 74.4364 178.1 70.553C178.642 70.1833 179.205 69.7883 179.856 69.7113C181.799 69.4814 182.814 71.9494 183.026 73.8941C183.624 79.3919 183.093 84.9427 182.561 90.4466C181.924 97.0401 180.805 104.496 175.349 108.255C176.036 108.046 176.763 108.002 177.47 108.126C178.178 108.25 178.846 108.539 179.422 108.969C182.873 102.679 184.751 95.669 186.599 88.7367C187.737 84.4684 188.875 80.1999 190.013 75.9313C190.372 74.5812 190.732 73.1522 190.357 71.8064C190.073 70.7903 189.399 69.9362 188.74 69.1123L181.004 59.4379L178.757 58.1439C179.322 57.5839 179.548 57.1826 179.435 56.9398C179.249 56.5438 178.153 56.5738 176.149 57.0298L178.124 55.0653C174.841 55.7471 171.69 56.9568 168.794 58.6473L173.801 53.8144C168.342 54.4596 163.688 58.3213 158.243 59.0799C155.692 59.4354 153.102 59.0873 150.527 59.0571C141.228 58.9468 132.421 62.9472 124.091 67.0789C118.19 70.0058 112.322 73.0745 106.947 76.908C104.401 78.7245 101.727 80.7038 99.6508 83.0626C98.1953 84.7165 98.0814 86.3372 98.485 88.4187C99.1714 91.9668 99.2213 95.5002 99.4801 99.0957Z" fill="#FAEE3C" stroke="#231F20" stroke-width="0.5" stroke-miterlimit="10"/>
<path d="M112.58 85.9804C112.58 86.6582 112.588 87.373 112.943 87.9424C113.298 88.5118 114.135 88.8193 114.636 88.3799C114.735 93.0722 115.394 97.7359 116.6 102.272C117.107 104.174 117.739 106.105 119.003 107.594C121.09 110.059 124.539 110.86 127.721 110.705C130.904 110.55 133.995 109.596 137.152 109.152C139.23 108.862 141.363 108.79 143.34 108.075C144.902 107.509 146.309 106.56 147.592 105.487C150.719 102.851 153.155 99.4899 154.685 95.6967C155.17 94.497 155.581 93.227 156.421 92.2552C157.262 91.2835 158.691 90.6913 159.825 91.2693C161.124 91.9342 161.393 93.6589 161.718 95.107C162.374 98.0192 163.862 100.653 165.331 103.235C165.904 104.244 166.515 105.294 167.488 105.905C168.535 106.563 169.829 106.608 171.057 106.644C173.964 106.734 176.977 106.919 179.55 108.308C181.09 109.138 182.485 110.399 184.212 110.609C187.021 110.95 189.338 108.41 190.754 105.905C192.664 102.519 193.899 98.7939 194.39 94.937C194.534 93.8001 194.617 92.6367 195.028 91.57C195.382 90.65 195.964 89.8446 196.462 88.998C197.373 87.443 198.01 85.7429 198.345 83.9722C198.514 83.0818 198.541 82.0003 197.843 81.4457C197.48 81.1561 197.001 81.0816 196.544 81.0206C186.8 79.7247 176.902 80.2063 167.33 82.4421C163.543 83.3282 159.672 84.4953 155.838 83.8508C153.927 83.5291 152.117 82.7675 150.255 82.2203C146.628 81.1537 142.825 80.9041 139.054 80.7365C130.858 80.3725 122.657 80.3639 114.451 80.7106C113.79 80.7383 113.007 80.8449 112.708 81.45C112.674 81.715 112.627 82.1168 112.589 82.6073C112.487 83.8816 112.583 84.7295 112.58 85.9804Z" fill="#54B948"/>
<path d="M150.843 88.9382C150.341 94.1514 148.729 99.1966 146.114 103.735C145.416 104.94 144.574 106.171 143.312 106.71C142.589 107.018 141.785 107.066 141.001 107.108L132.187 107.62C131.134 107.681 130.082 107.739 129.03 107.801C126.026 107.977 122.345 107.786 120.949 105.054C120.423 104.024 120.357 102.819 120.302 101.65C120.216 99.8596 120.129 98.0696 120.044 96.2797L119.816 91.403C119.796 90.984 119.75 90.5496 119.705 90.0991C119.613 89.1268 119.52 88.118 119.67 87.2178C119.837 86.2195 120.909 85.4431 121.723 85.0037C122.8 84.4189 124.014 84.1238 125.217 83.9432C125.266 83.9319 125.315 83.9233 125.364 83.9174C133.062 82.773 140.917 83.3514 148.364 85.6107C148.723 85.7158 149.074 85.8436 149.416 85.9934C149.971 86.2571 150.448 86.6194 150.696 87.1728C150.939 87.7144 150.897 88.3405 150.843 88.9382Z" fill="#231F20"/>
<path d="M191.088 93.7883C190.795 97.2132 190.269 100.715 188.624 103.716C188.311 104.285 187.956 104.839 187.496 105.299C186.474 106.308 185.058 106.753 183.693 107.161C182.823 107.426 181.938 107.689 181.033 107.71C180.37 107.72 179.718 107.606 179.066 107.487C178.671 107.415 178.276 107.348 177.882 107.275C176.156 106.97 174.431 106.659 172.706 106.355C172.213 106.266 171.71 106.178 171.288 105.904C170.818 105.599 170.505 105.103 170.211 104.61C168.337 101.43 166.99 97.9671 166.221 94.3564C166.11 93.8339 166.014 93.3089 165.938 92.7734C165.82 92.0032 165.768 91.2244 165.781 90.4454C165.802 89.664 165.807 88.8211 166.064 88.0761C166.282 87.4599 166.722 87.0051 167.235 86.6378C168.135 85.9964 169.136 85.5515 170.173 85.1996L170.355 85.138C171.654 84.7066 172.975 84.3203 174.32 84.0411C176.681 83.5395 179.104 83.3787 181.516 83.2241C184.162 83.0478 186.948 82.903 189.325 84.1034C189.801 84.3462 190.266 84.658 190.544 85.117C190.549 85.1226 190.549 85.1275 190.554 85.1331C190.721 85.4227 190.797 85.7536 190.873 86.0796C191.417 88.5992 191.311 91.2181 191.088 93.7883Z" fill="#231F20"/>
<path d="M149.419 85.9915C149.32 86.1628 149.212 86.3286 149.095 86.4882C146.237 90.4931 143.379 94.4984 140.518 98.5042C139.426 100.036 138.323 101.578 137.006 102.907C136.131 103.786 135.169 104.571 134.315 105.463C133.622 106.187 132.97 107.01 132.191 107.615C131.139 107.676 130.087 107.734 129.035 107.796C126.031 107.972 122.349 107.781 120.954 105.049C120.428 104.019 120.362 102.814 120.306 101.645C120.22 99.8547 120.134 98.0646 120.048 96.2748L119.817 91.403C119.796 90.984 119.751 90.5496 119.705 90.0991C120.246 89.4164 120.899 88.8316 121.526 88.2265C121.698 88.0613 121.87 87.89 122.037 87.7193C123.192 86.5441 124.256 85.2817 125.218 83.9432C125.266 83.9319 125.315 83.9233 125.364 83.9174C133.062 82.773 140.918 83.3514 148.365 85.6107C148.724 85.7151 149.076 85.8423 149.419 85.9915Z" fill="#586654"/>
<path d="M190.558 85.1331C189.491 87.4297 188.231 89.6314 186.984 91.8375C184.339 96.4795 181.696 101.124 179.054 105.77C178.736 106.329 178.397 106.913 177.883 107.275C176.158 106.97 174.433 106.659 172.707 106.355C172.214 106.267 171.711 106.178 171.29 105.904C170.82 105.599 170.506 105.103 170.213 104.61C168.339 101.43 166.992 97.9671 166.223 94.3565C166.111 93.834 166.015 93.309 165.939 92.7735C166.086 92.4783 166.243 92.1838 166.405 91.8991C167.189 90.4867 167.998 89.0793 168.817 87.6879C169.323 86.8345 169.854 85.9909 170.358 85.1374C171.657 84.7061 172.978 84.3197 174.323 84.0406C176.684 83.539 179.107 83.3782 181.519 83.2235C184.164 83.0473 186.951 82.9025 189.328 84.1028C189.803 84.3456 190.269 84.6574 190.546 85.1165C190.553 85.1226 190.553 85.1276 190.558 85.1331Z" fill="#586654"/>
<path d="M109.52 81.744L98.3465 83.2142C97.4123 83.3375 96.2433 83.6936 96.1571 84.6525C96.1355 84.8897 96.1916 85.1263 96.2477 85.3574C96.4691 86.2755 96.6907 87.1935 96.9125 88.1112C97.159 89.1206 97.4431 90.202 98.23 90.8589C98.3935 91.0071 98.5934 91.1093 98.8092 91.1553C99.0847 91.2009 99.3638 91.106 99.6269 91.0142C103.35 89.7218 107.175 88.7428 111.061 88.0872C111.446 88.0219 111.889 87.9202 112.065 87.5634C112.166 87.3588 112.152 87.1179 112.135 86.8899C112.031 85.4521 111.926 84.0143 111.822 82.5765C111.812 82.4397 111.799 82.2961 111.724 82.1833C111.605 82.0058 111.372 81.9615 111.163 81.9368C109.927 81.7904 108.677 81.8207 107.45 82.0268" fill="#CA3D27"/>
<path d="M109.52 81.744L98.3465 83.2142C97.4123 83.3375 96.2433 83.6936 96.1571 84.6525C96.1355 84.8897 96.1916 85.1263 96.2477 85.3574C96.4691 86.2755 96.6907 87.1935 96.9125 88.1112C97.159 89.1206 97.4431 90.202 98.23 90.8589C98.3935 91.0071 98.5934 91.1093 98.8092 91.1553C99.0847 91.2009 99.3638 91.106 99.6269 91.0142C103.35 89.7218 107.175 88.7428 111.061 88.0872C111.446 88.0219 111.889 87.9202 112.065 87.5634C112.166 87.3588 112.152 87.1179 112.135 86.8899C112.031 85.4521 111.926 84.0143 111.822 82.5765C111.812 82.4397 111.799 82.2961 111.724 82.1833C111.605 82.0058 111.372 81.9615 111.163 81.9368C109.927 81.7904 108.677 81.8207 107.45 82.0268" stroke="#231F20" stroke-width="0.5" stroke-miterlimit="10"/>
<path d="M127.615 188.625C129.213 189.846 131.199 190.416 133.134 190.962C139.76 192.829 146.419 194.705 153.256 195.508C160.064 196.309 166.946 196.034 173.795 195.76L181.602 195.446C182.968 195.392 184.343 195.336 185.676 195.03C187.816 194.535 189.763 193.419 191.272 191.822C192.358 190.667 193.225 189.111 192.926 187.553C192.537 185.535 190.297 184.335 188.242 184.331C186.187 184.328 184.25 185.2 182.318 185.901C175.012 188.55 167.098 188.862 159.334 189.146C153.902 189.345 148.452 189.543 143.042 189.023C138.307 188.57 133.648 187.575 128.931 186.971C127.675 186.81 126.343 186.571 125.078 186.595C126.026 187.131 126.756 187.969 127.615 188.625Z" fill="#E2C7A0" stroke="#231F20" stroke-width="0.5" stroke-miterlimit="10"/>
<path d="M125.516 185.694C130.036 186.561 134.564 184.642 139.094 184.708C143.859 184.777 148.491 186.146 153.275 186.011C158.173 185.872 163.056 184.871 167.888 184.128L182.123 181.94C183.766 181.687 193.712 179.54 192.66 183.803C192.153 185.854 189.097 185.413 187.562 185.638C185.393 185.954 183.334 186.752 181.287 187.504C172.405 190.767 162.544 189.989 153.215 190.163C143.631 190.342 131.582 191.11 123.329 185.295C123.65 185.375 123.978 185.42 124.309 185.428" fill="#E2C7A0"/>
<path d="M125.516 185.694C130.036 186.561 134.564 184.642 139.094 184.708C143.859 184.777 148.491 186.146 153.275 186.011C158.173 185.872 163.056 184.871 167.888 184.128L182.123 181.94C183.766 181.687 193.712 179.54 192.66 183.803C192.153 185.854 189.097 185.413 187.562 185.638C185.393 185.954 183.334 186.752 181.287 187.504C172.405 190.767 162.544 189.989 153.215 190.163C143.631 190.342 131.582 191.11 123.329 185.295C123.65 185.375 123.978 185.42 124.309 185.428" stroke="#231F20" stroke-width="0.5" stroke-miterlimit="10"/>
<path d="M178.413 187.441C177.07 187.511 175.783 187.957 174.944 188.644C174.873 188.706 174.801 188.771 174.815 188.845C174.831 188.894 174.863 188.938 174.905 188.968C175.383 189.393 176.214 189.637 177.019 189.59C177.824 189.542 178.575 189.207 178.929 188.733C179.028 188.602 179.099 188.454 179.064 188.309C178.983 187.975 178.386 187.78 178.267 187.451" fill="#231F20"/>
<path d="M208.407 151.591C209.83 150.537 221.927 141.855 235.551 145.512C249.077 149.147 257.939 163.287 258.563 176.798C259.185 190.267 251.707 204.97 239.688 209.376C229.409 213.144 218.602 208.357 213.314 206.014C203.36 201.605 199.783 195.841 186.671 191.258C183.312 190.085 179.868 189.175 176.368 188.535C180.707 185.035 184.762 181.197 188.493 177.056C200.079 164.194 200.07 157.769 208.407 151.591Z" fill="#F06EA9" stroke="white" stroke-width="0.5" stroke-miterlimit="10"/>
<path d="M242.91 154.559C243.802 155.183 245.502 156.372 246.272 158.605C246.414 159.019 247.602 162.633 245.455 164.786C243.823 166.422 241.335 166.193 240.698 166.053C239.014 165.683 237.525 164.731 236.066 163.814C233.438 162.164 230.777 160.571 228.081 159.035C225.414 157.515 222.541 156.231 219.951 154.602C222.123 153.157 225.397 153.048 227.893 152.516C231.163 151.82 234.546 151.859 237.799 152.63C240.911 153.372 242.343 154.161 242.91 154.559Z" fill="#F2D4DD" stroke="white" stroke-width="0.5" stroke-miterlimit="10"/>
<path d="M252.703 174.184C253.592 173.765 253.82 172.418 253.91 171.885C254.203 170.149 253.343 168.827 253.134 168.523C251.257 165.997 248.949 165.045 247.784 165.732C246.714 166.363 246.747 168.296 246.929 169.299C247.499 172.45 251.07 174.951 252.703 174.184Z" fill="#F1D9E3" stroke="white" stroke-width="0.5" stroke-miterlimit="10"/>
<path d="M98.0648 78.8139C97.094 77.1098 95.8153 75.6008 94.2936 74.3636C92.2953 72.7535 90.3363 72.022 84.0208 70.2967C81.5671 69.6262 78.5773 68.8387 75.1475 68.0001C75.5036 69.2818 78.157 78.2574 87.015 81.999C91.8411 84.0381 96.2661 83.5753 98.3464 83.2117L98.0648 78.8139Z" fill="#454DA0" stroke="#231F20" stroke-width="0.5" stroke-miterlimit="10"/>
<path d="M100.171 80.268C99.6346 79.5847 98.7122 78.5944 97.2136 77.7096C95.6465 76.7852 94.111 76.3644 89.1591 75.3729C87.2353 74.9872 84.8913 74.5349 82.2021 74.0524C82.4813 74.7918 84.5616 79.9495 91.5069 82.1006C95.291 83.2714 98.7602 83.0065 100.391 82.7976L100.171 80.268Z" fill="#282970"/>
<path d="M100.168 78.226C100.072 76.6658 99.6872 75.137 99.0319 73.7179C98.1642 71.8582 97.0132 70.6368 93.0799 67.1374C91.5523 65.7787 89.6797 64.1439 87.5088 62.3131C87.3104 63.349 86.0379 70.6578 91.0828 76.4994C93.8335 79.6821 97.1832 80.9503 98.8076 81.4426L100.168 78.226Z" fill="#454DA0" stroke="#231F20" stroke-width="0.5" stroke-miterlimit="10"/>
<path d="M101.168 80.0142C100.945 78.9874 100.531 78.0116 99.9476 77.1377C99.1466 75.9177 98.1914 75.0667 94.9798 72.5778C93.732 71.6116 92.2068 70.4464 90.4414 69.1351C90.3798 69.7574 90.0489 74.1596 94.2841 78.1859C96.5918 80.3796 99.1823 81.442 100.43 81.8832L101.168 80.0142Z" fill="#282970"/>
<path d="M190.51 77.2013C190.499 77.7531 190.392 78.2987 190.194 78.8139C190.077 79.1083 189.924 79.3867 189.737 79.6427C183.922 77.7152 177.505 77.3535 171.219 77.0127C160.16 76.4212 148.971 75.8296 138.057 77.3603C125.513 79.1245 113.863 83.6142 102.571 88.2998C102.547 88.3109 102.524 88.3183 102.501 88.3294C101.638 88.688 100.714 89.0577 99.7491 88.9986C98.5783 88.9209 97.6626 88.2221 97.1691 87.4051C97.075 87.2477 96.994 87.0828 96.9269 86.9121C96.8028 86.5754 96.7277 86.2226 96.7038 85.8645C96.6102 84.5995 97.0668 83.2648 97.3927 82.0071C97.4765 81.678 97.5511 81.3527 97.6066 81.0347V81.0273C97.945 79.1092 98.4308 77.2201 99.0596 75.3767V75.373C99.2272 74.8887 99.404 74.4037 99.5951 73.9268C99.6419 73.7937 99.6974 73.6643 99.7491 73.5312C100.295 72.1788 100.911 70.8555 101.593 69.5665C101.868 69.0452 102.156 68.5313 102.449 68.0173C104.214 64.9511 106.323 62.0001 108.596 59.1489C109.709 57.7507 110.876 56.3643 112.177 55.077C113.253 53.9991 114.429 53.0258 115.689 52.1704C121.167 48.4928 129.705 47.1261 129.705 47.1261C133.39 46.6042 156.504 43.3278 171.611 51.1265C173.918 52.317 179.284 55.0869 182.087 58.9486C182.65 59.7238 183.588 61.2003 185.348 63.1487C187.109 65.0971 187.615 65.2167 188.496 66.5834C189.736 68.5035 190.079 70.3423 190.352 71.8082C190.629 73.2828 190.59 74.5892 190.51 77.2013Z" fill="#454DA0" stroke="#231F20" stroke-width="0.5" stroke-miterlimit="10"/>
<path d="M117.988 55.9039C115.128 56.6249 112.535 57.8819 110.514 59.5167C112.242 59.147 113.97 58.776 115.697 58.4039C113.117 59.4945 110.789 60.9075 108.847 62.5528C110.613 62.5015 112.36 62.1721 114.024 61.5767C111.527 63.1025 109.156 64.8238 106.932 66.7245C106.747 66.8798 106.562 67.0326 106.387 67.194C106.764 67.1053 107.141 67.0166 107.518 66.9241C108.962 66.584 110.403 66.2438 111.839 65.9037C109.442 67.4426 107.143 69.1272 104.952 70.948L109.334 70.1469C107.77 70.606 106.331 71.29 105.116 72.144C105.081 72.165 105.049 72.1884 105.018 72.2143C104.199 72.7869 103.465 73.473 102.839 74.2521C104.643 74.1064 106.432 73.8058 108.184 73.3536C106.14 74.8184 104.417 76.5191 103.099 78.372L107.073 77.107C105.571 78.3058 104.236 79.7015 103.106 81.2565C104.491 80.6966 105.953 80.3512 107.441 80.2324C106.282 81.1567 105.124 82.0836 103.968 83.0133L106.831 82.9135C106.058 84.9365 104.551 86.782 102.571 88.2979C102.547 88.309 102.524 88.3164 102.501 88.3275C101.638 88.6861 100.714 89.0558 99.7491 88.9967C98.5783 88.919 97.6626 88.2202 97.1691 87.4032C97.075 87.2458 96.994 87.0809 96.9269 86.9102C96.8028 86.5735 96.7277 86.2207 96.7038 85.8626C96.6102 84.5976 97.0668 83.2629 97.3927 82.0052C97.4765 81.6761 97.5511 81.3508 97.6066 81.0328V81.0254C97.945 79.1073 98.4308 77.2182 99.0596 75.3748V75.3711C99.2272 74.8868 99.404 74.4018 99.5951 73.9249C99.6419 73.7918 99.6974 73.6624 99.7491 73.5293C100.295 72.177 100.911 70.8536 101.593 69.5646C101.868 69.0433 102.156 68.5294 102.449 68.0154C104.214 64.9492 106.323 61.9982 108.596 59.147C109.709 57.7488 110.876 56.3624 112.177 55.0751C114.877 54.6277 117.62 54.2913 120.367 54.0892C117.401 54.311 114.537 55.2094 112.279 56.6298C114.202 56.5927 116.116 56.3493 117.988 55.9039Z" fill="#282970"/>
<path d="M183.734 61.2181C181.605 60.9689 179.504 60.5213 177.459 59.8809C176.005 59.4255 174.583 58.8741 173.203 58.2301C174.159 58.5109 175.154 58.6335 176.149 58.5931C178.669 58.4797 180.272 57.304 181.449 58.1315C181.732 58.3389 181.953 58.6195 182.088 58.9431L183.734 61.2181Z" fill="black"/>
<path d="M184.395 66.6254C182.401 66.1891 181.64 66.0831 180.34 65.7189C178.679 65.2511 177.066 64.6282 175.521 63.8586C177.411 64.1556 179.485 64.3953 181.724 64.5266C183.511 64.6313 185.204 64.6547 186.776 64.6227L188.055 65.9537C188.428 66.5666 188.801 67.1795 189.174 67.7924C188.108 67.5034 186.452 67.0764 184.395 66.6254Z" fill="black"/>
<path d="M190.51 77.2012C190.508 77.754 190.401 78.3013 190.194 78.8139C186.943 76.521 183.297 74.5867 179.377 73.0893C183.539 73.2113 187.176 75.1641 190.51 77.2012Z" fill="black"/>
<path d="M97.6064 81.0218C98.9941 80.1936 100.662 79.5977 102.44 79.3057C100.726 80.1191 98.943 80.9996 97.3926 82.0016C97.4764 81.6725 97.5509 81.3472 97.6064 81.0292V81.0218Z" fill="black"/>
<path d="M96.7041 85.8572C98.4451 85.2064 100.148 84.5112 101.812 83.7713L97.1693 87.4032C97.0752 87.2458 96.9942 87.0809 96.9272 86.9103C96.8025 86.5718 96.7274 86.2171 96.7041 85.8572Z" fill="black"/>
<path d="M105.118 72.1458C105.169 72.1311 105.216 72.1126 105.267 72.0978C105.183 72.1348 105.099 72.176 105.02 72.2161C102.949 73.1856 100.962 74.236 99.0605 75.3674C99.2282 74.883 99.405 74.3981 99.596 73.9211L105.118 72.1458Z" fill="black"/>
<path d="M108.531 66.4465C108.195 66.6092 107.86 66.7719 107.52 66.9272C105.709 67.7775 103.828 68.5657 101.998 69.3828C101.863 69.4444 101.728 69.506 101.593 69.5639C101.868 69.0426 102.156 68.5287 102.449 68.0148C102.826 67.878 103.213 67.748 103.62 67.6223C104.691 67.2932 105.799 66.9678 106.935 66.7275C107.46 66.6098 107.995 66.5137 108.531 66.4465Z" fill="black"/>
</svg>
